<svg width="100" height="98" viewBox="0 0 100 98" fill="none" xmlns="http://www.w3.org/2000/svg">
<path d="M7.39715 66.0668C14.0866 65.9762 28.5874 65.8121 43.982 65.6761C43.7101 70.0748 43.7242 73.7922 43.5757 78.1331C39.9193 80.1676 36.3363 83.2349 33.5658 86.9601C30.1156 91.7135 31.1891 95.1543 33.4611 96.506C36.1784 98.1311 38.9755 96.3778 41.224 94.2746C44.6398 91.0291 46.5306 88.3961 48.7635 84.9913C48.776 84.9882 48.7885 84.9835 48.801 84.9788C49.8729 86.5414 51.8981 90.0384 56.3592 94.2777C58.5922 96.3638 61.3814 98.1373 64.1159 96.5075C65.9567 95.4231 67.8224 92.1182 64.0112 86.9539C61.0611 82.963 57.0437 79.6566 53.3606 77.8081C54.1794 73.8922 54.3544 69.1623 53.5607 65.5965C96.9849 65.2074 95.0567 65.6277 97.149 64.6058C100.913 62.7447 100.952 57.6554 97.2521 55.874C96.5834 55.5475 95.8974 55.3865 95.2052 55.2959C95.2442 53.8958 95.227 53.4958 94.7067 20.5564C94.5348 8.76048 90.5533 4.25711 76.8682 4.39462C72.2679 4.45243 67.6692 4.50868 63.069 4.554C62.7705 1.79135 60.136 0.720974 57.4218 0.274074C54.792 -0.179076 37.3504 -0.149387 35.3378 0.970988C33.8314 1.79603 32.8673 3.37268 32.8142 4.92433C28.1921 4.96965 23.5699 5.0259 18.9462 5.08372C7.65342 5.22435 2.92503 7.92762 3.31568 18.7001C3.63757 28.0662 3.97353 37.6918 4.32511 47.5611C4.39542 49.6831 3.97821 53.327 4.06884 57.0241C0.88273 58.032 -0.403279 60.6384 0.109249 62.6182C0.849915 65.5214 4.40011 66.123 7.39715 66.0668ZM48.6604 62.8182L49.9089 64.0667C49.0698 64.0729 48.2322 64.0792 47.3931 64.087L48.6604 62.8182ZM49.9495 66.0168L50.2183 66.2856L49.5104 66.9934L48.3932 65.8762L48.401 65.8683C48.4635 65.8058 48.4854 65.7215 48.4963 65.6402C48.9573 65.6371 49.4182 65.6324 49.8808 65.6293C49.8386 65.7636 49.8433 65.909 49.9495 66.0168ZM45.9305 67.7872C46.0837 67.9403 46.3306 67.9403 46.4837 67.7872L46.6837 67.5872L47.3416 68.245C47.3228 68.2575 47.2978 68.2528 47.2806 68.27L46.0024 69.5482L45.529 69.0748C45.4883 69.0341 45.4336 69.0326 45.3821 69.0138C45.4133 68.1403 45.4524 67.27 45.4993 66.4043L46.129 67.034L45.929 67.234C45.7774 67.3872 45.7774 67.6341 45.9305 67.7872ZM45.3461 69.9951L45.4508 70.0998L45.3414 70.2092C45.343 70.1373 45.343 70.067 45.3461 69.9951ZM45.8633 65.6605C46.3571 65.6558 46.8587 65.6527 47.3541 65.648C47.3384 65.7074 47.3353 65.7574 47.3494 65.8168L46.6853 66.4809L45.8633 65.6605ZM45.2602 73.4531L45.9258 74.1188L45.2243 74.8204C45.2321 74.4298 45.2461 74.0422 45.2555 73.65C45.2571 73.586 45.2602 73.5188 45.2602 73.4531ZM49.6073 82.8068C48.6276 83.6834 46.8947 84.0428 45.9321 83.1396C44.868 82.1474 45.0649 80.1051 45.1227 78.6519C45.1571 77.8393 45.1867 76.3345 45.2055 75.5251C45.3618 75.6126 45.504 75.647 45.6649 75.4861L48.301 72.85C48.4541 72.6968 48.4541 72.45 48.301 72.2968C48.1479 72.1437 47.901 72.1437 47.7478 72.2968L46.479 73.5656L45.2868 72.3734C45.2961 71.9406 45.3071 71.5077 45.318 71.0733C45.343 71.078 45.3633 71.103 45.3883 71.103C45.4883 71.103 45.5883 71.0655 45.6649 70.9889L46.0024 70.6514L47.0212 71.6702C47.1744 71.8234 47.4212 71.8234 47.5744 71.6702C47.7275 71.5171 47.7275 71.2702 47.5744 71.1171L46.5556 70.0983L47.8338 68.8201C47.851 68.8029 47.8463 68.7779 47.8588 68.7591L48.0025 68.9029C48.1557 69.056 48.4026 69.056 48.5557 68.9029C48.7088 68.7497 48.7088 68.5029 48.5557 68.3497L47.2369 67.0309L47.8431 66.4246L48.976 67.5575C48.8651 67.7106 48.8604 67.9185 48.9979 68.0575C49.1292 68.1888 49.3073 68.2185 49.4979 68.0794L49.7526 68.3341C49.9058 68.4872 50.1527 68.4872 50.3058 68.3341C50.4589 68.181 50.4589 67.9341 50.3058 67.7809L50.0667 67.5419L50.7746 66.834L51.8293 67.8888C51.9621 68.0216 52.1684 68.0575 52.3528 67.9013C52.7559 72.0421 52.2653 80.341 49.6073 82.8068ZM52.2731 67.2356L51.2746 66.2371C51.3168 66.1027 51.3121 65.9574 51.2058 65.8496C51.0996 65.7418 50.9543 65.7386 50.8183 65.7808L50.6605 65.623C51.1027 65.6199 51.5387 65.6152 51.9824 65.6121C52.1059 66.1043 52.1965 66.6543 52.2731 67.2356ZM44.7945 64.1057C44.5602 64.1073 44.3289 64.1104 44.0945 64.112L44.9133 63.2932L45.718 64.0979C45.4102 64.1026 45.1008 64.1026 44.7945 64.1057ZM40.1537 93.1402C38.5395 94.6481 36.3019 96.3888 34.2611 95.1668C32.7548 94.2699 31.9595 91.8354 34.8252 87.8883C37.1644 84.7413 40.1568 82.0192 43.5148 79.9769C43.4976 81.2754 43.6335 82.6615 44.3789 83.7178C44.3945 83.7412 44.4086 83.7646 44.4242 83.7881C45.0039 84.5709 45.9055 85.0647 46.7743 85.1944C44.8992 88.0743 42.6725 90.7447 40.1537 93.1402ZM62.7533 87.8852C65.6113 91.7573 64.8285 94.2777 63.3221 95.1653C63.3206 95.1653 63.3206 95.1668 63.319 95.1668C61.2908 96.3825 59.0438 94.6481 57.4312 93.1449C54.1998 90.0728 52.3981 87.5945 50.2402 84.3053C50.387 84.2006 50.5277 84.0881 50.6621 83.9693C51.8902 82.8302 52.6262 81.0129 53.0403 79.38C56.5327 81.277 60.0891 84.2803 62.7533 87.8852ZM62.3815 63.9604L62.6018 63.7401L62.819 63.9557C62.6705 63.9589 62.5283 63.9589 62.3815 63.9604ZM68.3599 61.8931C68.374 61.9681 68.3896 62.0447 68.4474 62.1041L69.6459 63.3026L69.0396 63.9089C68.5552 63.912 68.063 63.9167 67.5708 63.9198L66.9536 63.3026L68.3599 61.8931ZM71.8148 62.2384L73.4524 63.876C72.5914 63.8823 71.7163 63.8885 70.8225 63.8948C70.9585 63.7417 70.9601 63.5104 70.8132 63.3635L70.7507 63.301L71.8148 62.2384ZM70.2428 63.8995C70.2116 63.8995 70.1819 63.8995 70.1506 63.8995L70.1975 63.8526L70.2428 63.8995ZM66.4739 63.9276C66.4239 63.9276 66.3754 63.9276 66.3254 63.9292L66.4004 63.8542L66.4739 63.9276ZM74.6071 63.8682L75.4431 63.0322L76.2666 63.8557C75.7197 63.8604 75.1697 63.8635 74.6071 63.8682ZM77.8011 63.8464C77.8339 63.8292 77.8729 63.8323 77.9011 63.8057L79.0714 62.6353L80.2668 63.8307C79.4668 63.8354 78.6464 63.8417 77.8011 63.8464ZM82.3669 63.8182L83.8326 62.3525L85.2827 63.8026C84.3577 63.8057 83.3904 63.812 82.3669 63.8182ZM87.4969 63.7901L88.2266 63.0604L88.9486 63.7823C88.4845 63.7854 88.0032 63.787 87.4969 63.7901ZM16.9024 56.3506L26.642 40.2466L27.6483 41.2529L27.0045 41.8967C26.8514 42.0498 26.8514 42.2967 27.0045 42.4498C27.1576 42.603 27.4045 42.603 27.5576 42.4498L28.2014 41.8061L28.8983 42.503C29.0515 42.6561 29.2984 42.6561 29.4515 42.503C29.6046 42.3498 29.6046 42.103 29.4515 41.9498L28.7546 41.2529L30.3969 39.6106L31.1453 40.3591C31.2985 40.5122 31.5454 40.5122 31.6985 40.3591C31.8516 40.206 31.8516 39.9591 31.6985 39.806L30.95 39.0575L31.0282 38.9793C31.1813 38.8262 31.1813 38.5793 31.0282 38.4262C30.875 38.2731 30.6281 38.2731 30.475 38.4262L30.3969 38.5043L29.8875 37.9949L29.9578 37.9246C30.3203 37.5621 29.7718 37.0058 29.4046 37.3714L29.3343 37.4418L28.8312 36.9386C28.789 36.8964 28.7327 36.8949 28.6796 36.8761L29.6562 35.2604L30.3375 35.9417L29.9265 36.3526C29.7734 36.5058 29.7734 36.7527 29.9265 36.9058C30.0797 37.0589 30.3265 37.0589 30.4797 36.9058L30.8906 36.4948L32.0016 37.6058L31.5329 38.0746C31.3797 38.2277 31.3797 38.4746 31.5329 38.6278C31.686 38.7809 31.9329 38.7809 32.086 38.6278L32.5548 38.159L33.3377 38.9418C33.4111 39.0153 33.5064 39.0481 33.6017 39.0512L33.0158 39.6372L32.797 39.4184C32.6439 39.2653 32.397 39.2653 32.2438 39.4184C32.0907 39.5716 32.0907 39.8185 32.2438 39.9716L32.4626 40.1903L32.2782 40.3747C32.1251 40.5279 32.1251 40.7748 32.2782 40.9279C32.4314 41.081 32.6782 41.081 32.8314 40.9279L33.0158 40.7435L34.0908 41.8186L33.2611 42.6483C33.108 42.8014 33.108 43.0483 33.2611 43.2015C33.4142 43.3546 33.6611 43.3546 33.8142 43.2015L35.8331 41.1826C41.6553 50.6722 43.6351 53.9286 44.8445 55.924C41.2443 55.9772 21.076 56.2866 16.9024 56.3506ZM34.6409 41.267L33.5658 40.1919L34.5955 39.1622C34.8721 39.6153 35.1503 40.07 35.4268 40.5232C35.405 40.5372 35.3753 40.5326 35.355 40.5529L34.6409 41.267ZM33.9971 38.6543C33.9939 38.559 33.9611 38.4637 33.8877 38.3903L33.1048 37.6074L33.4392 37.273C33.6845 37.6746 33.9299 38.0746 34.1752 38.4762L33.9971 38.6543ZM32.5517 37.0542L31.4407 35.9432L32.1751 35.2088C32.4564 35.6698 32.7376 36.1261 33.0173 36.587L32.5517 37.0542ZM30.8891 35.3916L30.0718 34.5744C30.6297 33.6525 30.4375 33.9056 31.0219 33.3212C31.2672 33.7259 31.5126 34.1197 31.7579 34.5244L30.8891 35.3916ZM28.2952 37.5121L28.7796 37.9965L28.2764 38.4996C28.1233 38.6528 28.1233 38.8997 28.2764 39.0528C28.4296 39.2059 28.6765 39.2059 28.8296 39.0528L29.3327 38.5496L29.8421 39.059L28.1999 40.7013L27.0576 39.5591L28.2952 37.5121ZM60.8564 27.6084L62.2205 28.9725L60.1891 31.0039L58.8656 29.6804C59.5204 28.9663 60.1845 28.2819 60.8564 27.6084ZM61.408 27.0568C61.6549 26.8162 61.8924 26.5568 62.1408 26.324C62.5002 26.8709 62.8549 27.4287 63.2143 27.9787L62.7721 28.4209L61.408 27.0568ZM58.3437 30.2632L59.6376 31.5571L58.9516 32.243L57.6937 30.9852C57.9078 30.7398 58.1265 30.5039 58.3437 30.2632ZM57.1702 31.5664L58.4312 32.8274C58.3594 32.9728 58.3562 33.1446 58.4781 33.2665C58.6453 33.4337 58.7719 33.3853 58.9172 33.3134L59.3172 33.7134L58.5609 34.4697L56.478 32.3868C56.7108 32.1165 56.9374 31.8368 57.1702 31.5664ZM55.9749 32.99L56.6593 33.6744C56.6264 33.6916 56.5889 33.6884 56.5608 33.715L55.6967 34.5791L55.1217 34.0041C55.4029 33.6634 55.6905 33.3275 55.9749 32.99ZM54.6201 34.6072L55.142 35.1291L54.5341 35.737C54.381 35.8901 54.381 36.137 54.5341 36.2901C54.6873 36.4433 54.9342 36.4433 55.0873 36.2901L55.6951 35.6823L56.3717 36.3589C56.5249 36.512 56.7718 36.512 56.9249 36.3589C57.078 36.2058 57.078 35.9589 56.9249 35.8057L56.2483 35.1291L57.1124 34.265C57.139 34.2385 57.1358 34.1994 57.153 34.1666L58.0093 35.0229L57.3656 35.6667C57.2124 35.8198 57.2124 36.0667 57.3656 36.2198C57.5187 36.373 57.7656 36.373 57.9187 36.2198L58.5625 35.576L58.7516 35.7651C58.9047 35.9182 59.1516 35.9182 59.3047 35.7651C59.4579 35.612 59.4579 35.3651 59.3047 35.2119L59.1157 35.0229L59.8735 34.265C59.9501 34.34 60.0485 34.3791 60.1485 34.3791C60.2485 34.3791 60.3485 34.3416 60.4251 34.265C60.5782 34.1119 60.5782 33.865 60.4251 33.7119L59.5063 32.7931L60.1923 32.1071L61.9783 33.8931C62.1314 34.0463 62.3783 34.0463 62.5315 33.8931C62.6846 33.74 62.6846 33.4931 62.5315 33.34L60.7454 31.5539L62.7768 29.5226L64.0722 30.818C64.4363 31.182 64.9925 30.6336 64.6253 30.2648L63.3299 28.9694L63.655 28.6444C64.3003 29.6366 64.9441 30.6273 65.5879 31.6227L64.0519 33.1587L63.7972 32.904C63.644 32.7509 63.3971 32.7509 63.244 32.904C63.0909 33.0571 63.0909 33.304 63.244 33.4572L63.4987 33.7119L62.394 34.8166C62.2408 34.9697 62.2408 35.2166 62.394 35.3698C62.5471 35.5229 62.794 35.5229 62.9471 35.3698L64.0519 34.265L65.516 35.7292L64.7675 36.4761C64.6144 36.6292 64.6144 36.8761 64.7675 37.0292C64.9207 37.1824 65.1675 37.1824 65.3207 37.0292L66.0692 36.2823L66.2785 36.4917C66.4317 36.6448 66.6786 36.6448 66.8317 36.4917C66.9848 36.3386 66.9848 36.0917 66.8317 35.9386L66.6223 35.7292L67.6036 34.7479C72.4711 42.3436 76.426 48.6236 80.8669 55.3756C74.4352 55.4709 48.6323 55.8615 46.6603 55.8912C46.6275 55.8381 46.5962 55.7865 46.5634 55.7334C46.779 55.7334 46.954 55.5584 46.954 55.3428V54.9209H47.1369C47.3525 54.9209 47.5275 54.7458 47.5275 54.5302C47.5275 54.3146 47.3525 54.1396 47.1369 54.1396H46.954V52.6301C46.954 52.6207 46.9447 52.616 46.9447 52.6067C46.9447 52.5973 46.9556 52.591 46.9556 52.5817C46.9556 52.366 46.7806 52.191 46.5649 52.191H45.4821V50.8831H45.7758C45.9915 50.8831 46.1665 50.7081 46.1665 50.4925C46.1665 50.2769 45.9915 50.1018 45.7758 50.1018H45.4821V49.5424C45.4821 49.3268 45.3071 49.1518 45.0914 49.1518C44.8758 49.1518 44.7008 49.3268 44.7008 49.5424V50.1018H43.9273C43.9351 50.0722 43.9617 50.0518 43.9617 50.0206V48.6502H46.6509C46.8665 48.6502 47.0415 48.4752 47.0415 48.2595C47.0415 48.0439 46.8665 47.8689 46.6509 47.8689H43.9539V47.1298H45.5493V47.197C45.5493 47.4126 45.7243 47.5876 45.9399 47.5876C46.1556 47.5876 46.3306 47.4126 46.3306 47.197V47.1298H48.5197C48.7354 47.1298 48.9104 46.9548 48.9104 46.7392C48.9104 46.5235 48.7354 46.3485 48.5197 46.3485H46.329V44.8547H48.8041C49.0198 44.8547 49.1948 44.6797 49.1948 44.464C49.1948 44.3015 49.0823 44.189 48.9401 44.1296V43.1358C49.0229 43.0639 49.0807 42.9671 49.0807 42.8483C49.0807 42.7296 49.0229 42.6327 48.9401 42.5608V41.5654C48.9401 41.5576 48.9323 41.5545 48.9323 41.5467C51.298 38.7371 52.6169 37.0511 54.6201 34.6072ZM67.1661 34.0775L66.0629 35.1807L64.5988 33.7166L66.0176 32.2993C66.4004 32.8931 66.7848 33.4806 67.1661 34.0775ZM42.2569 48.6549H43.1726V50.0253C43.1726 50.0565 43.1991 50.0768 43.207 50.1065H43.1304C42.8366 49.6253 42.5413 49.1455 42.2475 48.6643C42.2491 48.6611 42.2522 48.658 42.2569 48.6549ZM44.693 50.8878V52.1957H44.5133C44.4789 52.1957 44.457 52.2238 44.4242 52.2332C44.1508 51.7863 43.8773 51.3347 43.6054 50.8878H44.693ZM46.1649 52.977V54.1442H45.6055C45.5993 54.1442 45.5961 54.1505 45.5899 54.1505C45.3524 53.7583 45.1133 53.3692 44.8758 52.977H46.1649ZM46.0634 54.9255H46.1665V55.0943C46.1306 55.0381 46.0977 54.9818 46.0634 54.9255ZM47.5025 43.239H48.1604V44.0734H46.7415C46.9931 43.7921 47.254 43.5249 47.5025 43.239ZM45.5477 46.3532H44.632C44.9414 46.036 45.243 45.7047 45.5477 45.3781V46.3532ZM43.1726 47.8736H43.0632C43.0991 47.8392 43.1366 47.8033 43.1726 47.7673V47.8736ZM83.8295 55.3349C83.4061 55.3412 82.9701 55.3474 82.5451 55.3537C82.5419 54.9834 63.1471 25.0083 62.9424 24.6989C62.6737 24.291 62.1143 24.2363 61.7689 24.5473C54.4357 31.1227 48.6807 40.6248 41.41 47.3017C37.3863 40.7419 34.658 36.3151 31.5938 31.2508C31.311 30.782 30.5391 30.782 30.2578 31.2508L15.0601 56.3803C14.3632 56.3913 13.6772 56.4022 12.9771 56.4131C13.2287 44.7312 13.4319 34.4244 13.8631 13.131C35.7393 11.6513 58.7766 11.6731 84.2374 13.1967C84.1827 27.2865 83.9092 41.3514 83.8295 55.3349ZM36.0909 2.33981C37.0879 1.83197 53.1153 1.11943 57.164 1.81478C58.275 1.99761 59.425 2.25075 60.3017 2.84765C61.8642 3.93678 62.0846 5.81813 60.1298 6.80256L58.7266 5.39936L59.6782 4.44774L60.6314 5.40092C60.7845 5.55405 61.0314 5.55405 61.1845 5.40092C61.3377 5.24779 61.3377 5.0009 61.1845 4.84777L60.2313 3.89459L60.4892 3.63676C60.6423 3.48363 60.6423 3.23674 60.4892 3.08361C60.336 2.93047 60.0891 2.93047 59.936 3.08361L59.6782 3.34143L59.5782 3.24143C59.425 3.08829 59.1782 3.08829 59.025 3.24143C58.8719 3.39456 58.8719 3.64145 59.025 3.79458L59.125 3.89459L58.1734 4.8462L57.1952 3.86802C57.0421 3.71489 56.7952 3.71489 56.6421 3.86802C56.4889 4.02116 56.4889 4.26805 56.6421 4.42118L57.6203 5.39936L56.3858 6.6338L55.1201 5.36811L56.7249 3.76333C56.878 3.6102 56.878 3.36331 56.7249 3.21017C56.5718 3.05704 56.3249 3.05704 56.1717 3.21017L54.5435 4.83839C54.3935 4.7462 54.2013 4.74151 54.0716 4.8712C53.9419 5.0009 53.9466 5.1931 54.0388 5.34311L52.9372 6.44473L51.6715 5.17903L52.3121 4.53837C52.4653 4.38524 52.4653 4.13835 52.3121 3.98522C52.159 3.83208 51.9121 3.83208 51.759 3.98522L49.0526 6.6963L47.6306 5.27435L47.7619 5.14309C47.915 4.98996 47.915 4.74307 47.7619 4.58994C47.6088 4.43681 47.3619 4.43681 47.2087 4.58994L45.7618 6.03846L45.0352 5.31185C44.882 5.15872 44.6352 5.15872 44.482 5.31185C44.3289 5.46499 44.3289 5.71188 44.482 5.86501L45.2086 6.59161L44.6695 7.1307C44.5867 7.21352 44.557 7.32134 44.5648 7.42916L43.2788 7.43853C43.6023 7.30884 43.5898 7.00101 43.4179 6.82912L42.8663 6.27753L43.7585 5.3853C43.9117 5.23216 43.9117 4.98527 43.7585 4.83214C43.6054 4.67901 43.3585 4.67901 43.2054 4.83214L42.3132 5.72438L42.0256 5.43686C41.8725 5.28373 41.6256 5.28373 41.4725 5.43686C41.3193 5.58999 41.3193 5.83688 41.4725 5.99002L41.76 6.27753L40.7349 7.30259C40.7287 7.21196 40.7006 7.11977 40.6302 7.04945L39.1677 5.58687L39.6177 5.13684C39.7708 4.98371 39.7708 4.73682 39.6177 4.58369C39.4646 4.43055 39.2177 4.43055 39.0645 4.58369L37.141 6.50723L36.3206 5.68687C36.1675 5.53374 35.9206 5.53374 35.7675 5.68687C35.6143 5.84001 35.6143 6.0869 35.7675 6.24003L36.5878 7.06039L36.4019 7.24634C33.3908 6.46035 34.0939 3.43519 36.0909 2.33981ZM46.665 6.94163L46.3134 6.59161L47.0775 5.82751L48.4994 7.24946L48.4307 7.31821C48.4088 7.34009 48.4135 7.37291 48.3979 7.39947L46.6978 7.41353C46.79 7.2604 46.7947 7.07133 46.665 6.94163ZM46.0352 7.41666L45.4836 7.42135L45.7618 7.14321L46.0352 7.41666ZM51.1215 5.73219L52.7528 7.36353L49.4651 7.39009L51.1215 5.73219ZM53.7216 7.35572C53.7091 7.27759 53.6919 7.1979 53.631 7.13695L53.4903 6.99632L54.567 5.9197L55.9842 7.33697L53.7216 7.35572ZM57.078 7.32447L56.939 7.18539L58.1734 5.95095L59.3172 7.09476C58.6125 7.26821 57.8453 7.31196 57.078 7.32447ZM37.6457 7.10883L38.6161 6.13846L39.9411 7.46354L39.1458 7.46979C38.602 7.47916 38.0926 7.47135 37.602 7.43385C37.6707 7.33384 37.6801 7.2229 37.6457 7.10883ZM42.8663 7.38072C42.9054 7.41978 42.9616 7.42135 43.0101 7.4401L41.6944 7.45104L42.3163 6.82912L42.8663 7.38072ZM5.61737 56.6553C5.57674 54.0833 5.93145 48.8158 5.88769 47.5064C5.53611 37.6371 5.19859 28.01 4.87826 18.6454C4.597 10.8465 6.03458 6.80725 18.9681 6.6463C23.6793 6.58692 28.3889 6.52911 33.1001 6.48379C34.0518 8.73548 36.7253 9.073 39.1645 9.03394C58.6391 8.87924 58.6984 9.02456 60.336 8.43078C61.5314 7.98075 62.494 7.0307 62.8627 6.11971C67.538 6.0744 72.2132 6.01658 76.8869 5.9572C89.7392 5.81501 92.9878 9.72772 93.1457 20.583C93.1613 21.5424 93.6801 54.2364 93.6566 55.1959C92.6659 55.1959 92.3847 55.2052 85.3968 55.3099C85.4843 40.2685 85.7578 26.6568 85.8015 12.4607C85.8031 12.0466 85.4812 11.7044 85.0671 11.6794C58.9688 10.0918 35.4112 10.0715 13.0412 11.6185C12.6381 11.6466 12.3224 11.9778 12.3146 12.3826C11.8646 34.5666 11.6693 44.464 11.4114 56.4381C9.30195 56.4819 6.92994 56.4616 5.61737 56.6553ZM5.85801 58.2054C5.90176 58.1992 5.94707 58.1882 5.99083 58.182C7.56591 57.982 94.6926 56.3678 96.5709 57.2819C99.0882 58.4961 99.0397 61.9306 96.4599 63.2073C94.9395 63.9479 92.9253 63.7682 90.0486 63.7792L88.7782 62.5088L91.7815 59.5055C91.9347 59.3524 91.9347 59.1055 91.7815 58.9523C91.6284 58.7992 91.3815 58.7992 91.2284 58.9523L88.2251 61.9556L87.311 61.0415C87.1578 60.8884 86.9109 60.8884 86.7578 61.0415C86.6047 61.1946 86.6047 61.4415 86.7578 61.5947L87.6719 62.5088L86.7016 63.4791C86.614 63.5667 86.5906 63.6807 86.6031 63.7948C86.5265 63.7948 86.4578 63.7948 86.3797 63.7964L84.3842 61.8009L86.3343 59.8508C86.4875 59.6977 86.4875 59.4508 86.3343 59.2977C86.1812 59.1445 85.9343 59.1445 85.7812 59.2977L83.8311 61.2478L83.1154 60.5321C82.9623 60.379 82.7154 60.379 82.5623 60.5321C82.4091 60.6852 82.4091 60.9321 82.5623 61.0853L83.2779 61.8009L81.5981 63.4807C81.5028 63.576 81.4888 63.701 81.5122 63.8245C81.3888 63.8245 81.2575 63.826 81.1325 63.8276C81.1481 63.7104 81.1278 63.5932 81.0387 63.5026L79.6215 62.0853L80.6028 61.104C80.7559 60.9509 80.7559 60.704 80.6028 60.5509C80.4496 60.3977 80.2028 60.3977 80.0496 60.5509L79.0683 61.5322L78.2948 60.7587C78.1417 60.6055 77.8948 60.6055 77.7417 60.7587C77.5885 60.9118 77.5885 61.1587 77.7417 61.3118L78.5152 62.0853L77.3448 63.2557C77.1917 63.4088 77.1917 63.6557 77.3448 63.8088C77.3745 63.8385 77.4151 63.8339 77.4495 63.8526C77.2776 63.8542 77.1135 63.8542 76.9401 63.8557C77.0245 63.7073 77.0291 63.5229 76.9026 63.3948L75.9947 62.4807L77.7448 60.7306C77.8979 60.5774 77.8979 60.3305 77.7448 60.1774C77.5917 60.0243 77.3448 60.0243 77.1917 60.1774L75.4416 61.9275L74.7259 61.2118C74.5728 61.0587 74.3259 61.0587 74.1727 61.2118C74.0196 61.365 74.0196 61.6119 74.1727 61.765L74.8884 62.4807L74.0243 63.3448L72.3664 61.6853L73.1211 60.9306C73.2742 60.7774 73.2742 60.5305 73.1211 60.3774C72.968 60.2243 72.7211 60.2243 72.568 60.3774L71.607 61.3384C71.5757 61.3556 71.5367 61.3525 71.5101 61.379C71.4835 61.4056 71.4866 61.4447 71.4695 61.4759L70.1991 62.7463L69.0006 61.5478C68.9428 61.49 68.8646 61.4743 68.7896 61.4603C68.9412 61.3072 68.9412 61.0618 68.7896 60.9087C68.6365 60.7556 68.3896 60.7556 68.2365 60.9087L66.3989 62.7463L65.6551 62.0025C65.5019 61.8494 65.2551 61.8494 65.1019 62.0025C64.9488 62.1556 64.9488 62.4025 65.1019 62.5557L65.8457 63.2994L65.2722 63.8729C65.2551 63.8901 65.2597 63.9151 65.2472 63.9339C64.8082 63.937 64.3581 63.9417 63.9144 63.9448L63.1534 63.1854L64.5847 61.7541C64.7378 61.6009 64.7378 61.354 64.5847 61.2009C64.4316 61.0478 64.1847 61.0478 64.0315 61.2009L62.6002 62.6369L62.1955 62.2322C62.0424 62.0791 61.7955 62.0791 61.6424 62.2322C61.4892 62.3853 61.4892 62.6322 61.6424 62.7854L62.0471 63.1901L61.2658 63.9714C60.3813 63.9792 59.4907 63.9854 58.5875 63.9932L59.5454 63.0354C59.6985 62.8822 59.6985 62.6353 59.5454 62.4822C59.3922 62.3291 59.1453 62.3291 58.9922 62.4822L57.9218 63.5526L56.8358 62.4666C56.6827 62.3135 56.4358 62.3135 56.2827 62.4666C56.1295 62.6197 56.1295 62.8666 56.2827 63.0197L57.2671 64.0042C56.2499 64.0135 55.2232 64.0214 54.1873 64.0307L55.3576 62.8604H55.3623C55.578 62.8604 55.753 62.6854 55.753 62.4697C55.753 62.2541 55.578 62.0791 55.3623 62.0791H53.4231C53.2075 62.0791 53.0325 62.2541 53.0325 62.4697C53.0325 62.6854 53.2075 62.8604 53.4231 62.8604H54.2513L53.0794 64.0323C53.0778 64.0339 53.0778 64.037 53.0762 64.0401C52.8903 64.0417 52.709 64.0432 52.5231 64.0448C52.0934 64.0479 51.6621 64.0526 51.2308 64.0557L52.27 63.0166C52.4231 62.8635 52.4231 62.6166 52.27 62.4635C52.1168 62.3103 51.8699 62.3103 51.7168 62.4635L50.5605 63.6198L49.1823 62.2416C49.2729 62.0916 49.2776 61.9009 49.1479 61.7712C48.9948 61.6181 48.7479 61.6181 48.5947 61.7712L46.5478 63.8245L45.4649 62.7416L45.6461 62.5603C45.7993 62.4072 45.7993 62.1603 45.6461 62.0072C45.493 61.8541 45.2461 61.8541 45.093 62.0072L44.9117 62.1884L44.7117 61.9884C44.5586 61.8353 44.3117 61.8353 44.1586 61.9884C44.0054 62.1416 44.0054 62.3885 44.1586 62.5416L44.3586 62.7416L42.9788 64.1214C27.953 64.2558 13.9225 64.4151 7.37215 64.5042C5.4658 64.5589 2.14842 64.2886 1.6234 62.2275C1.24994 60.7837 2.53595 58.6711 5.85801 58.2054Z" fill="#6440FB"/>
<path d="M47.2827 24.4458C47.528 23.027 47.0827 21.5612 46.1185 20.6206C45.0372 19.5643 43.3793 19.2705 42.0886 19.9049C40.7276 20.5721 39.4463 23.2738 39.2369 24.7505C39.0213 26.2787 39.601 27.7194 40.7136 28.4241C42.1308 29.3179 43.9887 28.8304 45.2779 27.7616C46.3561 26.8678 47.0686 25.6912 47.2827 24.4458ZM45.7435 24.1801C45.5919 25.0583 45.0732 25.9037 44.2825 26.5568C43.5325 27.1772 42.3543 27.61 41.5495 27.1022C40.8776 26.6772 40.6823 25.6974 40.7854 24.9677C40.8214 24.7083 40.887 24.452 40.9745 24.1989C41.6042 24.4364 42.2261 23.8129 41.9777 23.1816C41.3667 21.6331 43.5606 20.3065 45.0294 21.7394C45.6185 22.316 45.8998 23.2738 45.7435 24.1801Z" fill="#6440FB"/>
<path d="M47.3762 18.7688C47.62 19.1282 48.1075 19.2173 48.4607 18.9766L50.3139 17.7187C50.6717 17.4765 50.7639 16.9906 50.5217 16.6343C50.2795 16.2765 49.7936 16.1827 49.4373 16.4265L47.5841 17.6844C47.2262 17.9266 47.134 18.411 47.3762 18.7688Z" fill="#6440FB"/>
<path d="M48.5886 22.5408C48.2917 22.8549 48.3042 23.3486 48.6183 23.6455L49.9558 24.9128C50.2699 25.2097 50.7637 25.1956 51.0606 24.8815C51.3559 24.5675 51.3434 24.0737 51.0293 23.7768L49.6933 22.5111C49.3808 22.2142 48.8855 22.2283 48.5886 22.5408Z" fill="#6440FB"/>
<path d="M47.3115 29.3133C47.2178 28.8914 46.8053 28.6288 46.3787 28.7226C45.9568 28.8163 45.6927 29.2351 45.788 29.6555L46.1958 31.4743C46.2912 31.8978 46.7115 32.1603 47.1287 32.065C47.5506 31.9696 47.8147 31.5524 47.7194 31.1321L47.3115 29.3133Z" fill="#6440FB"/>
<path d="M40.7379 30.4243L38.2503 31.1571C37.8362 31.279 37.5987 31.7134 37.7221 32.1275C37.8471 32.5525 38.2924 32.7775 38.6925 32.6556L41.1801 31.9228C41.5942 31.8009 41.8317 31.3665 41.7083 30.9524C41.5879 30.5414 41.1535 30.3008 40.7379 30.4243Z" fill="#6440FB"/>
<path d="M36.925 25.6738L36.0172 25.28C35.6234 25.1081 35.1624 25.2894 34.989 25.6847C34.8171 26.08 34.9968 26.541 35.3937 26.7129L36.3047 27.1082C36.6984 27.2785 37.1594 27.0988 37.3313 26.7004C37.5032 26.3051 37.3203 25.8457 36.925 25.6738Z" fill="#6440FB"/>
<path d="M38.1048 20.7907C38.3955 21.111 38.8877 21.136 39.2096 20.8485C39.5299 20.5594 39.5549 20.0657 39.2674 19.7438L37.972 18.3062C37.6798 17.9843 37.1876 17.9593 36.8673 18.2484C36.547 18.5375 36.522 19.0312 36.8095 19.3531L38.1048 20.7907Z" fill="#6440FB"/>
<path d="M41.6574 18.9236C42.0855 19.0111 42.4933 18.733 42.5793 18.3142L42.8449 17.011C42.9309 16.5876 42.6559 16.175 42.234 16.0907C41.8058 16.0016 41.398 16.2782 41.3136 16.7016L41.0495 18.0017C40.962 18.4252 41.2355 18.8377 41.6574 18.9236Z" fill="#6440FB"/>
<path d="M60.8907 36.4339L62.0626 35.262C62.2157 35.1089 62.2157 34.862 62.0626 34.7088C61.9095 34.5557 61.6626 34.5557 61.5094 34.7088L60.3375 35.8808C60.1844 36.0339 60.1844 36.2808 60.3375 36.4339C60.4906 36.5855 60.7375 36.5855 60.8907 36.4339Z" fill="#6440FB"/>
<path d="M31.111 41.5404L30.1891 42.4623C30.0359 42.6154 30.0359 42.8623 30.1891 43.0155C30.3422 43.1686 30.5891 43.1686 30.7422 43.0155L31.6642 42.0935C31.8173 41.9404 31.8173 41.6935 31.6642 41.5404C31.511 41.3873 31.2641 41.3873 31.111 41.5404Z" fill="#6440FB"/>
<path d="M91.792 60.3618C91.6389 60.2087 91.392 60.2087 91.2389 60.3618C91.0857 60.515 91.0857 60.7619 91.2389 60.915L92.2389 61.9151L91.2389 62.9151C91.0857 63.0683 91.0857 63.3151 91.2389 63.4683C91.392 63.6214 91.6389 63.6214 91.792 63.4683L92.7905 62.4682L93.9312 63.6089C94.0843 63.762 94.3312 63.762 94.4844 63.6089C94.6375 63.4558 94.6375 63.2089 94.4844 63.0558L93.3437 61.9151L94.9735 60.2837L95.8954 61.2056L94.8109 62.2901C94.6578 62.4432 94.6578 62.6901 94.8109 62.8432C94.9641 62.9964 95.211 62.9964 95.3641 62.8432L96.4485 61.7588L96.6595 61.9698C96.8126 62.1229 97.0595 62.1229 97.2126 61.9698C97.3658 61.8166 97.3658 61.5697 97.2126 61.4166L97.0017 61.2056L97.5252 60.6822C97.6783 60.529 97.6783 60.2822 97.5252 60.129C97.372 59.9759 97.1251 59.9759 96.972 60.129L96.4485 60.6525L95.5266 59.7306L96.6517 58.6055C96.8048 58.4524 96.8048 58.2055 96.6517 58.0524C96.4985 57.8992 96.2517 57.8992 96.0985 58.0524L94.9735 59.1774L94.8531 59.0571C94.7 58.904 94.4531 58.904 94.3 59.0571C94.1468 59.2102 94.1468 59.4571 94.3 59.6102L94.4203 59.7306L92.7905 61.3603L91.792 60.3618Z" fill="#6440FB"/>
<path d="M15.4806 60.1116H15.4884L18.9527 60.0382C19.0558 60.4101 19.2152 60.7663 19.4542 61.0742C19.5308 61.1726 19.648 61.2257 19.7636 61.2257C19.848 61.2257 19.9308 61.1992 20.0027 61.1445C20.173 61.0117 20.2043 60.7663 20.0715 60.596C19.9386 60.4241 19.8433 60.2272 19.7668 60.021L22.6138 59.9616L22.706 60.6976C22.731 60.8945 22.8997 61.0398 23.0935 61.0398C23.1091 61.0398 23.1263 61.0398 23.1419 61.0367C23.356 61.0101 23.5076 60.8148 23.481 60.6007L23.3998 59.9444L27.114 59.8663C27.2937 60.3601 27.6094 60.8054 28.0578 61.0804C28.1219 61.1195 28.1922 61.1382 28.2625 61.1382C28.3938 61.1382 28.5219 61.0726 28.5954 60.9523C28.7079 60.7679 28.6516 60.5273 28.4672 60.4148C28.2454 60.2788 28.0828 60.0741 27.9563 59.8475L31.5018 59.7725L31.6377 60.4616C31.6737 60.6476 31.8377 60.7757 32.0206 60.7757C32.0456 60.7757 32.0721 60.7742 32.0971 60.7679C32.3081 60.7257 32.4456 60.521 32.4034 60.3085L32.294 59.7553L33.5144 59.7303L33.5206 59.8085C33.5363 60.0147 33.7082 60.171 33.9097 60.171H33.9394C34.1551 60.1554 34.316 59.9679 34.3004 59.7522L34.2973 59.7147L36.2724 59.6725C36.488 59.6678 36.6599 59.4897 36.6552 59.2741C36.6505 59.0584 36.4942 58.8569 36.2567 58.8912L34.241 58.9334L34.2254 58.7162C34.2097 58.5006 33.9988 58.335 33.8066 58.3553C33.591 58.3709 33.43 58.5584 33.4456 58.774L33.4581 58.9506L32.1409 58.9787L32.0956 58.7506C32.0549 58.5397 31.8487 58.399 31.6362 58.4443C31.4252 58.4865 31.2877 58.6912 31.3299 58.9037L31.3486 58.9959L27.7422 59.0725C27.7406 58.9334 27.7469 58.7944 27.7844 58.6615C27.8219 58.5256 27.7844 58.3787 27.6844 58.2787C27.5859 58.1803 27.4391 58.1381 27.3016 58.1787L27.0906 58.2381C26.8828 58.2959 26.7625 58.5115 26.8203 58.7194C26.8437 58.8022 26.8906 58.8709 26.9531 58.9194C26.95 58.9756 26.9656 59.0319 26.9672 59.0881L23.306 59.1647L23.2373 58.6162C23.2107 58.4021 23.0123 58.2474 22.8013 58.2771C22.5872 58.3037 22.4357 58.499 22.4622 58.7131L22.52 59.1819L19.6168 59.2428C19.6152 59.0772 19.6324 58.9116 19.6699 58.7506C19.7183 58.5412 19.5886 58.3303 19.3777 58.2818C19.1652 58.2334 18.9573 58.3646 18.9089 58.574C18.8558 58.799 18.8339 59.0303 18.8355 59.26L15.4728 59.3303C15.2571 59.335 15.0852 59.5131 15.0899 59.7288C15.0946 59.9413 15.2681 60.1116 15.4806 60.1116Z" fill="#6440FB"/>
<path d="M25.2982 21.322H19.3213C19.1057 21.322 18.9307 21.497 18.9307 21.7127C18.9307 21.9283 19.1057 22.1033 19.3213 22.1033H25.2982C25.5138 22.1033 25.6889 21.9283 25.6889 21.7127C25.6889 21.497 25.5154 21.322 25.2982 21.322Z" fill="#6440FB"/>
<path d="M29.6669 18.7375H23.9932C23.7775 18.7375 23.6025 18.9126 23.6025 19.1282C23.6025 19.3438 23.7775 19.5188 23.9932 19.5188H29.6669C29.8826 19.5188 30.0576 19.3438 30.0576 19.1282C30.0576 18.9126 29.8826 18.7375 29.6669 18.7375Z" fill="#6440FB"/>
<path d="M69.1192 19.1204H74.9148C75.1304 19.1204 75.3054 18.9454 75.3054 18.7298C75.3054 18.5141 75.1304 18.3391 74.9148 18.3391H69.1192C68.9035 18.3391 68.7285 18.5141 68.7285 18.7298C68.7285 18.9454 68.9035 19.1204 69.1192 19.1204Z" fill="#6440FB"/>
<path d="M72.1084 23.2034C72.1084 23.419 72.2834 23.594 72.499 23.594H77.2806C77.4962 23.594 77.6712 23.419 77.6712 23.2034C77.6712 22.9878 77.4962 22.8127 77.2806 22.8127H72.499C72.2834 22.8127 72.1084 22.9878 72.1084 23.2034Z" fill="#6440FB"/>
</svg>
