<svg width="100" height="87" viewBox="0 0 100 87" fill="none" xmlns="http://www.w3.org/2000/svg">
<path d="M75.4708 66.8687L74.7207 66.1342C74.5644 65.978 74.5644 65.7279 74.7207 65.5717C74.877 65.4154 75.127 65.4154 75.2833 65.5717L76.0178 66.3218L76.4553 65.8998C76.596 65.7436 76.846 65.7436 77.0023 65.8998C77.1586 66.0405 77.1586 66.2905 77.0023 66.4468L76.5803 66.8687L77.643 67.947C77.7993 68.1033 77.7993 68.3377 77.643 68.4939C77.4867 68.6502 77.2367 68.6502 77.096 68.4939L76.0178 67.4313L75.924 67.5094C75.7834 67.6657 75.5333 67.6657 75.3771 67.5094C75.2208 67.3688 75.2208 67.1188 75.3771 66.9625L75.4708 66.8687Z" fill="#6440FB"/>
<path d="M38.6064 7.65754C39.6065 6.39174 41.8568 5.67289 43.7164 6.00106C46.1386 6.42299 47.5763 8.75144 45.2323 11.7831C42.4819 15.3773 39.3096 14.6898 38.1532 12.5645C37.3406 11.0643 37.5281 9.00147 38.6064 7.65754ZM39.3877 11.4237C39.4346 11.5487 39.4502 11.6893 39.5284 11.7987C40.2159 13.0645 42.0756 13.3302 43.9977 10.8298C45.4823 8.89208 44.9041 7.78255 43.4508 7.53252C43.2476 7.50127 43.0445 7.48564 42.8257 7.48564C42.5913 7.48564 42.3569 7.51689 42.1068 7.54815C42.1537 7.62628 42.1693 7.70442 42.1537 7.79818L43.2789 8.92334C43.4351 9.07961 43.4351 9.31401 43.2789 9.47029C43.2007 9.54842 43.107 9.57968 42.9976 9.57968C42.9038 9.57968 42.8101 9.54842 42.7319 9.47029L41.4505 8.20449L40.9504 8.70456C40.8723 8.78269 40.7785 8.81395 40.6691 8.81395C40.5754 8.81395 40.4816 8.78269 40.4035 8.70456C40.2472 8.54828 40.2472 8.29825 40.3878 8.15761C40.1691 8.29825 39.9659 8.45452 39.8253 8.62642C39.7628 8.72018 39.7159 8.82957 39.6534 8.92334L40.2159 9.48591L40.4347 9.28276C40.5754 9.12649 40.8254 9.12649 40.9817 9.28276C41.1379 9.43903 41.1379 9.67344 40.9817 9.82971L40.7785 10.0485L41.263 10.5329C41.4192 10.6892 41.4192 10.9236 41.263 11.0799C41.1067 11.2362 40.8567 11.2362 40.7004 11.0799L40.2159 10.5954L39.3877 11.4237ZM39.2314 10.4861L39.669 10.0485L39.3252 9.70469C39.2627 9.97036 39.2314 10.2204 39.2314 10.4861Z" fill="#6440FB"/>
<path d="M26.7452 8.45447L27.2922 9.00142L28.136 8.14192L27.8079 7.81375C27.3703 7.97003 27.0265 8.20443 26.7452 8.45447ZM26.2452 11.8143C27.8704 14.7678 32.121 10.2203 31.5428 8.5326C31.5428 8.51698 31.5428 8.51698 31.5428 8.51698C31.3552 8.00128 30.902 7.65748 30.1676 7.53247C29.9644 7.50121 29.7613 7.48558 29.5581 7.48558C29.2612 7.48558 28.9643 7.51684 28.6674 7.56372L28.7767 7.67311C28.8705 7.67311 28.9799 7.70436 29.058 7.7825C29.1362 7.86063 29.1674 7.9544 29.1674 8.06379L30.0894 8.98579C30.4489 9.34521 29.9019 9.89216 29.5269 9.53274L28.6986 8.7045L27.8391 9.54837L28.2611 9.9703C28.4173 10.1266 28.4173 10.361 28.2611 10.5172C28.1829 10.5954 28.0892 10.6266 27.9798 10.6266C27.886 10.6266 27.7766 10.5954 27.7141 10.5172L27.2922 10.1109L26.0733 11.3142C26.1201 11.4861 26.167 11.658 26.2452 11.8143ZM25.9482 10.3297L26.7296 9.54837L26.292 9.09518C26.0889 9.48586 25.9639 9.89216 25.9482 10.3297ZM24.87 12.5644C24.0574 11.0642 24.2449 9.00142 25.3231 7.65748C26.3389 6.40731 28.5736 5.67284 30.4332 6.00101C31.7303 6.21979 32.6523 6.93863 33.0117 8.01691C34.215 11.533 27.4484 17.2682 24.87 12.5644Z" fill="#6440FB"/>
<path d="M14.0568 8.03253L14.4163 8.39196L15.182 7.62623C14.7757 7.71999 14.4006 7.86063 14.0568 8.03253ZM15.1664 10.2516C15.1351 10.486 14.2287 11.3299 14.0568 11.4861C14.0412 11.533 14.0412 11.5799 14.0099 11.6111C13.9787 11.658 13.9318 11.6424 13.8849 11.6737L13.2911 12.2519C14.1193 13.0488 15.6664 13.1114 17.4323 10.8298C18.1668 9.87654 18.4324 9.09518 18.2449 8.5326C18.2449 8.51698 18.2449 8.51698 18.2449 8.51698C18.0574 8.00128 17.6042 7.65748 16.8697 7.53247C16.6978 7.50121 16.5103 7.50121 16.3228 7.48558L17.026 8.18881C17.1666 8.32945 17.1666 8.57948 17.026 8.73576C16.8697 8.89203 16.6197 8.89203 16.4634 8.73576L15.8227 8.07942L14.9632 8.93891L15.7602 9.72026C16.1196 10.0953 15.5883 10.6579 15.1664 10.2516ZM12.0253 7.65748C13.0411 6.40731 15.2757 5.67284 17.1354 6.00101C18.4324 6.21979 19.3544 6.93863 19.7139 8.01691C20.0889 9.14206 19.7607 10.361 18.6668 11.783C15.9946 15.2523 12.791 14.7991 11.5721 12.5644C10.7595 11.0642 10.947 9.00142 12.0253 7.65748ZM12.666 10.8298C12.6973 11.0955 12.7598 11.3455 12.8692 11.5799L13.1348 11.2986L12.666 10.8298ZM13.2442 8.62637C12.9786 8.95454 12.8379 9.37647 12.7285 9.7984L13.6974 10.7517L14.5256 9.92342C14.5882 9.86091 14.6663 9.84528 14.7444 9.82966L13.4161 8.48572C13.3692 8.5326 13.2911 8.57948 13.2442 8.62637Z" fill="#6440FB"/>
<path d="M15.9939 39.8495L17.2909 41.1309C17.8848 41.0684 18.463 40.8965 19.0099 40.6465L17.1034 38.74L15.9939 39.8495ZM16.1658 41.1153L15.4469 40.3964L15.0094 40.834C15.2281 40.9121 15.4626 41.0059 15.697 41.0528C15.8532 41.0997 16.0095 41.0997 16.1658 41.1153ZM70.0638 72.7134C70.6264 73.1666 71.2671 73.5104 71.9547 73.6666C72.7048 73.8385 73.4705 73.7916 74.2206 73.6198L71.7359 71.135L70.2201 72.6509C70.1732 72.6977 70.1107 72.6977 70.0638 72.7134ZM28.6519 70.7912L29.6051 71.7445L30.8397 70.4943L29.8864 69.5411L28.6519 70.7912ZM26.4641 72.9634L26.0109 73.4166C26.2609 73.5104 26.4953 73.6041 26.7454 73.6666C27.8393 73.9167 28.9957 73.7448 30.0271 73.2603L29.6051 72.854L29.4801 72.979C29.402 73.0572 29.2926 73.0884 29.1988 73.0884C28.855 73.0884 28.6675 72.6665 28.9175 72.4321L29.0582 72.2914L28.0893 71.3382L27.0266 72.4165L27.683 73.0728C27.8393 73.2291 27.8393 73.4791 27.683 73.6354C27.6048 73.7135 27.4955 73.7448 27.4017 73.7448C27.3079 73.7448 27.1985 73.7135 27.1204 73.6354L26.4641 72.9634ZM19.7131 40.2402C21.0414 39.365 21.8384 38.1305 21.9478 36.5678C21.729 36.2865 21.7134 35.9427 21.9478 35.6302C21.8697 34.8957 21.6196 34.1768 21.229 33.5049C21.229 33.5049 21.229 33.5049 21.2133 33.5049L20.7602 33.9581L21.354 34.5675C21.604 34.8019 21.4321 35.2239 21.0883 35.2239C20.8383 35.2239 20.4007 34.7082 20.2132 34.5206L19.7131 35.0051C19.5569 35.1613 19.4475 35.1301 19.3068 35.0676L21.4321 37.1772C21.6665 37.4273 21.4946 37.8492 21.1508 37.8492C21.0571 37.8492 20.9789 37.8023 20.9008 37.7398L19.635 39.0212C19.4787 39.1619 19.2287 39.1619 19.0881 39.0212C18.9318 38.865 18.9318 38.6149 19.0881 38.4587L20.3382 37.2085L18.3223 35.177C18.166 35.0207 18.166 34.7707 18.3223 34.63C18.463 34.4738 18.713 34.4738 18.8693 34.63L19.1193 34.8644C19.0568 34.7238 19.0568 34.5675 19.1662 34.4581L19.6663 33.9581L19.2599 33.5674C19.1037 33.4111 19.1037 33.1611 19.2599 33.0048C19.4162 32.8485 19.6506 32.8485 19.8069 33.0048L20.2132 33.4111L20.6664 32.9579C20.7133 32.9267 20.7602 32.9267 20.807 32.8954C19.6663 31.4577 17.9785 30.6764 16.1501 30.9108C11.6652 31.5358 9.7899 37.7242 14.2905 40.4746C14.3061 40.4589 14.3061 40.4277 14.3061 40.4277L14.8843 39.8495L13.8842 38.8337C13.7279 38.6931 13.7279 38.443 13.8842 38.2868C14.0405 38.1305 14.2905 38.1305 14.4468 38.2868L15.4469 39.2869L16.5565 38.1774L16.0251 37.6461C15.8689 37.4898 15.8689 37.2398 16.0251 37.0991C16.1814 36.9428 16.4158 36.9428 16.5721 37.0991L17.1034 37.6304L18.5411 36.1927C18.6974 36.0365 18.9318 36.0365 19.0881 36.1927C19.2443 36.349 19.2443 36.599 19.0881 36.7553L17.666 38.1774L19.7131 40.2402ZM27.1985 63.5246C24.8545 63.8372 22.8542 66.025 22.7448 68.4003C22.6667 70.2443 23.7293 72.057 25.292 73.0415L25.9171 72.4165L24.8388 71.3382C24.6982 71.1975 24.6982 70.9475 24.8388 70.7912C24.9951 70.635 25.2451 70.635 25.4014 70.7912L26.4641 71.8539L27.5423 70.7912L26.7922 70.0411C26.6516 69.8849 26.6516 69.6348 26.7922 69.4942C26.9485 69.3379 27.1985 69.3379 27.3548 69.4942L28.0893 70.2287L29.3395 68.9941L28.5894 68.244C28.4331 68.1034 28.4331 67.8533 28.5894 67.6971C28.7456 67.5408 28.9957 67.5408 29.1519 67.6971L31.4022 69.9474L31.9492 69.3848C32.1055 69.2442 32.3555 69.2442 32.5118 69.3848C32.668 69.5411 32.668 69.7911 32.5118 69.9474L31.7929 70.6662C31.7773 70.7131 31.7773 70.7756 31.7304 70.8225C31.6679 70.8694 31.621 70.8694 31.5585 70.9006L30.1521 72.2914L30.574 72.7134C30.6365 72.7759 30.6521 72.8384 30.6678 72.9165C31.5273 72.3696 32.2461 71.6195 32.6524 70.6818C33.3088 69.1504 33.1212 67.4158 32.1836 65.9468L31.3397 66.7907L32.1211 67.572C32.2774 67.7283 32.2774 67.9783 32.1211 68.1346C31.9648 68.2753 31.7148 68.2753 31.5741 68.1346L30.7928 67.3533L30.5271 67.6033C30.3708 67.7596 30.1364 67.7596 29.9802 67.6033C29.8239 67.447 29.8239 67.197 29.9802 67.0407L30.2302 66.7907L29.4957 66.0562C29.3395 65.8999 29.3395 65.6499 29.4957 65.4936C29.6364 65.3374 29.8864 65.3374 30.0427 65.4936L30.7928 66.2437L31.7148 65.3217C30.5427 63.9622 28.8863 63.2902 27.1985 63.5246ZM89.7227 35.5833C89.6759 35.177 89.5665 34.7707 89.4258 34.3644C89.4102 34.3956 89.4102 34.4269 89.3946 34.4425L88.9883 34.8488L89.7227 35.5833ZM89.7227 36.6928L88.4257 35.3958L87.66 36.1771L88.16 36.6772C88.3007 36.6147 88.4726 36.6147 88.582 36.7241C88.707 36.8491 88.707 37.0053 88.6445 37.146L89.4102 37.9274C89.5821 37.521 89.6759 37.1147 89.7227 36.6928ZM88.1288 37.7398L86.8942 38.9744L87.8787 39.9589C88.3476 39.5838 88.7382 39.1463 89.0508 38.6618L88.1288 37.7398ZM85.0971 40.4277L85.2534 40.584C85.394 40.7246 85.394 40.959 85.2534 41.1153C85.9566 41.0059 86.6129 40.7559 87.2224 40.3964L86.3473 39.5213L85.5034 40.3652C85.4253 40.4433 85.3315 40.4746 85.2221 40.4746C85.1752 40.4746 85.144 40.4433 85.0971 40.4277ZM84.7064 41.1309L82.503 38.9431L81.4404 40.0058C82.0342 40.5058 82.7218 40.8809 83.4719 41.0528C83.8626 41.1465 84.3001 41.1622 84.7221 41.1465C84.7221 41.1465 84.7064 41.1465 84.7064 41.1309ZM83.0656 38.3805L84.894 40.2245C84.8315 40.0839 84.8471 39.9276 84.9565 39.8182L85.8003 38.9744L84.2376 37.4117C84.1907 37.3804 84.1907 37.3179 84.1751 37.271L83.0656 38.3805ZM80.8778 39.4744L81.9561 38.3805L81.6435 38.0836C81.4872 37.9273 81.4872 37.6773 81.6435 37.521C81.7998 37.3648 82.0498 37.3648 82.1905 37.521L82.503 37.8336L84.7533 35.5833C84.9096 35.427 85.1596 35.427 85.3159 35.5833C85.4722 35.7396 85.4722 35.974 85.3159 36.1302L84.6439 36.8022C84.6908 36.8178 84.7533 36.8178 84.8002 36.8647L86.3473 38.4118L87.5818 37.1929L87.113 36.7241L87.0349 36.8022C86.8786 36.9585 86.6286 36.9585 86.4723 36.8022C86.3316 36.6616 86.3316 36.4115 86.4723 36.2552L86.5504 36.1771L86.5348 36.1459C86.3785 35.9896 86.3785 35.7396 86.5348 35.5833C86.6755 35.4426 86.9255 35.4426 87.0818 35.5833L87.113 35.6145L87.8787 34.8488L87.5037 34.4581C87.3474 34.3175 87.3474 34.0674 87.5037 33.9112C87.6443 33.7549 87.8944 33.7549 88.0506 33.9112L88.4257 34.3019L88.8476 33.8799C88.9258 33.8018 89.0508 33.7705 89.1602 33.7862C89.0195 33.5049 88.8476 33.2392 88.6601 32.9735C85.519 28.848 79.6745 31.3327 79.4713 35.8021C79.4088 37.1304 79.9714 38.4587 80.8778 39.4744ZM74.3769 62.0557C75.9396 62.3838 77.346 63.2746 78.3931 64.6341C79.9089 66.6188 80.2371 69.1191 79.2994 71.3069C78.0336 74.2136 74.6425 75.8857 71.6109 75.1825C68.548 74.4792 66.2664 71.4632 66.407 68.3221C66.4696 66.9626 66.9852 65.6499 67.8135 64.5716C67.9385 64.431 68.0635 64.2747 68.1885 64.1341C69.2356 62.9933 70.6576 62.1807 72.2047 61.9775C72.3922 61.9463 72.5954 61.9463 72.7829 61.9306C72.0641 57.4769 71.2671 52.8982 69.47 48.7257C67.3916 43.8657 64.1255 40.2245 60.2812 38.4743C57.4058 37.1772 53.8741 36.7709 50.0923 37.3179C44.1384 38.1618 38.4345 41.2247 34.4495 45.7253C30.5271 50.1321 28.183 56.0236 27.9643 61.915C29.9645 61.9463 31.8711 62.9152 33.1837 64.6341C33.4181 64.9467 33.6213 65.2749 33.8088 65.603C34.7621 67.4001 34.8715 69.4629 34.0745 71.3069C32.8243 74.2292 29.4176 75.8857 26.3859 75.1825C23.3386 74.4792 21.0414 71.4632 21.1821 68.3378C21.3227 65.3999 23.5574 62.8058 26.3859 62.1182C26.5578 55.7736 29.0582 49.4289 33.2775 44.6939C36.4654 41.1153 40.6691 38.3805 45.2323 36.8647H23.5105C23.1042 40.4746 19.8694 42.7405 16.7596 42.7405C8.50847 42.7718 7.83651 30.4732 15.947 29.3637C19.7913 28.8324 23.0417 31.8484 23.4949 35.302H77.9711C78.6275 29.5199 86.0504 26.9571 89.8946 32.0359C93.9108 37.3179 88.8789 43.9282 83.1125 42.5842C80.4246 41.9592 78.3462 39.5682 77.9711 36.8647H60.4531C60.6094 36.9272 60.7813 36.9897 60.9375 37.0679C65.1412 38.9744 68.673 42.8968 70.9077 48.1006C72.8298 52.57 73.6424 57.3831 74.3769 62.0557ZM73.4861 67.447L76.1428 70.1036L76.9554 69.291C77.3304 68.9316 77.8774 69.4786 77.5023 69.8536L76.7053 70.6662L76.9241 70.885C77.0804 71.0413 77.0804 71.2913 76.9241 71.4476C76.7678 71.6038 76.5178 71.6038 76.3772 71.4476L76.1428 71.2132L75.0332 72.3227C74.877 72.479 74.6269 72.479 74.4863 72.3227C74.33 72.1664 74.33 71.932 74.4863 71.7757L75.5958 70.6662L73.8924 68.9785L72.2985 70.5881L75.0332 73.3228V73.3385C76.2678 72.8384 77.3304 71.9008 77.8617 70.6818C78.5806 69.0254 78.3149 67.1189 77.1429 65.5718C75.9865 64.0403 74.205 63.2746 72.4235 63.5246C70.0638 63.8372 68.0635 66.025 67.9541 68.4003C67.8916 69.8536 68.548 71.2913 69.5793 72.3071C69.595 72.2446 69.6106 72.1664 69.6731 72.1039L71.1889 70.5881L70.5639 69.963C70.4076 69.8067 70.4076 69.5567 70.5639 69.416C70.7201 69.2598 70.9702 69.2598 71.1264 69.416L71.7359 70.0255L73.3455 68.4315L72.9236 68.0096C72.7829 67.8533 72.7829 67.6033 72.9236 67.447C73.0798 67.3064 73.3299 67.3064 73.4861 67.447Z" fill="#6440FB"/>
<path d="M72.9239 83.3085L72.0176 84.2149L73.8928 84.2774L72.9239 83.3085ZM66.6106 84.0274L66.2355 83.6523L65.8917 84.0117L66.6106 84.0274ZM49.0613 69.1191L50.499 70.5568C50.5302 70.588 50.5302 70.6193 50.5459 70.6505C51.0772 70.3849 51.5616 69.9473 51.921 69.4004C51.7804 69.5254 51.5616 69.5254 51.421 69.3847L50.077 68.0408L49.0613 69.1191ZM49.7645 70.9162L48.53 69.6816L47.983 70.2755C47.9518 70.3224 47.8893 70.3223 47.8424 70.338C48.3581 70.7755 49.03 71.0099 49.702 70.9162H49.7645ZM47.4986 68.1033C47.6548 67.947 47.9049 67.947 48.0611 68.1033L48.5143 68.5721L49.7801 67.2125C49.8426 67.1344 49.9677 67.1032 50.0614 67.0875C50.1708 67.0875 50.2646 67.1344 50.3427 67.2125L51.9679 68.8378C52.0773 68.9628 52.0773 69.1191 52.0148 69.2597C52.6712 68.1971 52.8587 66.7437 52.1398 65.853C50.8897 64.3372 48.0768 65.4779 47.186 67.2907C46.811 68.0252 46.811 68.7596 47.1548 69.5097C47.2173 69.6348 47.2954 69.7285 47.3736 69.8379C47.3892 69.8067 47.3892 69.7754 47.4048 69.7441L47.983 69.1347L47.4986 68.6659C47.3579 68.5096 47.3579 68.2596 47.4986 68.1033ZM49.1394 52.4762C46.4672 56.8518 41.2946 61.9462 37.2159 63.3526C38.9349 66.1499 43.9512 74.8386 45.1232 83.2616L54.2026 83.4492C54.7964 79.2142 56.6873 70.3224 62.61 63.2901C58.4688 61.7587 53.2337 56.5392 50.6552 52.148V63.5871C51.7335 63.6339 52.718 64.0871 53.3587 64.8685C54.4683 66.2437 54.2964 68.2439 53.64 69.6035C52.8274 71.2756 51.2022 72.5102 49.4207 72.5102C47.858 72.5102 46.389 71.5882 45.7327 70.1661C45.1858 68.994 45.2014 67.7595 45.7796 66.6031C46.4047 65.3217 47.6861 64.3059 49.0925 63.8527L49.1394 52.4762ZM98.318 63.5871L98.3024 62.5088L97.7711 63.0401L98.318 63.5871ZM97.9742 45.9284L97.0679 46.8348L98.0211 47.788L97.9742 45.9284ZM97.0679 52.6481L98.0211 53.6169C98.0993 53.6794 98.1305 53.7732 98.1305 53.867L98.0836 51.6323L97.0679 52.6481ZM95.6302 75.0261L92.661 77.9953L94.4894 79.8237L96.2396 78.0734C96.3959 77.9171 96.6459 77.9171 96.7866 78.0734C96.9428 78.2297 96.9428 78.4641 96.7866 78.6204L95.0363 80.3706L95.6458 80.9801C95.7083 81.0426 95.7083 81.1051 95.7239 81.1676C96.7397 80.0424 97.396 78.6829 97.8023 77.1983L95.6302 75.0261ZM88.848 75.2918L85.6288 78.5266L88.3323 81.2301L91.5671 77.9953L88.848 75.2918ZM97.3335 11.7674C97.1929 4.56333 95.7239 1.51604 85.5975 1.56292L18.0883 1.90672C5.13338 1.98486 3.13311 5.9229 2.67992 14.971C2.64866 15.6586 2.60178 16.4712 2.57053 17.3932H97.4429L97.3335 11.7674ZM88.3323 82.3396L86.0664 84.5899C89.5512 84.4962 92.9736 83.8555 95.302 81.6208C95.2239 81.6051 95.1614 81.5895 95.0989 81.5426L94.4894 80.9332L92.2078 83.1991C92.0516 83.3554 91.8171 83.3554 91.6609 83.1991C91.5046 83.0585 91.5046 82.8084 91.6609 82.6522L93.9424 80.3706L92.1141 78.5579L88.8792 81.777L90.3169 83.2304C90.4732 83.371 90.4732 83.6211 90.3169 83.7773C90.1763 83.9336 89.9263 83.9336 89.77 83.7773L88.3323 82.3396ZM82.2533 80.7925L84.5193 78.5266L83.566 77.5733V77.6046L81.3157 79.8549L82.2533 80.7925ZM82.8159 81.3395L85.3631 83.9023C85.4257 83.9492 85.4413 84.0274 85.4569 84.1055L87.7697 81.777L85.0662 79.0736L82.8159 81.3395ZM79.6749 84.4649L82.519 84.5743C83.4097 84.6056 84.3317 84.6056 85.2381 84.6056C85.2381 84.5743 85.2069 84.5431 85.2069 84.5118C85.0662 84.5587 84.9725 84.6056 84.8006 84.4493L82.2533 81.9021L79.6749 84.4649ZM81.7064 81.3395L80.7531 80.4019L78.4872 82.6678L79.4405 83.6054L81.7064 81.3395ZM77.9402 83.2147L76.7838 84.3712L78.6278 84.4337V84.418L78.8935 84.1524L77.9402 83.2147ZM82.4721 86.137L70.4392 85.7151C70.3767 85.7463 70.3298 85.7932 70.2829 85.7932C70.2204 85.7932 70.1579 85.7463 70.111 85.7151L15.6348 83.8711C3.21124 83.4492 0.710898 79.5111 0.148321 70.2755C-0.383002 61.5868 0.648389 24.5973 1.1172 14.9085C1.60165 5.01652 4.30514 0.422142 18.0727 0.344006L85.5819 0.00020825C96.4428 -0.031046 98.74 3.45381 98.8962 11.7362L99.9901 69.541C100.24 82.5897 95.7708 86.5746 82.4721 86.137ZM72.9239 82.2146L75.1899 79.9487C75.3461 79.7924 75.5806 79.7924 75.7368 79.9487C75.8306 80.0424 75.8462 80.1675 75.815 80.2925C75.9556 80.2612 76.0962 80.2768 76.19 80.3706L77.9402 82.1208L80.2062 79.8549L80.0343 79.683C79.8936 79.5424 79.8936 79.2923 80.0343 79.1361C80.1906 78.9798 80.4406 78.9798 80.5969 79.1361L80.7531 79.308L83.0034 77.0577C83.0347 77.0264 83.0816 77.0264 83.1128 77.0108C83.0972 76.8857 83.1128 76.7607 83.2066 76.667C83.3629 76.5263 83.6129 76.5263 83.7692 76.667L85.0662 77.9797L88.301 74.7448C88.176 74.5886 88.1604 74.3542 88.3167 74.2135C88.4573 74.0572 88.6917 74.0729 88.848 74.1979L89.098 73.9635C89.2543 73.8072 89.5043 73.8072 89.645 73.9635C89.8012 74.1041 89.8012 74.3542 89.645 74.5104L89.4106 74.7448L92.1141 77.4483L95.0832 74.4792L94.0518 73.4634L93.4424 74.0572C93.3017 74.2135 93.0517 74.2135 92.8954 74.0572C92.7392 73.901 92.7392 73.6509 92.8954 73.5103L93.5049 72.9008L92.536 71.9476C92.3954 71.7913 92.3954 71.5413 92.536 71.385C92.6923 71.2444 92.9423 71.2444 93.0986 71.385L94.0518 72.3539L97.1304 69.2753C97.271 69.1191 97.5211 69.1191 97.6773 69.2753C97.8336 69.4316 97.8336 69.6816 97.6773 69.8223L94.5988 72.9008L98.0211 76.3075C98.4431 74.2604 98.4743 72.0101 98.4431 69.7754C98.3493 69.7598 98.2712 69.7441 98.193 69.6816L97.7398 69.2128L95.3645 66.8375C95.2082 66.6812 95.2082 66.4468 95.3645 66.2906C95.5208 66.1343 95.7552 66.1343 95.9115 66.2906L98.4274 68.7909L98.3337 64.6184C98.2868 64.6028 98.2243 64.6028 98.1774 64.5559L97.2241 63.6027L95.9115 64.8997C95.7552 65.056 95.5208 65.056 95.3645 64.8997C95.2082 64.7591 95.2082 64.5091 95.3645 64.3528L96.6772 63.0401L95.5364 61.9149C95.3801 61.7587 95.3801 61.5086 95.5364 61.3524C95.6927 61.2117 95.9427 61.2117 96.0834 61.3524L97.2241 62.4932L98.2868 61.4305L98.2243 58.2582L98.193 58.2269L97.3179 59.0864C97.1616 59.2427 96.9116 59.2427 96.771 59.0864C96.6147 58.9458 96.6147 58.6958 96.771 58.5395L97.6304 57.6644L96.5991 56.633C96.4428 56.4767 96.4428 56.2267 96.5991 56.0704C96.7397 55.9298 96.9897 55.9298 97.146 56.0704L98.193 57.1174L98.1305 53.9139C98.1305 54.0076 98.0993 54.1014 98.0368 54.1639C97.8805 54.3202 97.6304 54.3202 97.4742 54.1639L96.5209 53.2106L96.4428 53.2888C96.2865 53.4294 96.0365 53.4294 95.8802 53.2888C95.7396 53.1325 95.7396 52.8825 95.8802 52.7262L95.9583 52.6481L95.177 51.8667C95.0363 51.7261 95.0363 51.476 95.177 51.3197C95.3333 51.1635 95.5833 51.1635 95.7396 51.3197L96.5209 52.1011L98.068 50.5384L98.0368 48.8507C97.9899 48.8194 97.943 48.8194 97.9117 48.7882L96.474 47.3505C96.3334 47.413 96.224 47.4598 96.0677 47.2879C95.9115 47.1473 95.9115 46.8973 96.0677 46.741L97.8492 44.9439C97.8649 44.9282 97.8961 44.9282 97.9117 44.9282L96.5834 43.5999C96.4428 43.4437 96.4428 43.1936 96.5834 43.0374C96.7397 42.8967 96.9897 42.8967 97.146 43.0374L97.943 43.85L97.4742 18.9716H2.50802C2.00795 32.239 1.22659 62.4619 1.71104 70.1817C2.2111 78.4797 3.9926 81.9021 15.6817 82.3084L43.5293 83.2616C42.451 76.0575 38.4192 68.5096 36.4346 65.1341C35.7782 64.009 35.3407 63.3526 35.325 63.3214C35.0281 62.8526 35.2938 62.2119 35.8407 62.1181C40.3882 61.2899 47.8424 53.2888 49.155 48.8038V48.46C49.2332 47.5536 50.5771 47.4755 50.6865 48.4287C50.7021 48.4756 50.7334 48.5069 50.749 48.5537C51.8742 52.9919 59.5471 61.2742 64.1571 62.1181C64.7509 62.2275 65.001 62.962 64.5947 63.4152C58.2969 70.2598 56.3435 79.4174 55.7497 83.6679L64.8134 83.9805L65.6729 83.121L65.0791 82.5115C64.9228 82.3553 64.9228 82.1052 65.0791 81.9489C65.2354 81.8083 65.4698 81.8083 65.6261 81.9489L66.2355 82.5584L70.1579 78.636C70.3142 78.4797 70.5642 78.4797 70.7205 78.636C70.8611 78.7766 70.8611 79.0267 70.7205 79.1829L66.7825 83.121L67.6732 83.9961C67.6888 84.0274 67.6888 84.0586 67.7045 84.0742L70.9393 84.1836L70.9549 84.168L69.4703 82.6834C69.3297 82.5272 69.3297 82.2927 69.4703 82.1365C69.6266 81.9802 69.8766 81.9802 70.0329 82.1365L71.5175 83.621L72.377 82.7616L71.7675 82.1521C71.6113 82.0115 71.6113 81.7614 71.7675 81.6052C71.9238 81.4489 72.1582 81.4489 72.3145 81.6052L72.9239 82.2146ZM74.9086 84.3086L75.7212 84.3399L77.3933 82.6678L75.6431 80.9176C75.5805 80.855 75.5493 80.7613 75.5493 80.6832L73.4709 82.7459L74.8148 84.0899C74.8773 84.1524 74.893 84.2305 74.9086 84.3086Z" fill="#6440FB"/>
</svg>
