<svg width="100" height="97" viewBox="0 0 100 97" fill="none" xmlns="http://www.w3.org/2000/svg">
<path d="M95.7049 65.2436L93.3874 62.9261L92.7121 63.6014C92.5586 63.7549 92.3284 63.7549 92.1749 63.6014C92.0214 63.4479 92.0214 63.2023 92.1749 63.0642L92.8502 62.3889L91.6991 61.2532C91.5456 61.0997 91.5456 60.8541 91.6991 60.7006C91.8526 60.5472 92.0981 60.5472 92.2516 60.7006L93.3874 61.8364L94.9682 60.2709L93.5869 58.8896C93.4334 58.7361 93.4334 58.4905 93.5869 58.3524C93.7404 58.1989 93.9859 58.1989 94.1241 58.3524L97.0401 61.2532C97.1936 61.4066 97.1936 61.6522 97.0401 61.8057C96.8867 61.9438 96.6411 61.9438 96.503 61.8057L95.5054 60.8081L93.9245 62.3889L96.2421 64.7064C96.3955 64.8599 96.3955 65.1055 96.2421 65.2436C96.1039 65.3971 95.8584 65.3971 95.7049 65.2436Z" fill="#6440FB"/>
<path d="M89.1518 46.6881C89.5355 46.6574 89.9192 47.0104 89.9499 47.4248C89.9653 47.8546 89.6276 48.2076 89.1979 48.2229L68.463 48.9596H68.4476C68.0332 48.9596 67.6956 48.6373 67.6802 48.2229C67.6649 47.8085 67.9872 47.4402 68.4169 47.4248L89.1518 46.6881Z" fill="#6440FB"/>
<path d="M73.0049 37.8017L72.3296 37.111L71.6389 37.8017C71.9766 37.8017 72.3296 37.7863 72.6673 37.7863C72.7747 37.7863 72.8975 37.8017 73.0049 37.8017ZM89.0588 34.8702C89.0588 34.64 89.0588 34.3944 89.0588 34.1489L88.6904 34.5172L89.0588 34.8702ZM86.7105 37.6942C86.7719 37.771 86.8026 37.8477 86.818 37.9398C87.5547 37.9244 88.2914 37.9398 89.0588 37.9091C89.0588 37.1417 89.0588 36.359 89.0588 35.5455C88.9053 35.6376 88.7671 35.6683 88.5983 35.5148L88.1532 35.0697L86.112 37.0956L86.7105 37.6942ZM86.6184 33.5349L84.5772 35.5762L85.5748 36.5585L87.6007 34.5172L86.6184 33.5349ZM82.3211 37.9398C83.4875 37.9705 84.6846 37.9551 85.8818 37.9551L85.5748 37.6328L85.452 37.7556C85.3139 37.8937 85.0683 37.8937 84.9148 37.7556C84.7614 37.6021 84.7614 37.3566 84.9148 37.2031L85.0223 37.0956L84.04 36.1134L82.2904 37.8477C82.3057 37.8784 82.3211 37.9091 82.3211 37.9398ZM82.0294 34.1028L80.3258 35.8064L81.7992 37.2645L83.5028 35.5609L82.0294 34.1028ZM79.7887 36.3436L78.2692 37.8784H78.8985C79.7119 37.9091 80.5407 37.9091 81.3695 37.9244L79.7887 36.3436ZM76.8726 37.8477L76.4428 37.4026L76.0131 37.8323C76.3047 37.8323 76.5963 37.8323 76.8726 37.8477ZM89.8722 39.4285C82.9196 39.7201 77.026 39.2136 70.0735 39.3671L69.966 39.4746C69.8893 39.5513 69.7972 39.582 69.6898 39.582C69.5977 39.582 69.5056 39.5513 69.4289 39.4746C69.3982 39.4439 69.3982 39.4132 69.3828 39.3825C68.907 39.3978 68.4466 39.3978 67.9708 39.4132C67.5718 39.4592 67.1727 39.1062 67.1727 38.6458C67.1727 34.8702 67.0039 32.3992 67.0039 28.6236C67.0039 28.1939 67.3569 27.8562 67.7713 27.8562L89.7955 27.7642C90.2252 27.7642 90.5628 28.1018 90.5628 28.5316C90.6089 31.7239 90.5628 35.5148 90.6089 38.6458C90.6089 39.0602 90.2866 39.4132 89.8722 39.4285ZM76.98 36.8654L77.5786 37.464L79.2515 35.8064L78.791 35.3613C78.7297 35.3 78.7143 35.2232 78.699 35.1311L76.98 36.8654ZM76.4428 36.3129L78.699 34.0568C78.8371 33.9033 79.0827 33.9033 79.2361 34.0568C79.3896 34.2103 79.3896 34.4405 79.2361 34.594L79.1134 34.7167C79.1901 34.7321 79.2822 34.7474 79.3436 34.8088L79.7887 35.2693L81.7532 33.2894H81.7685L82.7508 32.3071C82.8889 32.1536 83.1345 32.1536 83.288 32.3071C83.4414 32.4606 83.4414 32.6908 83.288 32.8443L82.582 33.5656L84.04 35.0237L86.0813 32.9824L85.7743 32.6908C85.6208 32.5373 85.6208 32.2918 85.7743 32.1383C85.9278 31.9848 86.1734 31.9848 86.3115 32.1383L86.6491 32.4759C86.8026 32.4146 86.9714 32.3992 87.0789 32.522C87.2017 32.6448 87.2017 32.8136 87.1249 32.9517L88.1532 33.98L88.5523 33.581C88.6904 33.4429 88.9053 33.4429 89.0588 33.5656C89.0588 32.1229 89.0588 30.6803 89.0434 29.2989L68.5387 29.3757C68.5694 32.5066 68.6768 34.7321 68.6922 37.8477C68.9684 37.8477 69.2447 37.8477 69.521 37.8323L68.9377 37.2645C68.7996 37.1263 68.7996 36.8808 68.9377 36.7273C69.0912 36.5738 69.3368 36.5738 69.4903 36.7273L70.5493 37.7863L71.7771 36.5738L71.6236 36.405C71.4701 36.2515 71.4701 36.0213 71.6236 35.8678C71.7771 35.7143 72.0073 35.7143 72.1608 35.8678L72.3296 36.0213L73.9565 34.3944C74.11 34.2409 74.3555 34.2409 74.509 34.3944C74.6471 34.5326 74.6471 34.7781 74.509 34.9316L72.8668 36.5738L74.11 37.8017H74.9387L75.8903 36.8501L74.6778 35.6376C74.5397 35.4995 74.5397 35.2539 74.6778 35.1004C74.8313 34.947 75.0769 34.947 75.2303 35.1004L76.4428 36.3129Z" fill="#6440FB"/>
<path d="M89.1664 42.1299C89.5501 42.1913 89.9338 42.4675 89.9491 42.8973C89.9491 43.3117 89.5961 43.6647 89.1817 43.6647L68.4468 43.7874H68.4315C68.0171 43.7874 67.6794 43.4498 67.6641 43.0354C67.6641 42.6057 68.0017 42.2527 68.4315 42.2527L89.1664 42.1299Z" fill="#6440FB"/>
<path d="M61.4027 42.1299C61.8325 42.1299 62.1701 42.4675 62.1701 42.8973C62.1701 43.3117 61.8325 43.6647 61.4027 43.6647L40.6678 43.7874C40.238 43.7874 39.9004 43.4498 39.9004 43.0354C39.9004 42.6057 40.238 42.2527 40.6678 42.2527L61.4027 42.1299Z" fill="#6440FB"/>
<path d="M47.6357 59.304C49.6923 59.304 51.7029 60.2555 52.3475 62.2968C52.7619 63.632 52.4242 65.1822 51.442 66.3179C51.3038 66.4714 51.1657 66.6095 51.0276 66.7477C48.5105 69.0498 44.2438 68.3438 42.6784 65.397C41.9417 63.985 42.1258 62.4349 43.2155 61.1457C44.2285 59.9486 45.9474 59.304 47.6357 59.304ZM44.0443 64.6757C45.1954 66.8551 48.5719 67.3002 50.2755 65.3203C50.736 64.7831 50.9815 64.0925 50.9815 63.4325C50.9815 63.2023 50.9508 62.9721 50.8895 62.7572C50.1221 60.3016 45.9168 60.3323 44.3973 62.1433C43.5225 63.1563 43.722 64.0771 44.0443 64.6757Z" fill="#6440FB"/>
<path d="M44.7962 36.8347L43.8139 37.8017C44.1669 37.8017 44.5352 37.7863 44.8882 37.7863C45.1799 37.7863 45.4715 37.8017 45.7631 37.8017L44.7962 36.8347ZM55.7392 37.5407L55.3248 37.9551C55.6164 37.9551 55.8773 37.9705 56.1689 37.9705L55.7392 37.5407ZM52.071 37.0036L52.7463 37.6635C52.8077 37.7403 52.8384 37.8323 52.8538 37.9091C53.3296 37.9244 53.8053 37.9398 54.2965 37.9398C54.3118 37.9244 54.3118 37.8937 54.3272 37.8784L55.202 37.0036L53.6365 35.4381L52.071 37.0036ZM51.5339 37.5407L51.1962 37.8937H51.8869L51.5339 37.5407ZM50.1525 36.1594L49.3545 36.9575L50.0758 37.6789C50.1219 37.7249 50.1372 37.7863 50.1525 37.8477L50.9967 37.0036L50.1525 36.1594ZM48.8173 37.4947L48.4796 37.8323C48.7099 37.8323 48.9247 37.8323 49.1549 37.8477L48.8173 37.4947ZM61.2644 35.653L58.9776 37.9398C59.745 37.9244 60.497 37.9398 61.2951 37.9091C61.2797 37.1724 61.2797 36.405 61.2797 35.6223C61.2797 35.6376 61.2797 35.6376 61.2644 35.653ZM62.0932 39.4132C55.1406 39.7048 49.2317 39.2137 42.2638 39.3671C41.9415 39.6894 41.6498 40.0885 41.3275 39.7662C41.2201 39.6587 41.2201 39.5206 41.2508 39.3978C40.8978 39.3978 40.5448 39.3978 40.1918 39.4132C39.8081 39.4592 39.3937 39.1062 39.3937 38.6458C39.3937 34.8856 39.2402 32.5527 39.2402 28.6236C39.2402 28.1939 39.5779 27.8562 39.9923 27.8562L62.0318 27.7642C62.4462 27.7642 62.7838 28.1018 62.7992 28.5162C62.8452 31.7239 62.7838 35.5148 62.8299 38.6458C62.8452 39.0602 62.5076 39.3978 62.0932 39.4132ZM57.5656 35.745L56.2917 37.0036L57.0284 37.7403C57.0898 37.8017 57.1051 37.8784 57.1205 37.9551C57.5502 37.9551 58.0106 37.9551 58.4404 37.9398C58.2869 37.7863 58.2869 37.5561 58.4404 37.4026L58.8701 36.9575C58.8241 36.9422 58.778 36.9422 58.732 36.8961L57.5656 35.745ZM55.7392 36.4664L57.013 35.1925L55.6624 33.8266C55.5396 33.7191 55.5089 33.5503 55.5857 33.3968C55.601 33.3661 55.6317 33.3201 55.6624 33.2894C55.8159 33.1359 56.0461 33.1359 56.1996 33.2894L57.5502 34.64L58.8241 33.3815C58.9776 33.228 59.2231 33.228 59.3613 33.3815C59.5147 33.5196 59.5147 33.7652 59.3613 33.9186L58.1027 35.1925L59.2692 36.359C59.3152 36.405 59.3152 36.451 59.3306 36.4971L60.7272 35.1004C60.8653 34.9776 61.0649 34.9776 61.2183 35.0851L58.9008 32.7676L58.3023 33.3508C58.1488 33.5043 57.9186 33.5043 57.7651 33.3508C57.6116 33.1973 57.6116 32.9671 57.7651 32.8136L58.379 32.1843C58.3176 32.0462 58.3176 31.8774 58.4404 31.7546C58.5478 31.6318 58.7166 31.6472 58.8701 31.7086L59.9598 30.6189C60.1133 30.4654 60.3589 30.4654 60.497 30.6189C60.6505 30.7723 60.6505 31.0026 60.497 31.156L59.438 32.215L61.2797 34.0568C61.2797 32.4299 61.2797 30.7877 61.2644 29.2989L40.775 29.3757C40.7904 32.5066 40.9131 34.7321 40.9131 37.863C41.082 37.8477 41.2508 37.8477 41.4043 37.8477C41.2661 37.6942 41.2661 37.4486 41.4043 37.3105C41.5578 37.157 41.8033 37.157 41.9568 37.3105L42.4786 37.8323H42.7088L44.305 36.2362C44.259 36.1134 44.2743 35.9753 44.3664 35.8678C44.4738 35.7757 44.612 35.7604 44.7348 35.7911L45.6403 34.9009C45.7938 34.7474 46.024 34.7474 46.1775 34.9009C46.3309 35.039 46.3309 35.2846 46.1775 35.4381L45.3333 36.2822L46.73 37.6942C46.776 37.7249 46.7607 37.771 46.7914 37.817H47.4053L48.2648 36.9575L46.9602 35.653C46.8067 35.4995 46.8067 35.2539 46.9602 35.1004C47.1137 34.947 47.3439 34.9623 47.4974 35.1004L48.8019 36.405L49.6 35.6223L49.247 35.2693C49.0935 35.1158 49.0935 34.8702 49.247 34.7167C49.4005 34.5786 49.6461 34.5786 49.7995 34.7167L50.1372 35.0697L51.8101 33.4122C51.9636 33.2587 52.1938 33.2587 52.3473 33.4122C52.5008 33.5656 52.5008 33.7959 52.3473 33.9493L50.6897 35.6223L51.5339 36.4664L53.0993 34.9009L52.7924 34.594C52.6389 34.4405 52.6389 34.2103 52.7924 34.0568C52.9459 33.9033 53.1761 33.9033 53.3296 34.0568L53.6365 34.3484L54.8797 33.1052C55.0332 32.9517 55.2787 32.9517 55.4322 33.1052C55.5089 33.1819 55.555 33.274 55.555 33.3815C55.555 33.4736 55.5089 33.581 55.4322 33.6424L54.1737 34.9009L55.7392 36.4664Z" fill="#6440FB"/>
<path d="M61.3715 46.6881C61.8013 46.6574 62.1543 47.0104 62.1696 47.4248C62.185 47.8546 61.8473 48.2076 61.4329 48.2229L40.698 48.9596C40.6827 48.9596 40.6827 48.9596 40.6673 48.9596C40.2529 48.9596 39.9153 48.6373 39.8999 48.2229C39.8846 47.8085 40.2222 47.4402 40.6366 47.4248L61.3715 46.6881Z" fill="#6440FB"/>
<path d="M33.6536 48.2229L12.9187 48.9596C12.9187 48.9596 12.9034 48.9596 12.888 48.9596C12.4736 48.9596 12.136 48.6373 12.1206 48.2229C12.1053 47.8085 12.4429 47.4402 12.8727 47.4248L33.6076 46.6881C34.0066 46.6574 34.375 47.0104 34.3903 47.4248C34.4057 47.8546 34.0834 48.2076 33.6536 48.2229Z" fill="#6440FB"/>
<path d="M17.4003 12.9536H19.5797L19.6104 12.1401C19.6104 11.9253 19.7792 11.7564 19.9941 11.7564C20.209 11.7718 20.3778 11.9406 20.3778 12.1555L20.3471 12.9382L23.7697 12.9229L23.8003 12.0327C23.8003 11.8332 23.9692 11.6643 24.184 11.6643C24.3989 11.6643 24.5677 11.8485 24.5677 12.0634L24.537 12.9229L30.3999 12.8922L30.4153 12.1401C30.4306 11.9253 30.5994 11.7718 30.799 11.7718H30.8143C31.0292 11.7718 31.198 11.956 31.1827 12.1555L31.1673 12.8922L33.8378 12.8768L33.6997 12.0327C33.6537 11.8178 33.8071 11.6183 34.0067 11.5876C34.2369 11.5569 34.4211 11.695 34.4518 11.9099L34.6052 12.8768L37.9204 12.8615L37.8743 11.9713C37.859 11.7718 38.0278 11.5876 38.2427 11.5723C38.4882 11.5569 38.6264 11.7257 38.6417 11.9406L38.6878 12.8461H40.729C40.9439 12.8461 41.1127 13.015 41.1281 13.2298C41.1281 13.4447 40.9592 13.6135 40.7444 13.6135L38.7338 13.6289L38.8412 15.4706C38.8412 15.6855 38.6878 15.8697 38.4729 15.885C38.4575 15.885 38.4575 15.885 38.4575 15.885C38.2427 15.885 38.0738 15.7162 38.0738 15.5167L37.9664 13.6289L34.728 13.6442L34.9582 14.9795C34.9889 15.1943 34.8354 15.3939 34.6359 15.4246C34.6052 15.4246 34.5899 15.4246 34.5745 15.4246C34.3904 15.4246 34.2215 15.2864 34.1908 15.1023L33.9606 13.6442L31.152 13.6596L31.1059 15.133C31.0906 15.3325 30.9217 15.5013 30.7222 15.5013H30.7069C30.492 15.486 30.3232 15.3171 30.3385 15.1023L30.3846 13.6596L24.5217 13.6903L24.4757 15.0255C24.4603 15.2404 24.2915 15.3939 24.092 15.3939H24.0766C23.8617 15.3939 23.6929 15.2097 23.7083 14.9948L23.739 13.6903L20.3317 13.7056L20.2857 15.5013C20.2703 15.7162 20.1015 15.8697 19.902 15.8697C19.8866 15.8697 19.8866 15.8697 19.8866 15.8697C19.6718 15.8697 19.503 15.6855 19.5183 15.486L19.5643 13.721H17.4156H17.4003C17.2008 13.721 17.0319 13.5521 17.0166 13.3373C17.0166 13.1224 17.1854 12.9536 17.4003 12.9536Z" fill="#6440FB"/>
<path d="M33.086 32.0002L32.288 32.7983L33.5004 34.0107C33.5004 33.8112 33.5004 32.6141 33.5004 32.4146L33.086 32.0002ZM31.7508 36.6966L30.7685 37.6635L30.7839 37.6942C30.8453 37.7556 30.876 37.8477 30.8913 37.9398C31.7661 37.9398 32.6256 37.9398 33.5158 37.9091C33.5158 37.0036 33.5004 36.052 33.5004 35.1004L33.3623 34.947C33.347 35.0237 33.3316 35.1004 33.2702 35.1618L32.288 36.1441L32.9633 36.804C33.1014 36.9575 33.1014 37.2031 32.9633 37.3412C32.8098 37.4947 32.5642 37.4947 32.4107 37.3412L31.7508 36.6966ZM29.0342 35.9446L30.216 37.1263L31.1983 36.1441L30.0318 34.9623L29.0342 35.9446ZM24.921 37.7863L24.1996 37.065L23.3709 37.8784C25.3661 37.9244 27.4073 37.9551 29.4947 37.9551C29.51 37.8937 29.5253 37.8323 29.5714 37.771L29.6788 37.6635L28.497 36.4817L27.5301 37.464C27.3767 37.6175 27.1311 37.6021 26.9776 37.464C26.8395 37.3105 26.8395 37.065 26.9776 36.9115L27.9599 35.9446L26.64 34.6246L24.7368 36.5124L25.4582 37.2338C25.6116 37.3873 25.6116 37.6328 25.4582 37.7863C25.3047 37.9244 25.0591 37.9398 24.921 37.7863ZM18.7205 37.8017L18.5977 37.6942L18.4902 37.8017H18.7205ZM19.4725 37.464C19.5646 37.5561 19.5799 37.6942 19.5493 37.817C20.1478 37.817 20.7464 37.8323 21.3449 37.8477L19.9176 36.405C19.9023 36.405 19.9023 36.3896 19.9023 36.3896L19.1502 37.1417L19.4725 37.464ZM34.3292 39.4132C26.6246 39.7508 20.025 39.0909 12.4279 39.4132C11.9828 39.4592 11.6144 39.0755 11.6144 38.6458C11.6144 34.8702 11.4609 32.3992 11.4609 28.6236C11.4609 28.1939 11.7986 27.8562 12.2283 27.8562L34.2525 27.7642C34.6822 27.7642 35.0199 28.1018 35.0199 28.5162C35.0659 31.7393 35.0199 35.4381 35.0506 38.6458C35.0659 39.0602 34.7436 39.3978 34.3292 39.4132ZM17.508 36.6045C17.3699 36.451 17.3699 36.2055 17.508 36.0673C17.6615 35.9139 17.907 35.9139 18.0605 36.0673L18.5977 36.6045L22.7263 32.4759C22.8797 32.3225 23.1253 32.3225 23.2788 32.4759C23.4169 32.6294 23.4169 32.8596 23.2788 33.0131L20.4241 35.8678H20.4548L21.9589 37.3719C22.0816 37.51 22.0816 37.7096 21.9742 37.863H22.4807C22.4807 37.771 22.5114 37.6635 22.5881 37.5868L23.6471 36.5278L22.7723 35.6529C22.6188 35.4995 22.6188 35.2539 22.7723 35.1004C22.9258 34.947 23.1713 34.9623 23.3248 35.1004L24.1996 35.9753L26.9162 33.2587C27.0697 33.1052 27.3153 33.1052 27.4687 33.2587C27.6222 33.3968 27.6222 33.6424 27.4687 33.7959L27.1771 34.0875L28.497 35.4074L29.4793 34.4251L29.0803 34.0261C28.9421 33.8726 28.9421 33.627 29.0803 33.4736C29.2337 33.3354 29.4793 33.3354 29.6328 33.4736L30.0932 33.934C30.2007 33.9186 30.3234 33.934 30.4155 34.0261C30.5076 34.1182 30.523 34.241 30.5076 34.3637L31.7508 35.6069L32.7177 34.6246C32.7791 34.5633 32.8558 34.5479 32.9479 34.5326L30.9067 32.4913C30.7532 32.3378 30.7532 32.1076 30.9067 31.9541C31.0448 31.8006 31.2903 31.8006 31.4438 31.9541L31.7508 32.2611L32.5489 31.463L31.674 30.5882C31.5206 30.4347 31.5206 30.1891 31.674 30.0356C31.8122 29.8822 32.0577 29.8822 32.2112 30.0356L33.086 30.9105L33.5004 30.4961C33.5004 30.097 33.5004 29.698 33.5004 29.2989L12.9957 29.3757C13.0111 32.5066 13.1339 34.7321 13.1492 37.863C14.7147 37.8016 15.9425 37.7863 17.4006 37.8017L18.0605 37.1417L17.508 36.6045Z" fill="#6440FB"/>
<path d="M12.8885 42.2527L33.6234 42.1299C34.0532 42.1299 34.3908 42.4675 34.4062 42.8973C34.4062 43.3117 34.0532 43.6647 33.6388 43.6647L12.9038 43.7874C12.8885 43.7874 12.8885 43.7874 12.8885 43.7874C12.4741 43.7874 12.1211 43.4498 12.1211 43.0354C12.1211 42.6057 12.4587 42.2527 12.8885 42.2527Z" fill="#6440FB"/>
<path d="M69.9818 20.7195L69.2912 21.4101C69.7516 21.4101 70.212 21.4101 70.6571 21.3948L69.9818 20.7195ZM68.4777 21.1492L69.4446 20.1823L67.9866 18.7242C67.9559 18.6782 67.9405 18.6168 67.9252 18.5708L66.5132 19.9828L67.5415 21.0111C67.6643 21.1339 67.6643 21.3027 67.5875 21.4408C67.8485 21.4408 68.1094 21.4408 68.3703 21.4255C68.3549 21.3334 68.401 21.2259 68.4777 21.1492ZM66.8969 21.4562L65.976 20.5353L65.0091 21.4869C65.6384 21.4715 66.2676 21.4562 66.8969 21.4562ZM60.9419 21.2413C61.0033 21.3487 61.0187 21.4408 60.988 21.5482C61.74 21.5329 62.4767 21.5329 63.2288 21.5175L61.9549 20.2437L60.9419 21.2413ZM57.3812 20.9804L57.7649 21.3641C57.8263 21.4255 57.857 21.5175 57.857 21.5943C58.4402 21.5943 59.0388 21.5789 59.622 21.5636C59.6374 21.5329 59.6374 21.4715 59.6834 21.4408L59.8829 21.2259L58.5323 19.8753C58.517 19.86 58.5323 19.86 58.517 19.86L57.3812 20.9804ZM56.9208 21.6096L56.8441 21.5329L56.752 21.6096H56.9208ZM87.6165 14.258L86.6803 15.2096L87.1407 15.67L87.4477 15.3631C87.5858 15.2249 87.8314 15.2249 87.9848 15.3631C88.1383 15.5165 88.1383 15.7621 87.9848 15.9156L87.6932 16.2072L88.7062 17.2355C88.6755 16.6983 88.568 14.4882 88.5527 14.3808C88.476 14.7338 88.123 14.7645 87.9234 14.5803L87.6165 14.258ZM87.1407 16.7444L85.6366 18.2638L86.8184 19.4456L88.3532 17.8955C88.3225 17.8801 88.2764 17.8801 88.2457 17.8494L87.1407 16.7444ZM83.58 20.3204L84.4702 21.2106C85.9436 21.1799 87.4477 21.1645 88.9211 21.1492C88.875 20.2897 88.829 19.4149 88.7829 18.5554L87.3556 19.9828L87.7086 20.3358C87.862 20.4892 87.862 20.7195 87.7086 20.8729C87.5551 21.0264 87.3095 21.0264 87.156 20.8729L86.8184 20.5199L86.3119 21.0264C86.1584 21.1645 85.9282 21.1645 85.7747 21.0264C85.6213 20.8729 85.6213 20.6274 85.7747 20.4739L86.2659 19.9828L85.0841 18.801L83.58 20.3204ZM83.0428 20.8576L82.6898 21.2106C82.6745 21.2259 82.6438 21.2259 82.6284 21.2259H83.3958L83.0428 20.8576ZM76.213 17.1588L78.2083 19.154L79.7737 17.5885L78.6994 16.5295C78.5459 16.376 78.5459 16.1305 78.6994 15.9923C78.8529 15.8388 79.0984 15.8388 79.2366 15.9923L80.3109 17.0513L81.8457 15.5165C81.9992 15.3631 82.2294 15.3631 82.3829 15.5165C82.5363 15.67 82.5363 15.9156 82.3829 16.0691L80.8481 17.5885L83.0275 19.7679L84.5469 18.2638L82.9047 16.6216C82.7512 16.4681 82.7512 16.2225 82.9047 16.0844C83.0582 15.9309 83.3037 15.9309 83.4572 16.0844L85.0841 17.7113L86.6035 16.2072L86.1431 15.7468L85.8361 16.0537C85.6826 16.1918 85.4524 16.1918 85.299 16.0537C85.1455 15.9002 85.1455 15.6547 85.299 15.5012L85.6366 15.1635C85.5599 15.0254 85.5599 14.8566 85.6827 14.7338C85.8054 14.6264 85.9743 14.6264 86.1124 14.6878L87.0793 13.7208L86.3426 12.9841C86.2045 12.8307 86.2045 12.6005 86.3426 12.447C86.4961 12.2935 86.7417 12.2935 86.8951 12.447L88.476 14.0278C88.522 14.0738 88.522 14.1352 88.5527 14.1966C88.476 13.0302 88.4146 11.8484 88.3532 10.6973C63.3669 9.26997 38.0583 9.33136 13.0874 10.8968C12.6269 14.7031 12.7037 18.4173 12.2586 22.2849C25.6265 22.1315 39.2094 21.9012 55.6469 21.6403L56.2915 20.9804L55.7544 20.4432C55.6009 20.2897 55.6009 20.0595 55.7544 19.906C55.9078 19.7525 56.1534 19.7525 56.2915 19.906L56.8441 20.4432L59.4532 17.8341C59.5913 17.6806 59.8369 17.6806 59.9904 17.8341C60.1438 17.9875 60.1438 18.2331 59.9904 18.3712L59.0541 19.3228H59.0695L60.4201 20.6888L61.4177 19.6912L61.4024 19.6758C61.2489 19.5377 61.2489 19.2921 61.4024 19.1386C61.5405 18.9852 61.7861 18.9852 61.9395 19.1386L61.9549 19.154L63.6892 17.4197C63.8427 17.2662 64.0882 17.2662 64.2264 17.4197C64.3798 17.5732 64.3798 17.8187 64.2264 17.9569L62.4921 19.6912L63.9348 21.1339C63.9962 21.2106 64.0269 21.2873 64.0422 21.3794L65.4235 19.9828L64.9324 19.4916C64.7789 19.3382 64.7789 19.0926 64.9324 18.9545C65.0858 18.801 65.3314 18.801 65.4695 18.9545L65.976 19.4456L68.1708 17.2355C68.3242 17.082 68.5698 17.082 68.7233 17.2355C68.8614 17.389 68.8614 17.6345 68.7233 17.788L68.3856 18.1257C68.4317 18.141 68.4931 18.141 68.5391 18.1871L69.9818 19.6298L71.4092 18.2178L71.0562 17.8648C70.9027 17.7113 70.9027 17.4657 71.0562 17.3276C71.2096 17.1741 71.4399 17.1741 71.5933 17.3276L71.9463 17.6652L72.9132 16.6983C73.0667 16.5448 73.3123 16.5448 73.4504 16.6983C73.6039 16.8518 73.6039 17.0974 73.4504 17.2508L72.4835 18.2178L73.2816 19.0159L75.1847 17.1127C75.154 16.9899 75.154 16.8518 75.2615 16.7444C75.3536 16.6523 75.4917 16.6369 75.6145 16.6676L78.0087 14.2887C78.1622 14.1352 78.4078 14.1352 78.5459 14.2887C78.6994 14.4422 78.6994 14.6724 78.5459 14.8259L76.213 17.1588ZM76.1209 21.2413L77.6711 19.6912L75.6759 17.7113L73.8341 19.553L74.6783 20.3972C74.8164 20.5506 74.8164 20.7809 74.6783 20.9343C74.5248 21.0878 74.2792 21.0878 74.1257 20.9343L73.2816 20.0902L72.3607 21.0264C72.2072 21.1645 71.9617 21.1645 71.8236 21.0264C71.6701 20.8729 71.6701 20.6274 71.8236 20.4739L72.7444 19.553L71.9463 18.7549L70.5343 20.1669L71.225 20.8576C71.3631 21.0111 71.3631 21.2413 71.225 21.3794C72.8519 21.3641 74.4634 21.3487 76.0903 21.318C76.1056 21.2873 76.1056 21.2566 76.1209 21.2413ZM77.1339 21.3027C78.8222 21.2873 80.5104 21.2566 82.1987 21.2413C82.1833 21.2259 82.1526 21.2259 82.1373 21.2106C81.9838 21.0571 81.9838 20.8115 82.1373 20.6734L82.4903 20.3204L80.3109 18.141L78.7454 19.6912L79.0063 19.9521C79.1598 20.1055 79.1598 20.3511 79.0063 20.4892C78.8529 20.6427 78.6073 20.6427 78.4538 20.4892L78.2083 20.2437L77.1339 21.3027ZM89.7345 22.6686C63.9348 22.9756 37.2602 23.5281 11.4144 23.8351C11.3991 23.8351 11.3991 23.8351 11.3991 23.8351C10.9387 23.8351 10.5703 23.4207 10.6317 22.9602C11.2149 18.6475 11.0461 14.4729 11.6447 10.0681C11.6907 9.69971 11.9823 9.42345 12.3507 9.4081C37.8281 7.78123 63.6585 7.71984 89.1359 9.20858C89.5196 9.22393 89.8266 9.53089 89.8573 9.92993C90.0568 13.905 90.3177 18.1717 90.5019 21.8705C90.5172 22.3003 90.1796 22.6686 89.7345 22.6686Z" fill="#6440FB"/>
<path d="M69.9358 93.0233L69.9051 92.9926L69.7977 93.1C69.8591 93.0693 69.8898 93.054 69.9358 93.0233ZM70.4577 92.4554L70.4884 92.4708C70.5191 92.5168 70.5191 92.5628 70.5344 92.6089C70.6111 92.5475 70.7032 92.5014 70.7646 92.4247C71.0869 92.1484 71.3632 91.7647 71.5627 91.3504L70.4577 92.4554ZM65.3929 94.4967C65.5003 94.4813 65.5924 94.466 65.6998 94.4506L65.5771 94.3278L65.3929 94.4967ZM42.8929 73.4087L45.0723 75.6035L46.9448 73.731C47.0062 73.6696 47.0829 73.6543 47.1443 73.639L46.9141 73.4087C45.5635 73.4087 44.2282 73.4087 42.8929 73.4087ZM44.1208 94.3892L43.0771 95.4175L45.1951 95.4022C45.1644 95.3868 45.1337 95.4022 45.103 95.3715L44.1208 94.3892ZM38.2118 73.5929L40.6368 76.0179L42.5246 74.1301L41.8032 73.4241C40.6061 73.4241 39.3936 73.4241 38.1965 73.4241C38.1965 73.4855 38.2118 73.5315 38.2118 73.5929ZM38.6262 81.9882L39.5318 81.0826L38.5648 80.1157C38.5802 80.7297 38.6109 81.3589 38.6262 81.9882ZM38.6876 83.3541L39.762 84.4285L41.1586 83.0318C41.2507 82.9551 41.3428 82.909 41.4195 82.909C41.3735 82.8937 41.3121 82.8783 41.2814 82.8323L40.0843 81.6352L38.6723 83.0318C38.6723 83.1393 38.6723 83.2467 38.6876 83.3541ZM38.749 85.4414L39.2095 84.981L38.7183 84.4745C38.7337 84.7968 38.749 85.1191 38.749 85.4414ZM54.4959 92.9005L53.0993 94.2971L53.9741 95.172C54.0201 95.218 54.0355 95.2948 54.0508 95.3561C54.5266 95.3561 55.0177 95.3408 55.4935 95.3408C55.4782 95.218 55.4935 95.1106 55.5856 95.0185L56.0614 94.5274L54.542 93.0079C54.5113 92.9772 54.5266 92.9465 54.4959 92.9005ZM52.2858 73.3934L53.7439 74.8514L55.2173 73.378C54.235 73.378 53.2681 73.3934 52.2858 73.3934ZM52.5621 94.8497L52.0403 95.3715L53.0839 95.3561L52.5621 94.8497ZM47.9884 73.3934L49.6153 75.0203L51.0119 73.6083C51.104 73.5315 51.2268 73.5008 51.3496 73.5315L51.2115 73.3934C50.1371 73.3934 49.0628 73.3934 47.9884 73.3934ZM47.0369 95.4022L49.0474 95.3868L48.0498 94.3892L47.0369 95.4022ZM65.6077 69.8787L63.6586 71.8279H64.7636H68.5545C70.5805 71.8279 72.6217 71.8279 74.709 71.8126L76.7196 69.802L73.7268 66.8092L71.1483 69.3876L72.5296 70.7689C72.6831 70.9224 72.6831 71.1679 72.5296 71.3061C72.3915 71.4596 72.1459 71.4596 71.9925 71.3061L70.6111 69.9248L68.8308 71.7205C68.7541 71.7972 68.662 71.8279 68.5545 71.8279C68.4471 71.8279 68.355 71.7972 68.2783 71.7205C68.1248 71.567 68.1248 71.3214 68.2783 71.1679L70.074 69.3876L68.0788 67.3924L66.1603 69.3262L67.5876 70.7536C67.7257 70.907 67.7257 71.1526 67.5876 71.3061C67.4341 71.4442 67.1886 71.4442 67.0351 71.3061L65.6077 69.8787ZM61.1722 73.378L61.3717 73.5776L61.5713 73.378H61.1722ZM60.8346 94.6655L60.3434 95.1566C60.635 95.1413 60.942 95.1106 61.249 95.0799L60.8346 94.6655ZM58.2254 71.8432L62.9372 71.8279C62.9065 71.7665 62.8912 71.7051 62.8912 71.6284L60.6657 69.4183L59.2537 70.8149C59.3919 70.9531 59.3919 71.1833 59.2537 71.3214C59.1156 71.4442 58.9161 71.4902 58.7319 71.3368L58.2254 71.8432ZM58.9161 92.7624L57.1511 94.5274L57.9031 95.2794C58.3482 95.2641 58.7933 95.2487 59.2537 95.2334C59.2691 95.1873 59.2537 95.1566 59.2844 95.1259L60.282 94.1283L58.9161 92.7624ZM57.1357 73.378L57.7497 73.992L58.3636 73.378H57.1357ZM56.8595 95.3254L56.6139 95.0799L56.353 95.3254H56.8595ZM57.2125 74.5291L56.307 73.6083C56.2302 73.5469 56.1995 73.4548 56.1995 73.3627C56.0767 73.3627 55.9386 73.378 55.8158 73.378C55.9386 73.5162 55.9386 73.731 55.8005 73.8845L54.2964 75.3733L55.5396 76.6164C55.693 76.7699 55.693 77.0155 55.5396 77.169C55.3861 77.3071 55.1405 77.3071 55.0024 77.169L53.7592 75.9258L52.7616 76.908C52.6235 77.0615 52.3779 77.0615 52.2244 76.908C52.071 76.7699 52.071 76.5243 52.2244 76.3709L53.2067 75.3733L51.6566 73.8231C51.6719 73.9459 51.6566 74.0533 51.5645 74.1454L50.1678 75.5574L50.9506 76.3555C51.104 76.4937 51.104 76.7392 50.9506 76.8927C50.7971 77.0462 50.5669 77.0462 50.4134 76.8927L49.6153 76.0946L48.4949 77.2303C48.3414 77.3838 48.0959 77.3838 47.9424 77.2303C47.8042 77.0769 47.8042 76.8313 47.9424 76.6778L49.0781 75.5574L47.574 74.0533C47.5587 74.1301 47.5433 74.2068 47.4973 74.2682L45.6249 76.1406L46.3769 76.8927C46.5304 77.0462 46.5304 77.2917 46.3769 77.4452C46.2234 77.5833 45.9779 77.5833 45.8397 77.4452L45.0723 76.6778L44.0901 77.6754C43.9366 77.8136 43.691 77.8136 43.5529 77.6754C43.3994 77.5219 43.3994 77.2764 43.5529 77.1229L44.5352 76.1406L43.0618 74.6673L41.1893 76.555L42.6167 77.9824C42.7548 78.1359 42.7548 78.3661 42.6167 78.5196C42.4632 78.673 42.2176 78.673 42.0642 78.5196L40.6368 77.0922L39.5011 78.228C39.3476 78.3814 39.102 78.3814 38.9639 78.228C38.8104 78.0898 38.8104 77.8443 38.9639 77.6908L40.0996 76.555L38.3653 74.8207C38.396 75.2198 38.5035 78.6116 38.5188 78.98L40.0843 80.5301L41.4963 79.1181C41.6498 78.9647 41.8953 78.9647 42.0488 79.1181C42.1869 79.2563 42.1869 79.5018 42.0488 79.6553L40.6368 81.0826L41.8339 82.2798C41.9721 82.4333 41.9721 82.6788 41.8339 82.8323C41.7572 82.909 41.6651 82.9397 41.573 82.9397C41.8032 83.0472 41.9414 83.3388 41.7112 83.569L40.2992 84.981L40.7135 85.3801C40.867 85.5335 40.867 85.7791 40.7135 85.9326C40.5601 86.0707 40.3145 86.0707 40.1764 85.9326L39.762 85.5335L38.8104 86.4697C38.8104 86.4697 38.7951 86.4697 38.7951 86.4851V86.5158C40.3298 86.4851 56.307 86.1014 63.4284 85.9019C63.8274 84.3671 63.8274 82.7863 63.9962 73.3627H62.6763L61.9243 74.1147L62.5075 74.698C62.661 74.8514 62.661 75.0816 62.5075 75.2351C62.354 75.3886 62.1238 75.3886 61.9703 75.2351L61.3871 74.6519L60.3127 75.7109C60.1593 75.8644 59.9137 75.8644 59.7756 75.7109C59.6221 75.5728 59.6221 75.3272 59.7756 75.1737L60.8346 74.1147L60.0979 73.3627H59.4072C59.3919 73.3934 59.3919 73.4394 59.3612 73.4548L58.3022 74.5291L59.2384 75.4653C59.3919 75.6188 59.3919 75.8644 59.2384 76.0179C59.1003 76.1713 58.8547 76.1713 58.7012 76.0179L57.7497 75.0663L56.4144 76.4169C56.2609 76.555 56.0307 76.555 55.8772 76.4169C55.7237 76.2634 55.7237 76.0179 55.8772 75.8644L57.2125 74.5291ZM34.2061 88.1734C30.0775 88.2961 28.0209 93.0079 32.6099 94.8343C34.513 95.5864 36.5543 95.4636 41.8032 95.4329L41.2354 94.865C41.0819 94.7115 41.0819 94.466 41.2354 94.3125C41.3889 94.159 41.6344 94.1744 41.7725 94.3125L42.4325 94.9725L43.7064 93.6986C43.7217 93.6372 43.7217 93.5605 43.7831 93.5144C43.8292 93.453 43.9059 93.4377 43.9826 93.4223L45.2105 92.2098C45.3486 92.0564 45.5942 92.0564 45.7476 92.2098C45.9011 92.348 45.9011 92.5935 45.7476 92.747L44.6579 93.8367L45.6402 94.8343C45.7937 94.9725 45.7937 95.218 45.6402 95.3715C45.6249 95.3868 45.5942 95.3868 45.5635 95.4022H45.9318L47.4973 93.8367L47.4819 93.8214C47.3285 93.6679 47.3285 93.4223 47.4819 93.2842C47.6354 93.1307 47.881 93.1307 48.0345 93.2842L48.0498 93.2995L49.5693 91.7647C49.7227 91.6266 49.9683 91.6266 50.1218 91.7647C50.2599 91.9182 50.2599 92.1638 50.1218 92.3173L48.587 93.8367L49.9836 95.2334C50.0297 95.2641 50.0297 95.3254 50.045 95.3868L50.9506 95.3715C50.9506 95.3715 50.9506 95.3715 50.9659 95.3561L52.0249 94.2971L50.8431 93.1307C50.6896 92.9772 50.6896 92.7317 50.8431 92.5782C50.9966 92.4401 51.2422 92.4401 51.3803 92.5782L52.5621 93.76L55.2326 91.0741C55.3861 90.9206 55.6316 90.9206 55.7698 91.0741C55.9233 91.2276 55.9233 91.4731 55.7698 91.6266L54.9717 92.4247C55.0024 92.4401 55.0484 92.4401 55.0791 92.4708L56.5986 93.9902L60.2974 90.2914C60.4509 90.1379 60.6964 90.1379 60.8346 90.2914C60.988 90.4448 60.988 90.6904 60.8346 90.8439L59.4533 92.2252L60.8192 93.5911L64.6255 89.7849C64.7636 89.6468 65.0092 89.6468 65.1627 89.7849C65.3161 89.9384 65.3161 90.1839 65.1627 90.3374L63.6432 91.8568L61.3717 94.1283L62.2312 95.0031C62.8605 94.9264 63.4897 94.8497 64.1037 94.7422C64.119 94.7269 64.119 94.6962 64.1344 94.6655L65.0245 93.7907L63.6739 92.4401C63.5358 92.2866 63.5358 92.041 63.6739 91.8875C63.8274 91.7341 64.073 91.7494 64.2264 91.8875L65.5771 93.2381L67.4955 91.3043C67.649 91.1508 67.8946 91.1508 68.048 91.3043C68.2015 91.4578 68.2015 91.7034 68.048 91.8415L66.1142 93.7907L66.4826 94.1437C66.5133 94.1744 66.4979 94.2204 66.5133 94.2511C66.8356 94.1744 67.1579 94.0976 67.4802 94.0055C67.9406 93.8828 68.4624 93.7139 68.9689 93.5144C68.9382 93.4991 68.9075 93.4991 68.8922 93.4837C68.7387 93.3302 68.7387 93.0847 68.8922 92.9312L69.368 92.4554L66.9277 89.9997C66.7742 89.8616 66.7742 89.6161 66.9277 89.4626C67.0658 89.3091 67.3114 89.3091 67.4648 89.4626L69.9051 91.9029L71.3785 90.4448C71.5167 90.3067 71.7008 90.3067 71.8543 90.4141C71.9618 89.4472 71.486 88.7259 70.6725 88.1734L69.9358 88.9254L70.9488 89.9384C71.3171 90.3067 70.7646 90.8439 70.4116 90.4755L69.368 89.4472C69.1838 89.5854 69.015 89.5547 68.8922 89.4319C68.7541 89.2937 68.7541 89.0942 68.8615 88.9408L68.662 88.7259C68.5085 88.5877 68.5085 88.3422 68.662 88.1887C68.8001 88.0352 69.0457 88.0352 69.1991 88.1887L69.3833 88.3882L69.9665 87.805C69.8591 87.759 69.7517 87.6976 69.6596 87.6669C68.8768 87.4213 68.0327 87.3599 67.1732 87.3599C66.8663 87.3599 64.0116 87.4213 64.0116 87.4213C59.7449 87.5441 34.4823 88.1734 34.2061 88.1734ZM87.4631 66.8552L89.6732 69.0806L91.7912 66.978L89.5657 64.7525L87.4631 66.8552ZM98.4521 12.6927C98.667 4.12857 96.4109 1.53478 86.9873 1.53478L17.0779 1.765C6.22695 1.81105 2.40533 4.31274 1.86816 16.6371C1.33098 29.3297 1.40772 42.2526 2.09838 55.0681C3.63316 55.0374 94.9835 53.5947 97.562 53.8095L98.4521 12.6927ZM86.9106 67.4077L82.5671 71.7512C83.5033 71.7512 84.4242 71.7358 85.3604 71.7205C87.3096 71.7051 89.1206 71.613 90.7475 71.2293L89.6885 70.1857L88.8444 71.0145C88.6909 71.1679 88.4453 71.1679 88.2919 71.0145C88.1384 70.861 88.1384 70.6154 88.2919 70.4773L89.136 69.6332L86.9106 67.4077ZM80.9863 66.625L83.7949 69.4336L86.3734 66.8552L83.5647 64.0465L80.9863 66.625ZM77.2568 69.2495L79.8966 66.625L78.7608 65.4739C78.6074 65.3358 78.6074 65.0902 78.7608 64.9367C78.899 64.7832 79.1445 64.7832 79.298 64.9367L80.4338 66.0725L83.0122 63.5094L82.6439 63.1257C82.4904 62.9722 82.4904 62.7266 82.6439 62.5885C82.782 62.435 83.0275 62.435 83.181 62.5885L83.5647 62.9568L84.5623 61.9439C84.7158 61.7904 84.9614 61.7904 85.1149 61.9439C85.2683 62.0974 85.2683 62.3429 85.1149 62.4964L84.1019 63.5094L86.9106 66.318L89.0132 64.2154L87.4631 62.6499C87.3096 62.5118 87.3096 62.2662 87.4631 62.1127C87.6166 61.9592 87.8621 61.9592 88.0156 62.1127L89.5657 63.6629L89.9801 63.2485C90.1336 63.095 90.3792 63.095 90.5173 63.2485C90.6708 63.4019 90.6708 63.6475 90.5173 63.7856L90.1029 64.2154L92.3283 66.4255L94.0626 64.7065C94.2161 64.553 94.4463 64.553 94.5998 64.7065C94.7533 64.86 94.7533 65.0902 94.5998 65.2437L92.8655 66.978L93.725 67.8375C93.8785 67.9756 93.8785 68.2212 93.725 68.3746C93.5715 68.5281 93.326 68.5281 93.1878 68.3746L92.3283 67.5152L90.2257 69.6178L91.5763 70.9684V70.9991C96.6871 69.3262 97.3317 64.2921 97.4545 58.7515L97.5159 55.3443C96.2574 55.2369 71.5474 55.5592 47.5894 55.9122C24.9053 56.2345 2.92716 56.5875 2.17511 56.6028C2.2672 58.199 2.37464 59.8105 2.46672 61.4067C3.08064 70.2471 5.64373 72.5493 14.9138 72.273C21.6208 72.0735 28.9417 71.9507 37.291 71.8893C41.9721 71.8586 46.6225 71.8586 51.2882 71.8586C51.3036 71.8279 51.3036 71.7819 51.3343 71.7665L52.8844 70.2164L52.6235 69.9555C52.47 69.802 52.47 69.5564 52.6235 69.4029C52.777 69.2648 53.0225 69.2648 53.1606 69.4029L53.4216 69.6639L53.6825 69.4029L56.4758 66.625C56.6139 66.4715 56.8595 66.4715 57.013 66.625C57.1664 66.7785 57.1664 67.0087 57.013 67.1622L53.9741 70.2164L54.7261 70.9684C54.8796 71.1219 54.8796 71.3675 54.7261 71.521C54.5727 71.6744 54.3424 71.6744 54.189 71.521L53.4216 70.7536L52.3319 71.8586C53.1913 71.8586 55.5089 71.8432 57.5194 71.8432C57.458 71.7051 57.4427 71.5363 57.5655 71.4135L58.1794 70.7996L56.2763 68.8965C56.1228 68.743 56.1228 68.4974 56.2763 68.3593C56.4144 68.2058 56.66 68.2058 56.8134 68.3593L58.7166 70.2624L60.1132 68.8658L60.0365 68.7737C59.883 68.6202 59.883 68.39 60.0365 68.2365C60.19 68.083 60.4355 68.083 60.589 68.2365L60.6657 68.3132L61.9857 66.9933C62.1238 66.8552 62.3694 66.8552 62.5228 66.9933C62.6763 67.1468 62.6763 67.3924 62.5228 67.5459L61.2029 68.8658L63.367 71.0298L65.0706 69.3262L63.6893 67.9603C63.5358 67.8068 63.5358 67.5612 63.6893 67.4077C63.8427 67.2542 64.073 67.2542 64.2264 67.4077L65.6077 68.789L67.8025 66.5943V66.5789L70.0279 64.3689C70.1661 64.2154 70.4116 64.2154 70.5651 64.3689C70.7186 64.5223 70.7186 64.7679 70.5651 64.9214L68.6159 66.8552L70.6111 68.8504L73.2049 66.2566C73.0975 66.1032 73.0821 65.9036 73.2203 65.7655C73.3584 65.6274 73.5579 65.6274 73.7114 65.7348L77.0572 62.4043C77.2107 62.2509 77.4563 62.2509 77.5944 62.4043C77.7479 62.5425 77.7479 62.788 77.5944 62.9415L74.2793 66.272L77.2568 69.2495ZM85.3911 73.2553C78.5767 73.3473 71.839 73.3627 65.5157 73.3627C65.3008 82.157 65.4236 83.9373 65.0092 85.8712C66.943 85.8251 68.5852 85.7177 70.12 86.2088C74.6169 87.6362 75.1081 93.5144 67.8946 95.4943C63.1521 96.8295 58.1487 96.8602 53.3141 96.8909C35.6488 96.9984 34.4823 97.2286 32.0574 96.2617C25.9336 93.8367 28.3585 86.8074 34.1754 86.6386C35.2037 86.6079 36.232 86.5772 37.2756 86.5618C36.8766 78.7191 37.0147 75.9258 36.6464 73.4394C28.5887 73.4855 21.4827 73.6083 14.9752 73.8078C5.01447 74.0994 1.63794 71.3675 0.947287 61.5142C0.916592 60.9463 0.609635 56.4494 0.594287 55.8508C-0.387975 54.8685 0.0878084 22.3618 0.333374 16.5757C0.916592 3.28444 5.49025 0.276261 17.0779 0.230218L86.9873 0C97.4699 0 100.217 3.46861 99.9869 12.7387L98.9893 58.7822C98.7284 70.5233 94.8914 73.1171 85.3911 73.2553ZM77.2568 70.3392L75.7987 71.8126C77.7172 71.7972 79.651 71.7819 81.6002 71.7665C81.6155 71.6744 81.6309 71.5977 81.6923 71.5363L83.2578 69.9708L80.4338 67.1622L77.8093 69.802L78.6227 70.6154C78.7608 70.7689 78.7608 70.9991 78.6227 71.1526C78.4692 71.3061 78.2237 71.3061 78.0702 71.1526L77.2568 70.3392Z" fill="#6440FB"/>
</svg>
