<svg width="100" height="94" viewBox="0 0 100 94" fill="none" xmlns="http://www.w3.org/2000/svg">
<path d="M17.0347 93.5161C40.5147 93.7926 62.654 93.8333 82.8684 93.6926C95.3545 93.6036 98.7311 89.3801 99.2623 77.5549C100.059 59.9484 100.211 42.0779 99.7155 24.4417C99.4905 16.376 97.0389 12.2478 85.8325 12.6572L65.7588 13.3978C56.8477 13.7275 55.1899 12.4572 51.2758 7.13836C47.171 1.56016 45.0194 -0.272678 34.4615 0.0320141L13.3127 0.63046C5.14701 0.863275 1.89384 3.08987 1.61884 13.34L1.25165 27.1824C1.0704 27.423 1.03446 27.7449 1.22821 28.0355L0.0250692 73.2892C-0.429624 90.2535 5.30327 93.377 17.0347 93.5161ZM50.0804 8.01962C54.3414 13.8072 56.5008 15.2307 65.815 14.8822L85.8887 14.1416C96.3107 13.7588 98.0326 17.3526 98.2311 24.4823C98.2529 25.2355 98.2545 25.9949 98.2733 26.748L2.75011 26.7621L2.77354 25.8995L4.9642 23.7089L6.00952 24.7542C6.15328 24.898 6.38922 24.8995 6.53453 24.7542C6.67985 24.6089 6.67985 24.3745 6.53453 24.2292L5.4892 23.1823L9.44238 19.2291C9.5877 19.0838 9.5877 18.8495 9.44238 18.7041C9.29707 18.5588 9.06269 18.5588 8.91737 18.7041L7.17516 20.4464L5.4892 18.762L9.10332 15.1478C9.24863 15.0025 9.24863 14.7681 9.10332 14.6228C8.958 14.4775 8.72362 14.4775 8.57831 14.6228L7.34079 15.8604L4.69701 13.215L7.4236 10.4868L8.69862 11.7619C8.84237 11.9056 9.07831 11.9072 9.22363 11.7619C9.36894 11.6165 9.36894 11.3822 9.22363 11.2369L7.94861 9.96183L8.28612 9.62433C8.43143 9.47902 8.43143 9.24464 8.28612 9.09932C8.1408 8.95401 7.90642 8.95401 7.76111 9.09932L7.4236 9.43683L5.73921 7.75243L8.15486 5.33677L9.63145 6.81335C9.7752 6.95711 10.0111 6.95867 10.1565 6.81335C10.3018 6.66804 10.3018 6.43366 10.1565 6.28835L8.67987 4.81177L9.86739 3.62581C10.0127 3.4805 10.0127 3.24612 9.86739 3.10081C9.72207 2.95549 9.4877 2.95549 9.34238 3.10081L8.15486 4.28676L7.0861 3.21799C8.23143 2.63049 9.57207 2.3633 11.0533 2.23673C11.0612 2.24454 11.058 2.25704 11.0658 2.26486L12.7893 3.98832L11.583 5.19615C11.4377 5.34146 11.4377 5.57584 11.583 5.72115C11.7268 5.8649 11.9627 5.86647 12.108 5.72115L13.3143 4.51332L15.0612 6.26022C15.205 6.40397 15.4409 6.40554 15.5862 6.26022C15.7315 6.11491 15.7315 5.88053 15.5862 5.73522L13.8393 3.98832L15.78 2.04767L17.7784 1.99142L19.9519 4.16488L19.255 4.86177C19.1097 5.00708 19.1097 5.24146 19.255 5.38677C19.3988 5.53053 19.6347 5.53209 19.78 5.38677L20.4769 4.68989L22.7457 6.95867C22.8894 7.10242 23.1254 7.10398 23.2707 6.95867C23.416 6.81335 23.416 6.57898 23.2707 6.43366L21.0019 4.16488L23.2488 1.91798C23.2707 1.8961 23.2676 1.86173 23.2832 1.83516L24.0285 1.81329C24.0457 1.86641 24.0504 1.92423 24.0926 1.96641L26.0817 3.95707L24.5926 5.44615C24.4473 5.59146 24.4473 5.82584 24.5926 5.97116C24.7363 6.11491 24.9723 6.11647 25.1176 5.97116L26.6067 4.48207L28.1379 6.01334C28.2817 6.1571 28.5176 6.15866 28.663 6.01334C28.8083 5.86803 28.8083 5.63365 28.663 5.48834L27.1332 3.95707L29.0567 2.0336C29.0739 2.06642 29.0708 2.10548 29.0973 2.13361L31.0036 4.03988L30.5145 4.52739C30.3692 4.6727 30.3692 4.90708 30.5145 5.05239C30.6614 5.19927 30.8958 5.19615 31.0395 5.05239L31.5271 4.56489L33.3505 6.38835C33.4943 6.5321 33.7302 6.53366 33.8755 6.38835C34.0208 6.24303 34.0208 6.00866 33.8755 5.86334L32.0521 4.03988L33.5286 2.5633C33.674 2.41798 33.674 2.18361 33.5286 2.03829C33.3833 1.89454 33.1489 1.89298 33.0036 2.03829L31.5271 3.51331L29.6677 1.65391L34.0786 1.52891C34.0755 1.62735 34.1099 1.72422 34.1833 1.79923L36.2552 3.87113L35.5162 4.60864C35.3709 4.75395 35.3709 4.98833 35.5162 5.13364C35.663 5.28052 35.8974 5.2774 36.0412 5.13364L36.7802 4.39614L38.7881 6.40397C38.9318 6.54773 39.1678 6.54929 39.3131 6.40397C39.4584 6.25866 39.4584 6.02428 39.3131 5.87897L37.3053 3.87113L39.2397 1.93829C39.349 1.82891 39.349 1.67422 39.2912 1.53985C39.3943 1.5461 39.4975 1.55703 39.6006 1.56485C39.5818 1.67891 39.599 1.79454 39.6865 1.88204L41.8834 4.07894L41.1866 4.77583C41.0412 4.92114 41.0412 5.15552 41.1866 5.30083C41.3303 5.44459 41.5662 5.44615 41.7116 5.30083L42.4084 4.60395L43.8991 6.0946C44.0428 6.23835 44.2788 6.23991 44.4241 6.0946C44.5694 5.94928 44.5694 5.7149 44.4241 5.56959L42.9381 4.08207L44.1444 2.8758C44.2319 2.7883 44.2491 2.67111 44.2303 2.55705C46.8273 3.6305 48.4179 5.76022 50.0804 8.01962ZM3.9595 7.02273L4.68919 7.75243L4.24388 8.19931C4.09856 8.34463 4.09856 8.579 4.24388 8.72432C4.38763 8.86807 4.62357 8.86963 4.76888 8.72432L5.2142 8.27744L6.8986 9.96183L4.172 12.69L3.17667 11.6947C3.27043 10.0415 3.47355 8.43213 3.9595 7.02273ZM3.64699 13.215L3.09542 13.7666L3.10636 13.3791C3.11261 13.1525 3.12355 12.9259 3.13136 12.6994L3.64699 13.215ZM3.32511 20.401C3.46887 20.5448 3.70481 20.5463 3.85012 20.401L4.9642 19.287L6.65016 20.9714L4.9642 22.6573L2.91417 20.6057L3.00167 17.3229L4.43919 18.7604L3.32511 19.8745C3.1798 20.0198 3.1798 20.2557 3.32511 20.401ZM3.02823 16.301L3.0673 14.826C3.07667 14.8181 3.09073 14.8213 3.10011 14.8119L4.172 13.74L6.81578 16.3838L4.9642 18.2354L3.02823 16.301ZM4.43919 23.1823L2.80167 24.8198L2.88604 21.6307L4.43919 23.1823ZM18.8003 1.96329L22.2519 1.86641L20.4769 3.64144L18.8003 1.96329ZM24.9645 1.78829L28.3473 1.69297L26.6082 3.43206L24.9645 1.78829ZM40.4959 1.63829C41.5725 1.76485 42.6334 1.9836 43.6663 2.33048C43.5085 2.44923 42.5647 3.4055 42.4147 3.5555L40.4959 1.63829ZM38.6318 1.49922L36.7818 3.34768L34.9443 1.51016C36.3365 1.4711 37.2662 1.44453 38.6318 1.49922ZM13.3549 2.11642L14.6987 2.07892L13.3143 3.46331L12.0221 2.17111C12.458 2.14767 12.9002 2.12892 13.3549 2.11642ZM6.42828 3.61019L7.62986 4.81177L5.2142 7.22742L4.26731 6.27897C4.87513 4.93052 5.56264 4.19926 6.42828 3.61019ZM1.51103 73.3283L2.70948 28.2527C2.73917 28.2465 2.77979 28.2418 2.79073 28.2355H98.3014C98.6764 44.617 98.5186 61.1625 97.7811 77.4877C97.2639 88.866 94.217 92.127 82.8574 92.2051C61.5821 92.3551 39.4381 92.2942 17.0519 92.0301C6.14078 91.902 1.07821 89.441 1.51103 73.3283Z" fill="#6440FB"/>
<path d="M19.6189 80.3378C23.0346 80.4893 25.2002 80.419 44.2911 79.7893C46.8958 79.7206 48.6255 78.844 49.1271 75.7877C49.7865 71.8174 47.2005 67.5954 43.3598 66.3782C40.7692 65.5579 36.9535 66.0313 35.9879 63.4172C38.0191 61.8219 39.9098 59.1625 40.6145 53.4405C40.9973 50.3311 40.8582 47.8858 40.1801 45.7467C38.2473 39.5857 32.1175 37.6216 28.3893 40.6435C26.8284 41.9013 24.219 39.7529 22.0705 45.0936C20.0111 50.2014 20.7002 56.4343 23.8221 60.9703C24.5408 62.0188 25.3455 62.886 26.2127 63.5813C24.1877 68.1829 17.5829 65.7454 13.5469 70.647C11.7985 72.7689 11.5563 75.8315 12.986 77.7737C14.536 79.869 17.347 80.244 19.6189 80.3378ZM17.9626 78.7034L19.1158 77.5502L20.1205 78.5549L20.0767 78.5987C20.0048 78.6706 19.9705 78.7643 19.9689 78.8581C19.8736 78.855 19.7767 78.8581 19.6814 78.8549C19.1314 78.8299 18.547 78.7846 17.9626 78.7034ZM21.2267 78.8721C21.2517 78.7628 21.2377 78.6549 21.1627 78.5628L22.7205 77.0049L23.9971 78.2815L23.6814 78.5971C23.5971 78.6815 23.5768 78.7924 23.5908 78.9018C22.8002 78.9081 22.0142 78.8878 21.2267 78.8721ZM27.8268 78.4612C27.7268 78.5612 27.7221 78.6956 27.7581 78.8221C27.0174 78.844 26.2705 78.8612 25.5205 78.8768C25.508 78.8049 25.4924 78.7299 25.4362 78.6737L25.0455 78.2831L26.5596 76.769L28.0393 78.2487L27.8268 78.4612ZM24.6127 78.8987C24.5502 78.9003 24.4893 78.9018 24.4252 78.9034L24.5205 78.8081L24.6127 78.8987ZM28.5753 78.8018C28.5628 78.8018 28.5503 78.8018 28.5378 78.8034L28.5831 78.7581C28.6128 78.7799 28.6471 78.7878 28.6815 78.7987L28.5753 78.8018ZM29.1096 78.7846L28.9237 78.7909C28.969 78.7721 29.019 78.7721 29.055 78.7362C29.1862 78.6049 29.1815 78.4081 29.0768 78.2628L30.5034 76.8362L32.0081 78.3409C31.9409 78.4549 31.9409 78.5784 32.005 78.694C31.0409 78.7221 30.0737 78.755 29.1096 78.7846ZM37.5488 74.2283L39.0535 75.733L37.166 77.6206L35.4472 75.9033L37.4785 73.8721C37.4441 73.9955 37.4504 74.1299 37.5488 74.2283ZM41.3457 74.4893L42.8598 76.0033L41.6176 77.2456L40.1035 75.7315L41.3457 74.4893ZM41.0926 77.7721L40.8114 78.0534C40.7114 78.1534 40.7051 78.2893 40.7442 78.4159C39.7113 78.4487 38.6801 78.4815 37.6473 78.5143C37.7113 78.4065 37.7129 78.2893 37.6598 78.1784L39.5785 76.2596L41.0926 77.7721ZM41.6176 78.2971L41.7051 78.3846C41.6457 78.3862 41.5848 78.3878 41.5254 78.3909L41.6176 78.2971ZM36.641 78.1456L36.2269 78.5596C35.1113 78.5956 33.9956 78.6315 32.88 78.6659C32.9534 78.5846 32.9784 78.4846 32.9675 78.3831L34.9222 76.4284L36.641 78.1456ZM44.2473 78.3049C43.7395 78.3221 43.2317 78.3362 42.7223 78.3534L42.1426 77.7737L43.3848 76.5315L45.077 78.2237C45.0974 78.244 45.1286 78.2393 45.152 78.2549C44.8505 78.2846 44.5427 78.2971 44.2473 78.3049ZM43.9114 76.0049L45.5958 74.3205L46.488 75.2127C46.5177 75.2424 46.5614 75.2408 46.5974 75.258L44.8817 76.9737L43.9114 76.0049ZM47.663 75.5455C47.4568 76.8065 46.8864 77.8971 45.6239 78.1753C45.7333 78.0299 45.7364 77.8284 45.6052 77.6971L45.4099 77.5018L47.6865 75.2252C47.6708 75.3315 47.6802 75.4377 47.663 75.5455ZM47.7349 74.458C47.6021 74.4049 47.4521 74.4049 47.3443 74.5143L47.0599 74.7986C47.0427 74.7627 47.0443 74.719 47.0146 74.6893L46.1224 73.7971L46.5989 73.3205C46.7443 73.1752 46.7443 72.9408 46.5989 72.7955C46.2677 72.4642 45.9349 72.933 45.5974 73.2721L44.6942 72.3689L45.427 71.6361L45.7771 71.9861C45.9208 72.1299 46.1567 72.1314 46.3021 71.9861C46.4474 71.8408 46.4474 71.6064 46.3021 71.4611L45.9521 71.1111L46.4943 70.5689C47.2661 71.7189 47.724 73.0752 47.7349 74.458ZM46.0489 69.9611L45.4255 70.5845L44.5223 69.683L45.152 69.0533C45.477 69.3283 45.7755 69.633 46.0489 69.9611ZM31.6628 62.0344L30.4253 63.2719C30.2847 63.4126 30.255 63.6532 30.4706 63.8157C30.3222 63.8032 30.1706 63.8047 30.0237 63.7797C30.3722 63.7063 30.3987 63.3594 30.2159 63.1751L29.1362 62.0969L30.4315 60.8016L31.6628 62.0344ZM30.9565 60.2781L32.6347 58.6L33.866 59.8313L32.1878 61.5094L30.9565 60.2781ZM29.7831 63.7422C29.2253 63.6188 28.6815 63.3829 28.1518 63.0844L28.6112 62.625C28.7596 62.7719 29.6003 63.6407 29.7831 63.7422ZM32.1878 62.561L33.0472 63.4204C32.3112 63.7047 31.5659 63.8547 30.8347 63.8469C31.0253 63.7579 32.0316 62.7172 32.1878 62.561ZM33.6941 63.1469C33.6847 63.0657 33.6628 62.9844 33.6003 62.9219L32.7128 62.0344L34.391 60.3563L35.73 61.6953C35.03 62.3829 34.4285 62.7766 33.6941 63.1469ZM36.2269 61.1422L34.916 59.8328L36.116 58.6328L36.8301 59.3484C36.9738 59.4922 37.2098 59.4938 37.3551 59.3484C37.5004 59.2031 37.5004 58.9687 37.3551 58.8234L35.555 57.0218L37.0098 55.5671L37.5332 56.0906C37.6769 56.2343 37.9113 56.2375 38.0582 56.0906C38.2035 55.9453 38.2035 55.7109 38.0582 55.5656L37.5348 55.0421L38.7863 53.7906C38.8504 53.7265 38.8754 53.6421 38.8832 53.5577C38.966 53.5546 39.0457 53.5218 39.1113 53.464C38.5707 57.6219 37.4301 59.7266 36.2269 61.1422ZM39.1613 53.0109C39.1457 52.9859 39.1504 52.953 39.1285 52.9312L37.8551 51.6577L38.8941 50.6171C39.0457 50.7686 39.1395 50.889 39.3176 50.9749C39.2957 51.6155 39.2442 52.2937 39.1613 53.0109ZM39.316 49.5764C39.1895 49.4921 39.0363 49.4921 38.9113 49.5811L38.4301 49.0999L39.2004 48.3295C39.2504 48.7342 39.2973 49.1421 39.316 49.5764ZM25.0471 60.1266C22.1986 55.989 21.572 50.3061 23.4502 45.6483C24.783 42.3279 26.0393 42.6951 27.5659 42.6092C28.78 42.5513 28.9753 41.8982 29.9081 41.3779C33.1409 39.5513 37.9348 41.6154 39.0754 47.4748C38.8863 47.5592 38.0613 48.4202 37.9019 48.578C37.5457 48.2436 37.0488 48.7686 37.3863 49.1077L37.641 49.3624L38.3691 50.0889L37.3004 51.1577C37.1613 51.0858 36.9941 51.0811 36.8754 51.1999C36.7504 51.3249 36.7551 51.5108 36.8457 51.6546C36.7535 51.7983 36.7488 51.9827 36.8754 52.1093C37.0363 52.2702 37.1613 52.2233 37.3004 52.1515L38.3676 53.2202C38.3316 53.2374 38.2895 53.2359 38.2598 53.264L37.0082 54.5156L36.3129 53.8202C36.1675 53.6749 35.9332 53.6749 35.7879 53.8202C35.6425 53.9656 35.6425 54.1999 35.7879 54.3452L36.4832 55.0406L35.0285 56.4953L34.78 56.2468C34.6347 56.1015 34.4003 56.1015 34.255 56.2468C34.1097 56.3922 34.1097 56.6265 34.255 56.7718L35.5894 58.1062L34.3894 59.3063L33.1581 58.075L33.3597 57.8734C33.505 57.7281 33.505 57.4937 33.3597 57.3484C33.2144 57.2031 32.98 57.2031 32.8347 57.3484L32.6331 57.55L32.3534 57.2703C32.2081 57.125 31.9737 57.125 31.8284 57.2703C31.6831 57.4156 31.6831 57.65 31.8284 57.7953L32.1081 58.0765L30.43 59.7547L29.9253 59.25C29.78 59.1047 29.5456 59.1047 29.4003 59.25C29.255 59.3953 29.255 59.6297 29.4003 59.775L29.905 60.2797L28.6112 61.5735L27.8206 60.7828C27.6752 60.6375 27.4409 60.6375 27.2956 60.7828C27.1502 60.9282 27.1502 61.1625 27.2956 61.3078L28.0878 62.1L27.4924 62.6954C26.6034 62.0594 25.7815 61.1985 25.0471 60.1266ZM14.6923 71.5892C18.2876 67.2298 25.0799 69.5439 27.4612 64.436C29.8503 65.7579 32.4472 65.5845 34.7378 64.2907C36.3191 67.5064 40.5207 67.036 42.9114 67.7954C43.4989 67.9814 44.0348 68.2767 44.5395 68.6158L43.8708 69.2845C43.7614 69.3939 43.7614 69.5486 43.8177 69.683C43.7614 69.8173 43.7598 69.972 43.8708 70.0814L44.9005 71.1111L44.1302 71.8814C43.9958 71.8267 43.8458 71.8267 43.7364 71.9361C43.5911 72.0814 43.5911 72.3158 43.7364 72.4611L43.8223 72.5471C43.8395 72.5861 43.838 72.6314 43.8708 72.6642C43.9036 72.6971 43.9489 72.6955 43.988 72.7127L45.0708 73.7955L43.3864 75.4799L41.8723 73.9658L42.7911 73.0471C42.9364 72.9017 42.9364 72.6674 42.7911 72.5221C42.6458 72.3767 42.4114 72.3767 42.2661 72.5221L41.2957 73.4924C41.1739 73.4627 41.0457 73.4721 40.9504 73.5674C40.8551 73.6627 40.8457 73.7908 40.8754 73.9127L39.5801 75.208L38.0754 73.7033C37.9769 73.6049 37.8441 73.5986 37.7191 73.633L37.8488 73.5033C37.9941 73.358 37.9941 73.1236 37.8488 72.9783C37.7035 72.833 37.4691 72.833 37.3238 72.9783L34.9238 75.3783L33.8597 74.3158C33.7144 74.1705 33.48 74.1705 33.3347 74.3158C33.1894 74.4611 33.1894 74.6955 33.3347 74.8408L34.3972 75.9033L32.5097 77.7909L31.03 76.3112L33.6738 73.6674C33.8191 73.5221 33.8191 73.2877 33.6738 73.1424C33.5285 72.9971 33.2941 72.9971 33.1488 73.1424L30.505 75.7862L29.9862 75.2674C29.8409 75.1221 29.6065 75.1221 29.4612 75.2674C29.3159 75.4127 29.3159 75.6471 29.4612 75.7924L29.98 76.3112L28.5674 77.7237L27.0877 76.244L29.344 73.9877C29.4893 73.8424 29.4893 73.608 29.344 73.4627C29.1987 73.3174 28.9643 73.3174 28.819 73.4627L26.5627 75.719L26.383 75.5393C26.2377 75.394 26.0034 75.394 25.858 75.5393C25.7127 75.6846 25.7127 75.919 25.858 76.0643L26.0377 76.244L24.5236 77.7581L23.2471 76.4815L24.8861 74.8424C25.0315 74.6971 25.0315 74.4627 24.8861 74.3174C24.7408 74.1721 24.5065 74.1721 24.3611 74.3174L22.6986 75.9799C22.5564 75.8955 22.3783 75.8924 22.2564 76.0143C22.1346 76.1362 22.1377 76.3143 22.2221 76.4565L20.6502 78.0284L19.6455 77.0237L21.0439 75.6252C21.1892 75.4799 21.1892 75.2455 21.0439 75.1002C20.8986 74.9549 20.6642 74.9549 20.5189 75.1002L19.1204 76.4987L19.0423 76.4205C18.897 76.2752 18.6626 76.2752 18.5173 76.4205C18.372 76.5659 18.372 76.8002 18.5173 76.9455L18.5954 77.0237L17.6595 77.9596L16.7314 77.033C16.5845 76.8877 16.3501 76.8893 16.2063 77.033C16.061 77.1784 16.061 77.4127 16.2063 77.5581L17.1345 78.4846L17.0814 78.5378C15.9267 78.2737 14.8563 77.7971 14.1844 76.8893C13.0001 75.2862 13.5626 72.9611 14.6923 71.5892Z" fill="#6440FB"/>
<path d="M56.7466 49.0858C58.4903 50.3452 58.6669 49.9952 83.2063 49.7718C84.1907 49.7624 85.4141 49.7515 86.4657 49.1405C87.6251 48.4671 88.3892 46.8921 87.6782 45.6217C86.9313 44.2842 85.1532 44.2436 84.3954 44.2248C60.4107 43.667 59.7857 43.4061 57.1794 44.4248C55.1247 45.2327 54.8387 47.7108 56.7466 49.0858ZM57.7216 45.8108C60.0013 44.917 60.731 45.1608 84.3594 45.7124C85.1454 45.7311 86.0845 45.8202 86.3813 46.3483C86.6485 46.8264 86.2454 47.5514 85.7188 47.8577C85.0095 48.2718 84.0454 48.2796 83.1938 48.2874C60.9904 48.4905 59.0419 48.9124 57.6169 47.8827C57.1497 47.5468 56.9044 47.0921 56.9575 46.6671C57.0044 46.2936 57.2825 45.9811 57.7216 45.8108Z" fill="#6440FB"/>
<path d="M60.4291 61.0157C60.5744 61.0157 60.715 61.0157 60.8494 61.0141L83.2044 60.811C84.1888 60.8016 85.4122 60.7922 86.4638 60.1797C88.4982 58.9969 88.992 55.375 84.3935 55.264L63.4698 54.7765C60.5947 54.7062 55.8478 54.6453 55.4837 57.5187C55.2947 59.0031 56.4197 61.0157 60.4291 61.0157ZM61.9416 56.2375C62.4401 56.2375 62.9401 56.2484 63.4354 56.2609L84.3607 56.7484C85.1466 56.7672 86.0857 56.8562 86.3826 57.3844C86.6498 57.8609 86.2466 58.5875 85.7201 58.8938C85.0107 59.3078 84.0466 59.3156 83.195 59.3234L60.8385 59.5266C59.5557 59.536 58.4259 59.5 57.6181 58.9188C57.1509 58.5828 56.9056 58.1281 56.9587 57.7031C57.1244 56.3578 60.5916 56.2375 61.9416 56.2375Z" fill="#6440FB"/>
<path d="M59.2014 71.4719C59.3046 71.4719 59.4046 71.4719 59.4983 71.4703L75.3188 71.2672C76.0314 71.2578 77.0048 71.2453 77.8298 70.5672C79.3439 69.3219 79.6002 65.8312 76.1689 65.7203L61.3655 65.2328C58.8342 65.1484 55.8655 65.3218 55.4983 67.8344C55.2701 69.3734 56.178 71.4719 59.2014 71.4719ZM56.967 68.0484C57.1811 66.5703 59.9515 66.6718 61.4374 66.7203L76.1189 67.2031C76.9626 67.2312 77.2017 67.425 77.3298 67.7515C77.5439 68.2953 77.2626 69.1078 76.8861 69.4188C76.4939 69.7406 75.9814 69.7719 75.3001 69.7797C59.7077 69.9813 56.5655 70.7813 56.967 68.0484Z" fill="#6440FB"/>
<path d="M17.1271 73.3956C19.3975 69.633 26.6585 71.758 28.3695 66.9767C28.4398 66.783 28.3382 66.5705 28.1445 66.5017C27.9554 66.4345 27.7382 66.5314 27.6695 66.7252C26.1397 70.9955 18.9709 68.8939 16.4912 73.0127C16.3849 73.1877 16.4412 73.4174 16.6177 73.5221C16.7927 73.6284 17.0209 73.5737 17.1271 73.3956Z" fill="#6440FB"/>
</svg>
