<svg width="100" height="85" viewBox="0 0 100 85" fill="none" xmlns="http://www.w3.org/2000/svg">
<path d="M82.9131 18.3403C81.0973 18.3029 79.0083 18.5934 77.7083 17.5434C75.6365 15.8683 75.2145 11.845 74.4409 9.22781C71.8004 0.441819 67.097 -0.203405 60.5079 0.0388188C39.2342 0.78876 36.2048 0.523266 32.4689 2.81223C27.8814 5.58564 24.6641 13.7483 24.2671 15.3109C23.2718 19.2485 20.4014 18.2405 17.0826 18.3389C4.44814 18.6717 -0.090998 22.3234 0.00137843 35.6436C0.0687216 46.4999 0.167092 57.436 0.229499 68.1111C0.370179 80.8157 4.04972 84.7861 17.7359 84.5894C28.5891 84.3909 71.408 84.3909 82.2658 84.5894C95.7799 84.7769 99.6738 80.9377 99.769 68.1079C99.8487 57.0781 99.9284 46.586 99.9971 35.6454C100.134 22.2356 95.446 18.6685 82.9131 18.3403ZM98.432 35.6341C98.3696 45.7764 98.279 57.9483 98.2039 68.0952C98.1164 80.0876 94.8759 83.2111 82.2883 83.0267C76.8554 82.9283 63.4242 82.8783 49.9943 82.8783C36.5662 82.8783 23.1378 82.9266 17.708 83.0267C4.92659 83.2111 1.92189 79.9423 1.78932 68.097C1.72691 57.4264 1.62995 46.4781 1.56261 35.6344C1.47975 23.2874 5.24709 20.2139 17.122 19.9047C20.3253 19.8127 24.461 20.9078 25.7815 15.6984C26.1767 14.1329 29.2879 6.56229 33.2798 4.14992C36.58 2.12646 39.1048 2.35916 60.563 1.60287C66.6616 1.36241 70.571 1.78551 72.941 9.67488C73.7506 12.4218 74.155 16.6842 76.7239 18.7592C78.5333 20.2203 80.9803 19.8546 82.8694 19.9029C94.6068 20.2093 98.56 23.1841 98.4306 35.6312C98.432 35.6309 98.432 35.6327 98.432 35.6341Z" fill="#6440FB"/>
<path d="M57.2564 28.7718L13.7094 29.2954C12.5751 29.3095 11.1623 29.3267 9.93606 29.9579C7.34846 31.2906 6.74379 34.6518 7.03925 37.3515C7.48773 41.4344 8.03141 60.1703 7.97676 65.2954C7.92352 69.9907 9.56444 72.0283 15.4392 71.9641C28.4219 71.8453 41.4033 71.7 54.3846 71.5297C60.0439 71.4515 61.8707 69.7548 62.4425 64.1939C63.4488 54.3452 63.8927 44.3344 63.7566 34.4374C63.6953 30.0044 61.7064 28.7217 57.2564 28.7718ZM55.5531 30.3559L54.928 30.9811L54.3187 30.3718L55.5531 30.3559ZM50.0204 30.4215L49.4157 31.0262L48.8265 30.4356L50.0204 30.4215ZM45.0391 30.4811L44.2218 31.2984L43.4232 30.4998L45.0391 30.4811ZM40.4266 30.5372L38.8453 32.1185L37.3017 30.5749L40.4266 30.5372ZM23.3906 33.5405C23.3751 33.4749 23.3641 33.4044 23.3123 33.3529L21.6294 31.6686L22.0434 31.2547C22.1809 31.1172 22.1763 30.9109 22.0666 30.7579L25.4962 30.7173L25.8555 31.0766L23.3906 33.5405ZM21.078 31.1168L20.7356 30.7744L21.4295 30.7667L21.078 31.1168ZM27.264 30.7734C27.2859 30.7515 27.2813 30.7202 27.2968 30.6951L30.1905 30.6609L28.3669 32.4845L26.9608 31.0784L27.264 30.7734ZM35.078 30.6013L33.5153 32.1654L31.9886 30.6387L35.078 30.6013ZM16.9091 30.8199L16.156 31.573L15.4215 30.8386L16.9091 30.8199ZM11.9264 30.9733L10.9624 31.9373L10.4857 31.4606C10.8373 31.2483 11.0858 31.1013 11.9264 30.9733ZM9.86872 31.9468L10.411 32.4891L9.91244 32.9876C9.75942 33.1406 9.75942 33.3874 9.91244 33.5408C10.0655 33.6938 10.3123 33.6938 10.4639 33.5408L10.9624 33.0423L11.7765 33.8564L9.59511 36.036L8.82331 35.2642C8.75597 35.1969 8.66853 35.1722 8.58285 35.1641C8.70308 33.9248 9.09057 32.7404 9.86872 31.9468ZM8.72776 37.4576C8.87937 37.6107 9.12618 37.6107 9.2792 37.4576L9.59476 37.1421L11.0026 38.5482L8.84482 40.706C8.76055 39.1779 8.67452 37.9417 8.59167 37.1809C8.55253 36.8248 8.53843 36.456 8.53843 36.084L9.04297 36.5885L8.72741 36.9041C8.57474 37.0575 8.57474 37.3046 8.72776 37.4576ZM11.2921 58.5188C11.3577 58.5843 11.4419 58.6062 11.528 58.6157L10.5982 59.5455L9.64342 58.5925C9.59335 58.5424 9.52636 58.5346 9.46219 58.5174C9.44985 57.9095 9.43575 57.2893 9.41988 56.6487L11.2921 58.5188ZM9.82182 60.8751C9.97484 61.0281 10.2217 61.0281 10.3733 60.8751L10.5982 60.6501L11.2762 61.3281L9.91526 62.6891L9.64483 62.4187C9.61345 62.3859 9.56656 62.389 9.52777 62.3704C9.51825 61.5111 9.50274 60.5627 9.48405 59.536L10.0464 60.0969L9.82147 60.3219C9.66845 60.4749 9.66845 60.7235 9.82182 60.8751ZM9.66845 67.4655L9.8183 67.6154L9.72627 67.7092C9.70618 67.6281 9.68432 67.5501 9.66845 67.4655ZM9.29366 51.9329L9.64201 51.5845L10.8669 52.8094L9.36206 54.3142C9.34055 53.5248 9.31693 52.7325 9.29366 51.9329ZM9.23407 50.0716C9.20763 49.2402 9.17766 48.4215 9.14804 47.6106L9.54963 47.209L10.9575 48.6169C11.0996 48.7589 11.3326 48.7776 11.4998 48.6214L9.64201 50.4792L9.23407 50.0716ZM9.07329 45.6294C9.05461 45.1418 9.03416 44.6591 9.01406 44.1934L9.86872 43.3387L11.0936 44.5636L9.54998 46.1072L9.07329 45.6294ZM8.96717 43.1356C8.95624 42.887 8.94531 42.6388 8.93297 42.4012L9.31728 42.7855L8.96717 43.1356ZM60.8859 64.0342C60.3874 68.9094 59.086 69.9029 54.3624 69.9671C41.3828 70.1374 28.4029 70.2827 15.4247 70.4015C13.3607 70.4529 10.9511 70.3063 10.0231 68.5155L10.3701 68.1686L10.5527 68.3516C10.7057 68.5046 10.9526 68.5046 11.1042 68.3516C11.2572 68.1985 11.2572 67.9514 11.1042 67.7984L10.9215 67.6157L13.4732 65.0641C13.6262 64.9111 13.6262 64.6639 13.4732 64.5109C13.3201 64.3579 13.0733 64.3579 12.9217 64.5109L10.3701 67.0639L9.5528 66.2467C9.54963 66.2435 9.54646 66.2452 9.54328 66.2435C9.53553 65.9434 9.53377 65.6356 9.53694 65.3155C9.54011 64.9576 9.54152 64.5278 9.54011 64.0561C9.60887 64.0405 9.68079 64.0296 9.73403 63.975L9.91385 63.7951L10.9325 64.8138C11.0855 64.9668 11.3323 64.9668 11.4839 64.8138C11.6369 64.6607 11.6369 64.4136 11.4839 64.2606L10.4667 63.2419L12.1496 61.5591C12.3026 61.4061 12.3026 61.1589 12.1496 61.0059C12.0903 60.9466 12.0121 60.9308 11.937 60.9184C11.9246 60.9012 11.9292 60.8779 11.9137 60.862L11.1511 60.0994L13.2214 58.029C13.3744 57.876 13.3744 57.6292 13.2214 57.4758C13.0684 57.3228 12.8216 57.3228 12.67 57.4758L11.9433 58.2025C11.9338 58.1182 11.9105 58.0322 11.8449 57.9666L10.8778 56.9995L13.1996 54.676C13.3526 54.523 13.3526 54.2761 13.1996 54.1245C13.0465 53.9715 12.7997 53.9715 12.6481 54.1245L10.3264 56.448L9.3952 55.5169C9.39379 55.4418 9.39203 55.3699 9.39062 55.2951C9.44844 55.2764 9.50944 55.2718 9.55633 55.2264L11.4751 53.3076C11.608 53.3436 11.6969 53.3809 11.8453 53.2325C11.9482 53.1296 11.9564 52.992 11.9204 52.8623L12.3939 52.3888C12.5469 52.2358 12.5469 51.9889 12.3939 51.8356C12.2409 51.6826 11.9941 51.6826 11.8407 51.8356L11.4204 52.2559L10.1956 51.031L12.3675 48.8591C12.5205 48.7061 12.5205 48.4589 12.3675 48.3059C12.2144 48.1529 11.9676 48.1529 11.816 48.3059L11.5146 48.6073C11.6584 48.4543 11.6598 48.2153 11.51 48.0651L10.1021 46.659L11.9662 44.7949C12.1192 44.6418 12.1192 44.395 11.9662 44.2417C11.9239 44.1994 11.8661 44.1979 11.8132 44.1793L10.4195 42.7855L12.2352 40.9697C12.3883 40.8167 12.3883 40.5699 12.2352 40.4165C12.0822 40.2635 11.8354 40.2635 11.6838 40.4165L9.86801 42.2323L9.14452 41.5088L11.5541 39.0993L11.5868 39.132C11.7399 39.2851 11.9867 39.2851 12.14 39.132C12.2931 38.979 12.2931 38.7322 12.14 38.5788L12.1087 38.5475L13.2588 37.3973C13.4118 37.2443 13.4118 36.9975 13.2588 36.8441C13.1058 36.6908 12.859 36.6911 12.7056 36.8441L11.5555 37.9943L10.1476 36.5882L12.329 34.4067L13.1463 35.2254C13.2993 35.3785 13.5461 35.3785 13.6995 35.2254C13.8529 35.0724 13.8525 34.8256 13.6995 34.6722L12.8822 33.8535L12.9838 33.752C13.1368 33.599 13.1368 33.3522 12.9838 33.1988C12.8308 33.0458 12.584 33.0458 12.4323 33.1988L12.3308 33.3003L11.5167 32.4862L12.7994 31.2035C12.89 31.1129 12.9087 30.9927 12.8932 30.8753C13.1759 30.8629 13.4573 30.858 13.7274 30.8548L14.3306 30.8471L15.6056 32.122L14.7432 32.9844C14.5901 33.1375 14.5901 33.3843 14.7432 33.5376C14.8962 33.6907 15.143 33.6907 15.2964 33.5376L16.1588 32.6752L17.2634 33.7799C17.4164 33.9329 17.6632 33.9329 17.8166 33.7799C17.9696 33.6268 17.9696 33.38 17.8166 33.2284L16.712 32.1238L18.0306 30.8051L19.6462 30.7864L20.5273 31.6675L19.0256 33.1692C18.8726 33.3222 18.8726 33.569 19.0256 33.7224C19.1786 33.8754 19.4254 33.8754 19.5788 33.7224L21.0805 32.2207L22.7648 33.905C22.935 34.0753 23.068 34.0253 23.2146 33.9473C23.2256 34.0302 23.246 34.1145 23.3098 34.1786C23.4629 34.3316 23.7097 34.3316 23.8613 34.1786L26.4097 31.6288L27.8158 33.0349L27.7721 33.0772C27.6191 33.2302 27.6191 33.477 27.7721 33.6304C27.9251 33.7837 28.1719 33.7834 28.3253 33.6304L28.3676 33.5881L29.1567 34.3771C29.3097 34.5302 29.5565 34.5302 29.7099 34.3771C29.8629 34.2241 29.8629 33.9773 29.7099 33.8239L28.9208 33.0349L31.1023 30.8552L32.9646 32.7175L32.0567 33.6268C31.9037 33.7799 31.9037 34.0267 32.0567 34.18C32.2097 34.3331 32.4565 34.3331 32.6099 34.18L33.5178 33.2707L34.6351 34.3881C34.7881 34.5411 35.035 34.5411 35.1883 34.3881C35.3417 34.235 35.3413 33.9882 35.1883 33.8349L34.071 32.7175L36.1149 30.6722C36.1382 30.6489 36.1336 30.6158 36.1491 30.5893L36.3399 30.5862C36.3522 30.6644 36.3695 30.7455 36.4305 30.8065L38.296 32.672L37.5242 33.4438C37.3712 33.5969 37.3712 33.8437 37.5242 33.997C37.6772 34.1501 37.924 34.1501 38.0774 33.997L38.8492 33.2252L39.9492 34.3253C40.1023 34.4783 40.3491 34.4783 40.5007 34.3253C40.6537 34.1723 40.6537 33.9255 40.5007 33.7721L39.4006 32.672L41.2224 30.8503C41.3116 30.7611 41.3335 30.644 41.3176 30.5283L42.399 30.516C42.4177 30.552 42.4145 30.5957 42.4459 30.6271L43.6725 31.8537L41.9896 33.5366C41.8366 33.6896 41.8366 33.9364 41.9896 34.0898C42.1426 34.2428 42.3895 34.2428 42.5428 34.0898L44.2257 32.4069L46.5912 34.7724C46.7442 34.9254 46.9914 34.9254 47.1444 34.7724C47.2974 34.6194 47.2974 34.3725 47.1444 34.2192L44.7789 31.8537L46.1617 30.4709L48.0163 30.449C47.9867 30.577 47.9959 30.7099 48.096 30.8101L48.8678 31.5819L47.4585 32.9911C47.3055 33.1442 47.3055 33.391 47.4585 33.5443C47.6115 33.6977 47.8583 33.6974 48.0117 33.5443L49.421 32.1351L51.5118 34.2259C51.6648 34.3789 51.912 34.3789 52.065 34.2259C52.218 34.0729 52.218 33.826 52.065 33.6727L49.9742 31.5819L51.1444 30.4116L53.7334 30.3803C53.6068 30.5333 53.6037 30.7568 53.7458 30.9007L54.3801 31.535L53.1989 32.7161C53.0459 32.8691 53.0459 33.1159 53.1989 33.2693C53.3519 33.4227 53.5987 33.4223 53.7521 33.2693L54.9333 32.0882L56.7159 33.8708C56.8689 34.0238 57.1157 34.0238 57.2691 33.8708C57.4221 33.7178 57.4221 33.471 57.2691 33.3176L55.4865 31.535L56.6771 30.3443L57.2804 30.3365C58.2853 30.321 59.4382 30.3771 60.3771 30.7318L58.7584 32.3523C58.6054 32.5053 58.6054 32.7521 58.7584 32.9037C58.9114 33.0567 59.1582 33.0567 59.3116 32.9037L61.096 31.1179C62.1601 31.9069 62.182 33.1054 62.2007 34.4586C62.3283 44.2953 61.8894 54.2451 60.8859 64.0342Z" fill="#6440FB"/>
<path d="M74.2145 38.1405C75.9397 37.1516 77.0284 35.2578 76.9847 33.3172C76.941 31.3265 75.6456 29.4297 73.8347 28.7062C69.8583 27.1217 66.6847 30.7233 67.1582 34.5248C67.5895 37.9872 71.0536 39.956 74.2145 38.1405ZM70.1707 30.4997C70.2504 30.4373 70.3442 30.3778 70.4394 30.3185L70.4722 30.3513L69.4863 31.3371L69.4363 31.2871C69.6457 30.9874 69.8879 30.7169 70.1707 30.4997ZM68.71 34.3327C68.7068 34.3094 68.7114 34.2872 68.71 34.2639L69.9052 35.4592L69.3834 35.981C69.0396 35.5029 68.7847 34.9405 68.71 34.3327ZM75.4238 33.3514C75.4534 34.7078 74.6566 36.0889 73.4377 36.7859C72.2971 37.4407 71.0127 37.5077 69.9175 36.5532L70.4581 36.0127L70.6985 36.2532C70.775 36.3297 70.8752 36.3674 70.9749 36.3674C71.0747 36.3674 71.1749 36.33 71.2514 36.2532C71.4044 36.1002 71.4044 35.8533 71.2514 35.7L71.0109 35.4595L71.7157 34.7547C72.0782 34.3922 71.5299 33.8359 71.1625 34.2015L70.4577 34.9063L68.8482 33.2954C68.809 33.2562 68.7561 33.2562 68.7092 33.2375C68.7357 33.0126 68.8045 32.8032 68.864 32.5891C68.9314 32.6374 69.0047 32.6812 69.0858 32.6812C69.1859 32.6812 69.2857 32.6438 69.3622 32.5669L69.4888 32.4404C69.6856 32.6371 70.6294 33.6702 70.8812 33.6702C70.9813 33.6702 71.0811 33.6328 71.1576 33.5559C71.3106 33.4029 71.3106 33.1561 71.1576 33.0027L70.042 31.8872L71.0278 30.9013L71.5373 31.4108L71.3014 31.6467C71.1484 31.7997 71.1484 32.0465 71.3014 32.1999C71.3779 32.2764 71.4781 32.3141 71.5779 32.3141C71.7936 32.3141 71.923 32.1311 72.0905 31.9626C72.2294 32.1015 72.3172 32.2221 72.5126 32.2221C72.8577 32.2221 73.0344 31.8018 72.789 31.555L72.6437 31.4098L73.5576 30.4959C73.5936 30.4599 73.5918 30.4098 73.6123 30.3647C74.6566 30.9574 75.3956 32.1093 75.4238 33.3514ZM72.8972 30.0499L72.0863 30.8608L71.5267 30.3012C71.5659 30.1715 71.5595 30.0357 71.4626 29.931C71.6142 29.906 71.769 29.8855 71.9375 29.8855C72.2301 29.8855 72.5552 29.9483 72.8972 30.0499Z" fill="#6440FB"/>
<path d="M85.8922 28.5888C84.1064 28.331 82.4158 29.2357 81.4828 30.9542C80.522 32.7214 80.686 34.7589 81.8999 36.1449C83.0046 37.4089 84.8592 37.8729 86.4719 37.3606C91.0766 35.9076 90.4938 29.2622 85.8922 28.5888ZM86.9235 30.6873L86.3485 31.2638L85.528 30.4433L85.7607 30.2106C85.773 30.1983 85.7685 30.1778 85.7794 30.1637C86.1923 30.2452 86.5829 30.4264 86.9235 30.6873ZM83.4858 30.9013C83.7468 30.6468 84.0482 30.4278 84.4047 30.2889C84.4093 30.3326 84.4361 30.37 84.4547 30.4109L83.7235 31.1422L83.4858 30.9013ZM83.0751 35.1168C82.7281 34.7198 82.5437 34.2777 82.469 33.8292L83.5659 34.9261L83.2408 35.2511C83.189 35.2028 83.122 35.17 83.0751 35.1168ZM86.0015 35.8717C85.2967 36.0903 84.5344 36.0028 83.897 35.7L84.1455 35.4514C84.2034 35.4842 84.2598 35.5247 84.3236 35.5247C84.4237 35.5247 84.5235 35.4874 84.6 35.4105C84.7252 35.2853 84.722 35.1041 84.6406 34.9557L85.4779 34.1183C85.8404 33.7558 85.2921 33.1995 84.9247 33.5651L84.1152 34.3746L82.487 32.7464C82.5603 32.3603 82.6887 31.9996 82.8526 31.6996C82.8886 31.634 82.9432 31.5716 82.9855 31.5074L83.1713 31.6932C82.7493 32.1153 83.2965 32.6731 83.7245 32.2447L84.8168 33.337C84.8934 33.4135 84.9935 33.4512 85.0933 33.4512C85.1934 33.4512 85.2932 33.4138 85.3697 33.337C85.5227 33.184 85.5227 32.9371 85.3697 32.7838L84.2774 31.6915L84.9744 30.9944L85.7949 31.8149L85.7276 31.8822C85.3665 32.2433 85.8446 32.8698 86.3587 32.3557C86.7384 32.6558 87.1742 32.1869 86.8883 31.8262L87.4757 31.2388C88.9452 33.1015 87.6502 35.3513 86.0015 35.8717Z" fill="#6440FB"/>
<path d="M74.1476 47.9921C72.1975 50.0906 73.6053 54.6763 77.4227 54.792C78.4604 54.8311 79.6352 54.4514 80.6305 53.6232C81.5695 52.8418 82.2073 51.7527 82.3804 50.634C82.5725 49.3777 82.1664 48.07 81.3209 47.2199C79.3598 45.2469 75.9257 46.0811 74.1476 47.9921ZM77.4679 53.2297C77.1022 53.2187 76.7507 53.1017 76.4179 52.9423L77.2493 52.1109L78.2633 53.125C78.0006 53.192 77.7334 53.2357 77.4679 53.2297ZM80.8364 50.3953C80.7208 51.142 80.2818 51.8796 79.6317 52.4233C79.4504 52.5749 79.2551 52.6997 79.0566 52.8122L79.0503 52.8059L80.1704 51.6871C80.3234 51.5341 80.3234 51.2873 80.1704 51.1339C80.1627 51.1262 80.1517 51.1293 80.144 51.123C80.1267 51.0606 80.1207 50.995 80.0706 50.9464L79.2065 50.0808C79.0534 49.9277 78.8066 49.9277 78.6533 50.0808C78.4999 50.2338 78.5002 50.4806 78.6533 50.634L79.3845 51.3666L78.4971 52.2527L77.8018 51.5574L78.3313 51.0278C78.4844 50.8748 78.4844 50.6276 78.3313 50.4746C78.1783 50.3216 77.9312 50.3216 77.7781 50.4746L77.1939 51.0588C77.0642 51.026 76.9298 51.0356 76.8283 51.1353C76.7267 51.2369 76.719 51.373 76.7518 51.501L75.755 52.4977C74.5753 51.4477 74.6395 49.7571 75.291 49.0555C76.3847 47.8775 78.3878 47.1868 79.7769 47.996L79.4568 48.3161L79.3958 48.2551C79.2428 48.1021 78.9956 48.1021 78.8426 48.2551C78.6896 48.4081 78.6896 48.6549 78.8426 48.8083L78.9036 48.8693L78.7474 49.0255C78.5944 49.1785 78.5944 49.4257 78.7474 49.5787C78.9004 49.7317 79.1472 49.7317 79.3006 49.5787L79.4568 49.4225C79.791 49.7567 80.1179 50.2084 80.4567 49.8692C80.6097 49.7162 80.6097 49.4694 80.4567 49.316L80.01 48.8693L80.3633 48.516C80.7522 49.0202 80.9412 49.7109 80.8364 50.3953Z" fill="#6440FB"/>
<path d="M89.0919 50.775C89.5622 47.7047 88.581 44.517 86.5293 42.4548C81.6809 37.5828 73.0995 39.6687 68.5353 44.5752C66.1148 47.1769 66.0446 51.8705 67.3728 54.9048C68.9665 58.5455 72.7088 61.0704 76.6824 61.1878C76.7808 61.191 76.8777 61.1924 76.9747 61.1924C79.6465 61.1924 82.4468 60.1297 84.6983 58.2532C87.0635 56.2872 88.6652 53.5607 89.0919 50.775ZM84.2199 42.77L83.7668 42.3169C83.959 42.423 84.137 42.5496 84.32 42.6716L84.2199 42.77ZM80.5728 41.3233L80.5837 41.3124C81.0368 41.367 81.4821 41.4499 81.9133 41.5687L82.0367 41.6921L81.4884 42.2404L80.5728 41.3233ZM76.3277 42.5062L74.5151 44.3189L73.2821 43.0859C73.2525 43.0563 73.2102 43.0594 73.1742 43.0422C74.0024 42.5923 74.8726 42.2125 75.7336 41.9125L76.3277 42.5062ZM72.7307 43.6387L72.7649 43.6729C72.6132 43.5714 72.4133 43.5668 72.279 43.7011L71.0901 44.89L70.8119 44.6136C71.3588 44.1729 71.9666 43.7558 72.6168 43.3697C72.6196 43.467 72.6556 43.564 72.7307 43.6387ZM70.2167 45.1217L70.5369 45.4418L68.7652 47.2136L68.726 47.1744C68.9728 46.6057 69.2761 46.0744 69.6808 45.64C69.843 45.4655 70.0306 45.2938 70.2167 45.1217ZM68.2261 51.1593C68.1887 51.1233 68.1386 51.1233 68.0931 51.1046C68.0463 50.2796 68.0917 49.4373 68.2525 48.6373C68.2603 48.6373 68.2666 48.6468 68.2758 48.6468C68.3759 48.6468 68.4757 48.6094 68.5522 48.5326L68.7662 48.3185L70.2115 49.7638L68.5222 51.4544L68.2261 51.1593ZM68.2821 52.5312C68.3086 52.5375 68.3304 52.5626 68.3572 52.5626C68.3995 52.5626 68.4337 52.5284 68.4743 52.5143L70.826 54.8674C70.8884 54.9298 70.9699 54.9485 71.051 54.9612L69.9181 56.094C69.476 55.5331 69.0885 54.933 68.804 54.2832C68.5758 53.7547 68.4073 53.156 68.2821 52.5312ZM83.7012 57.0562C81.6559 58.761 79.123 59.7327 76.731 59.628C74.3716 59.5592 72.0607 58.42 70.4325 56.6857L73.17 53.9482C73.323 53.7952 73.323 53.5484 73.17 53.395C73.017 53.2416 72.7698 53.242 72.6168 53.395L71.473 54.5388C71.4621 54.4577 71.4416 54.3763 71.3792 54.3139L69.0744 52.0076L70.7636 50.317L71.4448 50.9982C71.5978 51.1512 71.845 51.1512 71.998 50.9982C72.151 50.8451 72.151 50.5983 71.998 50.445L71.3168 49.7638L72.0262 49.0544C72.1792 48.9014 72.1792 48.6546 72.0262 48.5012C71.8732 48.3478 71.626 48.3482 71.473 48.5012L70.765 49.2106L69.318 47.7668L71.0897 45.995L72.8163 47.7216C72.9694 47.8746 73.2162 47.8746 73.3695 47.7216C73.5229 47.5686 73.5226 47.3218 73.3695 47.1684L71.6429 45.4418L72.8318 44.2529C72.9662 44.1186 72.9616 43.9187 72.8601 43.7671L73.9647 44.8717L73.1397 45.6968C72.9866 45.8498 72.9866 46.0969 73.1397 46.25C73.2927 46.403 73.5398 46.403 73.6929 46.25L74.5179 45.4249L74.7506 45.6576C74.9036 45.8106 75.1504 45.8106 75.3038 45.6576C75.4572 45.5046 75.4568 45.2578 75.3038 45.1044L75.0711 44.8717L76.8837 43.0591L77.7306 43.9074C77.8836 44.0604 78.1308 44.0604 78.2838 43.9074C78.4368 43.7544 78.4368 43.5076 78.2838 43.3542L76.5759 41.6449C77.4806 41.3917 78.2196 41.2465 79.3916 41.2433L79.4713 41.323L78.5243 42.27C78.3713 42.423 78.3713 42.6698 78.5243 42.8232C78.6773 42.9766 78.9241 42.9762 79.0775 42.8232L80.0245 41.8762L81.5057 43.356C81.6587 43.509 81.9055 43.509 82.0589 43.356C82.2119 43.2029 82.2119 42.9558 82.0589 42.8028L82.0466 42.7904L82.5952 42.2418L83.9921 43.6387C84.1451 43.7917 84.3923 43.7917 84.5453 43.6387C84.6046 43.5795 84.6218 43.4998 84.6345 43.4229C84.6564 43.4088 84.686 43.4134 84.7065 43.3933L84.9564 43.1434C85.1158 43.2777 85.2815 43.4074 85.4282 43.5545C87.1375 45.2733 87.9516 47.9483 87.5546 50.5356C87.1777 52.9515 85.7762 55.3265 83.7012 57.0562Z" fill="#6440FB"/>
<path d="M70.8952 63.5265C69.114 64.0187 67.575 65.6124 67.0673 67.4906C66.5655 69.342 67.0859 71.3736 68.3923 72.6672C69.3047 73.5719 70.5515 74.0564 71.7859 74.0564C72.4388 74.0564 73.0876 73.9203 73.6828 73.6393C75.5155 72.7737 76.661 70.6346 76.5295 68.3188C76.4452 66.8235 75.8779 65.4967 74.9295 64.586C73.7952 63.4969 72.3609 63.1218 70.8952 63.5265ZM71.8486 66.0609C71.9079 65.9188 71.9079 65.7594 71.7922 65.6438C71.722 65.5736 71.6283 65.5422 71.5359 65.5376L71.9703 65.1033L72.6155 65.7485L72.075 66.289L71.8486 66.0609ZM70.25 65.5673L70.7828 66.1L69.8548 67.028L69.3908 66.564C69.3626 66.5358 69.322 66.539 69.2892 66.5217C69.5657 66.1533 69.8844 65.825 70.25 65.5673ZM69.4736 71.5002C69.4673 71.5065 69.4705 71.5157 69.4641 71.522C68.9751 71.0235 68.6655 70.3518 68.5329 69.6315L69.9376 71.0362L69.4736 71.5002ZM73.0157 72.2282C72.1095 72.6549 70.9813 72.5297 70.0892 71.9906L70.5314 71.5485C70.6752 71.6063 70.7814 71.6514 70.9425 71.4906C71.0567 71.3764 71.0567 71.2188 71.0003 71.0795L71.941 70.1388C72.094 69.9858 72.094 69.7387 71.941 69.5856C71.788 69.4326 71.5412 69.4326 71.3878 69.5856L70.4894 70.484L68.9691 68.9623C68.8252 68.8184 68.6035 68.8216 68.4504 68.9482C68.4459 68.5966 68.4832 68.242 68.5756 67.8996C68.6458 67.6433 68.7646 67.401 68.8848 67.162L69.3037 67.5809L68.9099 67.9747C68.7568 68.1277 68.7568 68.3745 68.9099 68.5261C69.0629 68.6791 69.31 68.6791 69.4631 68.5261L69.8569 68.1323L71.0271 69.3025C71.1801 69.4555 71.4269 69.4555 71.5785 69.3025C71.7316 69.1495 71.7316 68.9027 71.5785 68.7493L70.4083 67.5791L71.3363 66.6511L72.1191 67.4324C72.2721 67.5854 72.5189 67.5854 72.6705 67.4324C72.8235 67.2794 72.8235 67.0326 72.6705 66.8792L72.6282 66.8369L73.1687 66.2964L73.2001 66.3278C73.3531 66.4808 73.6003 66.4808 73.7533 66.3278C73.9063 66.1748 73.9063 65.928 73.7533 65.7746L73.7219 65.7432L73.7952 65.6713C73.8125 65.6868 73.8294 65.6931 73.8467 65.7086C74.4997 66.3352 74.9094 67.3182 74.97 68.4041C75.0642 70.0704 74.2596 71.6408 73.0157 72.2282Z" fill="#6440FB"/>
<path d="M82.7424 63.9781C80.8141 64.836 79.1722 66.9218 79.8548 69.6515C80.1781 70.9437 81.0267 72.0702 82.1846 72.7423C86.6924 75.3549 91.7692 70.0126 88.8283 65.636C87.2689 63.3139 84.6485 63.1312 82.7424 63.9781ZM86.1924 65.3564L85.8596 65.6892L85.2768 65.1078C85.586 65.142 85.8938 65.2217 86.1924 65.3564ZM84.2141 65.1515L83.4984 65.8673L83.1546 65.5235C83.2279 65.4844 83.3016 65.4392 83.3764 65.4047C83.6316 65.2922 83.9172 65.2093 84.2141 65.1515ZM81.6519 69.9889L82.1363 70.4734L82.0362 70.5735C81.8878 70.3905 81.7594 70.1952 81.6519 69.9889ZM82.6878 69.9202L81.4488 68.6794C81.3987 68.6294 81.3331 68.623 81.2707 68.6061C81.2489 68.1686 81.3162 67.7606 81.452 67.3904L83.3348 69.2732L82.6878 69.9202ZM81.8391 66.6733C82.0249 66.406 82.2407 66.1638 82.4875 65.9593L82.9452 66.4169L82.264 67.0981L81.8391 66.6733ZM82.9674 71.389C82.8344 71.3125 82.716 71.2124 82.594 71.1172L82.7816 70.9296C82.8736 70.925 82.9674 70.8937 83.0379 70.8235C83.108 70.7533 83.1394 70.6595 83.144 70.5672L84.169 69.5422C84.322 69.3892 84.322 69.1424 84.169 68.989C84.1594 68.9795 84.1457 68.9827 84.1362 68.9749C84.1348 68.9735 84.1348 68.9703 84.133 68.9686L82.8143 67.6499L83.4955 66.9687L84.6457 68.1188C84.7987 68.2719 85.0455 68.2719 85.1989 68.1188C85.3519 67.9658 85.3519 67.719 85.1989 67.5674L84.0487 66.4173L84.7659 65.7001L85.305 66.2392L85.1939 66.3503C85.0409 66.5033 85.0409 66.7501 85.1939 66.9035C85.3469 67.0569 85.5937 67.0565 85.7471 66.9035L85.8582 66.7924L86.4287 67.3629C86.5817 67.5159 86.8288 67.5159 86.9819 67.3629C87.1349 67.2099 87.1349 66.9631 86.9819 66.8097L86.4114 66.2392L86.8676 65.783C87.1035 65.9797 87.3316 66.2064 87.5315 66.5047C89.5346 69.4858 86.0768 73.1921 82.9674 71.389Z" fill="#6440FB"/>
<path d="M58.4207 6.21542L41.9111 6.64663C39.8329 6.70304 36.4859 6.75276 35.3939 10.939C35.0752 12.161 35.0579 13.3905 35.0407 14.5811C34.9828 18.8544 36.4936 20.117 40.2797 20.1329C47.1109 20.1329 52.711 19.5892 58.8829 19.5892C58.9062 19.5892 58.9284 19.5878 58.9503 19.586C63.2395 19.2141 64.9333 17.7533 64.9583 12.5813C64.9787 7.91698 63.5035 6.07016 58.4207 6.21542ZM59.1802 7.76855C59.2912 7.76855 59.3974 7.77807 59.5084 7.78089L59.3505 7.93884L59.1802 7.76855ZM57.5738 7.80134L57.2114 8.16379L56.8676 7.82002L57.5738 7.80134ZM54.2973 7.8856L53.8146 8.36829L53.3569 7.91064L54.2973 7.8856ZM49.3661 8.01535L49.2941 8.08728L49.2254 8.01853L49.3661 8.01535ZM45.9379 8.10456L45.8427 8.19976L45.7521 8.10914L45.9379 8.10456ZM41.1333 10.5451L39.1676 8.57949C39.8675 8.32633 40.6598 8.25758 41.427 8.22937L42.4378 9.24022L41.1333 10.5451ZM42.4974 8.19517L43.51 8.16873L42.9914 8.68738L42.4974 8.19517ZM38.4269 8.94511L39.5597 10.0762C39.4786 10.0871 39.3957 10.1076 39.333 10.17L38.3376 11.1653L37.3642 10.1918C37.6473 9.66861 38.002 9.23423 38.4269 8.94511ZM36.6037 14.603C36.6068 14.3904 36.6114 14.1764 36.616 13.9624L37.7097 15.0561L36.6706 16.0951C36.616 15.617 36.5973 15.1121 36.6037 14.603ZM36.9065 11.3324C36.9407 11.2027 36.9908 11.087 37.0317 10.9636L37.7848 11.7168L36.6724 12.8292C36.713 12.32 36.7799 11.8155 36.9065 11.3324ZM58.8491 18.0262C52.8397 18.0294 47.2897 18.5449 40.2864 18.5699C38.5971 18.5635 37.3582 18.4807 36.8568 16.9526C36.891 16.9339 36.9333 16.9385 36.9629 16.9089L38.3176 15.5525C38.4473 15.5839 38.5333 15.6213 38.68 15.4742C38.7801 15.3741 38.7893 15.2398 38.7583 15.1118L39.1489 14.7211C39.302 14.5681 39.302 14.3213 39.1489 14.1679C38.9959 14.0149 38.7491 14.0149 38.5957 14.1679L38.2597 14.5039L37.1801 13.4243L38.3348 12.2696L39.1817 13.1165C39.3347 13.2695 39.5816 13.2695 39.7349 13.1165C39.888 12.9635 39.888 12.7167 39.7349 12.5633L38.888 11.7164L39.8834 10.7211C39.9458 10.6587 39.9662 10.5758 39.9772 10.4944L40.6069 11.1241C40.5258 11.2725 40.5226 11.4523 40.6474 11.5771C40.8004 11.7302 41.0472 11.7302 41.2006 11.5771L42.9882 9.78955L43.4476 10.2472C43.6006 10.4002 43.8474 10.4002 44.0008 10.2472C44.1538 10.0942 44.1538 9.84737 44.0008 9.694L43.5414 9.23635L44.1288 8.65036C44.2677 8.51144 44.2631 8.302 44.1493 8.14863L44.6728 8.13453L45.287 8.74873L44.3619 9.6739C44.2088 9.82692 44.2088 10.0737 44.3619 10.2253C44.5149 10.3784 44.7617 10.3784 44.9151 10.2253L45.8402 9.30016L47.1388 10.6001C47.2918 10.7532 47.539 10.7532 47.692 10.6001C47.845 10.4471 47.845 10.2003 47.692 10.0469L46.392 8.74696L47.07 8.06895L48.1482 8.04074L48.7406 8.63308L47.9688 9.4144C47.8158 9.56742 47.8158 9.81423 47.9688 9.9676C48.1218 10.121 48.3686 10.1206 48.5202 9.9676L49.2952 9.19263L51.0436 10.9411C51.1967 11.0941 51.4435 11.0941 51.5968 10.9411C51.7499 10.7881 51.7499 10.5413 51.5968 10.3896L49.8484 8.64119L50.4125 8.07706C50.4376 8.05202 50.433 8.01782 50.4485 7.98962L52.2812 7.94131L53.2638 8.92396L52.809 9.37879C52.656 9.53181 52.656 9.77862 52.809 9.93023C52.962 10.0832 53.2088 10.0832 53.3622 9.93023L53.817 9.4754L54.4404 10.0988C54.5934 10.2518 54.8406 10.2518 54.9936 10.0988C55.1466 9.94574 55.1466 9.69893 54.9936 9.54556L54.3703 8.9222L55.4234 7.86903C55.4266 7.86586 55.4248 7.86128 55.428 7.8581L55.7936 7.84858L56.661 8.71593L56.3359 9.04102C56.1829 9.19404 56.1829 9.44084 56.3359 9.59245C56.4889 9.74547 56.7357 9.74547 56.8891 9.59245L57.2142 9.26737L57.8985 9.95173C58.0516 10.1048 58.2984 10.1048 58.4517 9.95173C58.6048 9.79871 58.6048 9.55191 58.4517 9.4003L57.7674 8.71593L58.3971 8.08622L58.8019 8.49099L58.5159 8.77693C58.3629 8.92995 58.3629 9.17676 58.5159 9.33013C58.6689 9.48351 58.9157 9.48315 59.0691 9.33013L59.3551 9.04278L59.7581 9.44578C59.9111 9.5988 60.1579 9.5988 60.3113 9.44578C60.4643 9.29276 60.4643 9.04595 60.3113 8.89258L59.9083 8.48958L60.5334 7.86445C63.0614 8.22549 63.4147 9.80506 63.402 12.5753C63.377 16.8637 62.3287 17.7216 58.8491 18.0262Z" fill="#6440FB"/>
<path d="M47.0641 51.845L47.1752 51.734C47.3282 51.5809 47.3282 51.3341 47.1752 51.1808C47.0222 51.0274 46.7754 51.0277 46.622 51.1808L46.5127 51.2901L45.7236 50.501C45.5706 50.348 45.3238 50.348 45.1704 50.501C45.0174 50.654 45.0174 50.9008 45.1704 51.0542L45.9595 51.8433L44.2438 53.5589L42.1065 51.4216L43.9142 49.6139C44.0672 49.4609 44.0672 49.2141 43.9142 49.0607C43.7611 48.9077 43.5143 48.9077 43.361 49.0607L41.5533 50.8684L40.908 50.2231C40.755 50.0701 40.5082 50.0701 40.3548 50.2231C40.2018 50.3762 40.2018 50.623 40.3548 50.7764L41.0001 51.4216L40.1218 52.2999L38.4639 50.642C38.3109 50.489 38.0641 50.489 37.9107 50.642C37.7574 50.795 37.7577 51.0418 37.9107 51.1952L39.5686 52.8531L37.6093 54.8124L36.9281 54.1312C36.7751 53.9781 36.5283 53.9781 36.3767 54.1312C36.2236 54.2842 36.2236 54.531 36.3767 54.6844L37.0578 55.3656L35.9705 56.4529L33.7891 54.2733C33.636 54.1202 33.3892 54.1202 33.2359 54.2733C33.0828 54.4263 33.0828 54.6731 33.2359 54.8247L35.4173 57.0061L33.6392 58.7842C33.4862 58.9372 33.4862 59.184 33.6392 59.3374C33.7157 59.4139 33.8159 59.4516 33.9156 59.4516C34.0158 59.4516 34.1156 59.4143 34.1921 59.3374L35.9701 57.5593L38.8296 60.4188C38.9061 60.4953 39.0062 60.533 39.106 60.533C39.2061 60.533 39.3059 60.4956 39.3824 60.4188C39.5354 60.2657 39.5354 60.0186 39.3824 59.8656L39.1934 59.6766C39.2139 59.6625 39.2417 59.6671 39.2608 59.6484L41.9044 57.0029L44.4201 59.5186C44.4966 59.5951 44.5968 59.6329 44.6965 59.6329C44.7967 59.6329 44.8964 59.5955 44.973 59.5186C45.126 59.3656 45.126 59.1188 44.973 58.9654L42.4573 56.4497L44.2417 54.6639L47.0246 57.4468C47.1011 57.5234 47.2013 57.5611 47.3011 57.5611C47.4012 57.5611 47.501 57.5237 47.5775 57.4468C47.7305 57.2938 47.7305 57.047 47.5775 56.8936L44.7945 54.1107L46.5102 52.3951L47.557 53.4436C47.5147 53.4919 47.4728 53.542 47.4319 53.5935C47.2958 53.7592 47.3208 54.0074 47.4883 54.1435C47.5602 54.2013 47.6476 54.2309 47.7351 54.2309C47.8493 54.2309 47.9618 54.1826 48.0383 54.0857C48.0961 54.0155 48.1554 53.9482 48.2132 53.8808L48.3912 53.6714C48.5178 53.5166 48.5069 53.2903 48.3648 53.1478L47.0641 51.845ZM41.9066 55.8983L41.6065 55.5983C41.4535 55.4452 41.2067 55.4452 41.0533 55.5983C40.8999 55.7513 40.9003 55.9981 41.0533 56.1515L41.3534 56.4515L38.7097 59.0952C38.691 59.1139 38.6956 59.1407 38.6815 59.1625L36.5237 57.0047L37.611 55.9173L39.2252 57.5315C39.3017 57.608 39.4018 57.6457 39.5016 57.6457C39.6017 57.6457 39.7015 57.6083 39.778 57.5315C39.931 57.3784 39.931 57.1313 39.778 56.9783L38.1639 55.3641L40.1232 53.4048L41.4076 54.6893C41.4842 54.7658 41.5843 54.8035 41.6841 54.8035C41.7842 54.8035 41.884 54.7662 41.9605 54.6893C42.1135 54.5363 42.1135 54.2895 41.9605 54.1361L40.6746 52.8516L41.5529 51.9734L43.6903 54.1107L41.9066 55.8983Z" fill="#6440FB"/>
</svg>
