<svg width="120" height="86" viewBox="0 0 120 86" fill="none" xmlns="http://www.w3.org/2000/svg">
<path d="M68.5351 10.9973C69.2776 9.72041 69.1688 8.20167 68.2576 7.1273C66.7144 5.30857 63.617 5.79794 62.5464 8.51292C62.162 9.48229 62.1732 10.4404 62.5745 11.2148C63.6845 13.3541 67.1776 13.3298 68.5351 10.9973ZM64.2901 9.20291C64.8451 7.79293 66.2213 7.62793 66.8288 8.34229C67.1251 8.69104 67.3257 9.34916 66.9151 10.0542C66.3019 11.1079 64.667 11.1735 64.2376 10.3523C64.0951 10.0767 64.1138 9.64729 64.2901 9.20291Z" fill="#6440FB"/>
<path d="M70.9066 9.71885C71.5179 12.9869 76.1472 13.4032 77.246 10.1707C77.7091 8.8076 77.4072 7.56636 76.421 6.76762C75.3091 5.86762 73.5185 5.757 72.2566 6.50699C71.141 7.17074 70.6498 8.34261 70.9066 9.71885ZM73.2166 8.11761C73.8054 7.76699 74.7354 7.81386 75.2416 8.22636C75.3747 8.33323 75.7797 8.66135 75.4722 9.56885C75.0128 10.9226 73.0141 10.7801 72.7516 9.37385C72.6391 8.78135 72.791 8.37073 73.2166 8.11761Z" fill="#6440FB"/>
<path d="M78.8272 9.71885C79.4441 13.0244 84.0959 13.3207 85.1666 10.1707C85.6297 8.8076 85.3278 7.56636 84.3416 6.76762C83.2278 5.86762 81.4409 5.757 80.1772 6.50699C79.0616 7.17074 78.5685 8.34261 78.8272 9.71885C78.8253 9.71885 78.8253 9.71885 78.8272 9.71885ZM81.1372 8.11761C81.7278 7.76699 82.6578 7.81386 83.1622 8.22636C83.2953 8.33323 83.7003 8.66135 83.3928 9.56885C82.9391 10.9057 80.9385 10.7913 80.6722 9.37385C80.5597 8.78135 80.7116 8.37073 81.1372 8.11761Z" fill="#6440FB"/>
<path d="M117.416 25.2207C117.416 25.2207 117.885 24.6376 118.496 23.5051C122.533 15.7576 117.829 7.68771 111.431 5.40022C103.035 2.3815 93.8177 8.65895 93.5965 18.0039C93.4971 21.8363 95.1658 25.7288 97.9464 28.1569C100.232 30.1763 102.977 31.1119 106.238 30.6807C106.643 32.7469 105.596 35.1056 103.725 36.0825C101.713 37.1325 99.5402 36.7519 94.1121 37.1812C93.199 37.2544 92.2765 37.3256 90.4334 37.3987C90.6659 30.855 90.7652 24.3151 90.7109 17.7976C90.5834 2.34775 84.6509 -0.522855 73.1741 0.0715153L39.28 1.80775C31.3544 2.21275 28.8982 4.7946 29.067 12.7802C29.1438 16.4101 29.0876 26.5069 29.0238 37.4156C24.5145 37.2487 26.1101 37.0837 21.0026 36.9187C19.4408 36.8681 17.6727 36.81 16.2758 36.0806C14.4064 35.1056 13.3602 32.7506 13.7614 30.6863C25.5945 32.25 31.5476 14.897 20.7026 7.14396C12.1865 1.02963 0.750921 6.82896 0.0328018 16.6258C-0.205321 19.8282 0.91217 23.0363 2.58466 25.2188C4.81214 28.305 7.97524 29.3757 11.9258 30.3319C11.3671 33.2025 12.7921 36.3787 15.4077 37.7456C17.1833 38.6737 19.1802 38.7375 20.9426 38.7937C26.007 38.9606 24.357 39.1237 29.0145 39.2925C28.9976 42.2324 28.9807 45.253 28.9638 48.2493C25.3489 48.5043 26.8863 48.7405 22.3695 48.9805C20.472 49.0818 18.3233 49.198 16.4277 50.1955C13.5814 51.6955 12.0121 55.0705 12.5408 58.2073C5.30151 58.4079 0.454674 64.3741 0.0328018 70.1472C-0.139697 72.4703 0.370299 74.8478 1.51217 77.0397C3.13215 80.034 5.20401 81.8565 8.97836 83.0152C13.2233 84.324 17.3877 85.6271 22.0545 81.6803C22.0545 81.6803 22.0545 81.6784 22.0564 81.6784C28.3657 76.1603 27.6682 65.6473 20.7026 60.6692C18.8577 59.3436 16.6902 58.5486 14.4702 58.2898C13.8664 55.8561 15.0758 53.0305 17.3014 51.8586C18.8333 51.0505 20.7645 50.9474 22.4689 50.8574C27.0363 50.6136 25.7314 50.3661 28.9526 50.1318C28.9095 58.9179 28.8888 67.256 28.9526 72.236C29.0895 83.004 32.6538 85.5727 41.4381 85.6159L74.1041 85.7921C83.6853 85.8502 86.5934 83.0978 87.634 74.2422C88.5734 66.2454 89.2878 58.1886 89.8015 50.1149C91.4609 50.2236 92.2352 50.3305 93.0302 50.443C97.6783 51.103 100.35 50.6193 102.7 51.8567C104.923 53.0286 106.133 55.8542 105.531 58.2861C103.311 58.5467 101.143 59.3417 99.2983 60.6654C95.8821 63.1067 93.6977 67.2691 93.5965 71.5253C93.4971 75.3578 95.1658 79.2503 97.9464 81.6784C102.514 85.7152 107.117 84.219 111.191 82.9627C117.829 80.9284 120.317 74.8666 119.968 70.1491C119.606 65.2066 116.096 60.5904 111.431 58.9236C110.156 58.4642 108.812 58.2448 107.46 58.2073C107.989 55.0705 106.419 51.6974 103.575 50.1974C100.753 48.7105 97.9352 49.243 93.2946 48.5868C92.4958 48.4743 91.6615 48.358 89.9196 48.2436C90.0959 45.2568 90.2534 42.2681 90.3715 39.2793C92.3496 39.2043 93.3077 39.1293 94.2621 39.0543C99.8083 38.6118 102.109 39.0468 104.595 37.7494C107.213 36.3825 108.636 33.2044 108.077 30.3319C114.12 28.875 115.759 27.3769 117.416 25.2207ZM1.90216 16.7645C2.51341 8.41145 12.2765 3.39774 19.6095 8.66832C25.0414 12.5514 26.3351 20.7451 21.6345 25.9388C20.4364 23.8407 19.3564 22.2957 17.6783 20.7601C17.9445 20.4526 18.1827 20.1264 18.3777 19.772C19.6245 17.5239 19.2627 14.5145 17.5152 12.617C13.2271 7.97083 5.21901 12.4052 7.1165 18.5495C5.32401 19.457 4.16152 20.9682 3.22778 22.7476C2.27528 21.0095 1.74654 18.8776 1.90216 16.7645ZM11.7196 20.8276L12.8427 19.7045L13.6264 20.4901L13.6133 20.5032C13.4802 20.6364 13.4783 20.8182 13.5364 20.9832C13.0883 21.047 12.6365 21.0639 12.1958 20.9814C12.0346 20.9495 11.879 20.8782 11.7196 20.8276ZM16.0752 18.7051C15.8914 18.5214 15.5952 18.5214 15.4114 18.7051L14.2902 19.8264L13.5046 19.0407L14.4533 18.092C14.6371 17.9083 14.6371 17.612 14.4533 17.4301C14.2696 17.2464 13.9733 17.2464 13.7896 17.4301L12.8408 18.3789L11.5883 17.1245C11.4046 16.9408 11.1083 16.9408 10.9246 17.1245C10.7408 17.3083 10.7408 17.6045 10.9246 17.7883L12.179 19.0426L10.8158 20.4057C5.28839 16.9501 11.6315 9.78019 15.8614 13.637L15.0814 14.417L14.5508 13.8864C14.3671 13.7027 14.0708 13.7027 13.8889 13.8864C13.7052 14.0702 13.7052 14.3664 13.8889 14.5483L14.6671 15.3264C14.6877 15.3658 14.6839 15.4108 14.7158 15.4445C14.7477 15.4783 14.7964 15.4726 14.8339 15.4933L15.6496 16.3089C15.7414 16.4008 15.8614 16.4458 15.9814 16.4458C16.1014 16.4458 16.2214 16.4008 16.3133 16.3089C16.497 16.1251 16.497 15.8289 16.3133 15.6451L15.7452 15.077L16.4521 14.3702C17.3333 15.6751 17.4983 17.4901 16.737 18.8626C16.3508 19.562 15.7283 20.1751 14.8377 20.6026L16.0733 19.367C16.2589 19.1851 16.2589 18.8889 16.0752 18.7051ZM4.44652 24.5176C5.24151 22.8095 6.25588 21.0882 7.93962 20.2257C9.71898 22.8095 13.2777 23.8182 16.2608 21.9676C16.857 22.4945 17.4364 23.1095 17.9858 23.8051C18.7995 24.8288 19.5983 26.1001 20.1964 27.1951C16.6358 29.8632 13.6377 28.9669 9.35898 27.6469C6.83713 26.8763 5.52651 25.8451 4.44652 24.5176ZM9.35898 81.1684C7.41275 80.5721 5.74401 79.6328 4.44652 78.039C5.24151 76.3309 6.25588 74.6097 7.93962 73.7472C9.84835 76.5203 13.4933 77.2009 16.2608 75.4891C17.8545 76.8953 19.167 78.8284 20.1964 80.7184C16.6358 83.3846 13.6283 82.4865 9.35898 81.1684ZM10.9415 74.0022L12.4808 72.4628L14.3333 74.3153C12.989 74.7709 11.939 74.5797 10.9415 74.0022ZM16.9358 71.396L16.0152 70.4753L17.097 69.3935C17.2564 70.1303 17.2283 70.8785 17.0164 71.5891C16.9939 71.5216 16.9902 71.4485 16.9358 71.396ZM16.6245 68.5385L15.3514 69.8116L13.9171 68.3754C13.7333 68.1916 13.4371 68.1916 13.2552 68.3754C13.0715 68.5591 13.0715 68.8554 13.2552 69.0391L14.6914 70.4753L13.8833 71.2835C13.6996 71.4672 13.6996 71.7635 13.8833 71.9472C14.0671 72.131 14.3633 72.131 14.5471 71.9472L15.3552 71.1391L16.2758 72.0597C16.4671 72.251 16.6508 72.2153 16.842 72.0991C16.5027 72.8472 16.2514 73.2709 15.2389 73.8897L13.1465 71.7991L13.5796 71.366C13.7633 71.1822 13.7633 70.886 13.5796 70.7022C13.3958 70.5185 13.0996 70.5185 12.9177 70.7022L12.4846 71.1353L11.9746 70.6272C11.7908 70.4435 11.4946 70.4435 11.3127 70.6272C11.129 70.811 11.129 71.1072 11.3127 71.2891L11.8227 71.7972L10.1802 73.4397C7.78399 71.2441 8.49461 67.8072 11.2302 66.5247C12.5502 65.9041 14.6296 65.7654 16.1427 67.406C16.4221 67.7097 16.6414 68.0679 16.8158 68.4466C16.7464 68.4691 16.6752 68.4879 16.6245 68.5385ZM21.6364 79.4603C20.4383 77.3622 19.3583 75.8172 17.6802 74.2816C19.7614 71.8891 19.4745 68.2647 17.517 66.1366C15.7058 64.1735 12.9215 63.6617 10.4277 64.8298C7.53087 66.1891 6.24275 69.236 7.1165 72.071C5.32401 72.9785 4.16152 74.4897 3.22778 76.2672C3.20715 76.2297 3.1884 76.1997 3.1659 76.1622C2.19279 74.2928 1.75591 72.2622 1.90029 70.2878C2.27153 65.2048 6.63088 60.0542 12.9121 60.0542C15.2764 60.0542 17.652 60.7873 19.6095 62.1935C25.0414 66.0729 26.337 74.2666 21.6364 79.4603ZM99.8045 80.7165C100.847 78.8228 102.128 76.914 103.74 75.4872C107.004 77.5084 110.481 76.0422 112.061 73.7453C113.741 74.6059 114.759 76.3272 115.554 78.039C114.234 79.6628 112.494 80.6003 110.468 81.2209C106.283 82.5184 103.33 83.3565 99.8045 80.7165ZM110.674 72.3935C110.651 72.3203 110.646 72.2435 110.588 72.1872L110.023 71.6247L111.234 70.4135C111.249 70.3985 111.246 70.3741 111.259 70.3572C111.257 70.5241 111.263 70.6891 111.238 70.8653C111.169 71.3322 111.036 71.7597 110.829 72.1553C110.788 72.2397 110.723 72.311 110.674 72.3935ZM110.678 69.7066L109.695 68.7241L110.484 67.9347C110.858 68.4372 111.126 69.0429 111.223 69.7422C111.069 69.5997 110.854 69.6035 110.678 69.7066ZM109.033 68.0622L108.311 67.3385C108.128 67.1547 107.831 67.1547 107.648 67.3385C107.464 67.5222 107.464 67.8185 107.648 68.0022L108.542 68.8966C108.563 68.9772 108.574 69.0616 108.636 69.1235C108.698 69.1854 108.782 69.1985 108.863 69.2172L109.986 70.3403L109.363 70.9628L108.047 69.6466C107.863 69.4629 107.567 69.4629 107.385 69.6466C107.201 69.8304 107.201 70.1266 107.385 70.3103L108.701 71.6266L107.715 72.6128C107.531 72.7966 107.531 73.0928 107.715 73.2766C107.899 73.4603 108.195 73.4603 108.379 73.2766L109.365 72.2903L109.929 72.8528C110.021 72.9447 110.141 72.9897 110.261 72.9897C110.278 72.9897 110.289 72.9728 110.306 72.971C109.794 73.6009 109.116 74.0603 108.375 74.3209L106.241 72.1872L107.333 71.096C107.516 70.9122 107.516 70.616 107.333 70.4322C107.149 70.2485 106.853 70.2485 106.671 70.4322L105.328 71.7728C105.291 71.7935 105.246 71.7878 105.214 71.8197C105.182 71.8516 105.188 71.8966 105.167 71.9341L103.898 73.2035C103.654 72.9522 103.435 72.6841 103.268 72.3822C102.415 70.8447 102.673 68.7072 103.868 67.4097C105.497 65.6454 108.114 65.7091 109.858 67.2447L109.033 68.0622ZM105.574 72.8472L107.267 74.5403C106.354 74.5891 105.424 74.3284 104.623 73.7978L105.574 72.8472ZM118.099 70.2841C118.245 72.2585 117.806 74.2909 116.841 76.1453C116.816 76.1884 116.796 76.2203 116.771 76.2634C115.834 74.4822 114.671 72.9728 112.883 72.0672C114.778 65.9416 106.789 61.4735 102.482 66.1366C100.736 68.0341 100.376 71.0416 101.621 73.2878C101.818 73.6422 102.055 73.9722 102.323 74.2778C100.645 75.8134 99.5627 77.364 98.3664 79.4584C96.4877 77.3847 95.3964 74.4634 95.4733 71.5703C95.5596 67.8916 97.4439 64.2973 100.393 62.1879C102.349 60.7835 104.725 60.0485 107.089 60.0485C108.351 60.0485 109.609 60.2567 110.799 60.6842C114.788 62.1129 117.789 66.0598 118.099 70.2841ZM56.2092 2.81649L55.9618 3.06399L55.7386 2.84087L56.2092 2.81649ZM52.1518 3.44461L51.7524 3.04524L52.5943 3.00212L52.1518 3.44461ZM45.9775 5.19773L44.2112 3.43149L46.2418 3.32649C46.2474 3.43899 46.285 3.55149 46.3712 3.63774L46.9543 4.22086L45.9775 5.19773ZM47.3293 3.27212L47.9349 3.24024L47.6162 3.55899L47.3293 3.27212ZM39.3756 3.67899L42.2294 3.53274L40.3356 5.42647L38.6331 3.72399C38.8806 3.70899 39.1281 3.69211 39.3756 3.67899ZM36.2838 3.99024L34.9619 5.3121L34.2382 4.58835C34.8663 4.31461 35.5544 4.12148 36.2838 3.99024ZM33.3775 5.05148L34.3 5.97397L32.8019 7.47208C32.6182 7.65583 32.6182 7.95208 32.8019 8.13583C32.9857 8.31958 33.2819 8.31958 33.4657 8.13583L34.9638 6.63771L36.6569 8.33083C36.8406 8.51458 37.1369 8.51458 37.3206 8.33083C37.5044 8.14708 37.5044 7.85083 37.3206 7.66708L35.6257 5.97584L37.2606 4.33898C37.3994 4.20023 37.3975 4.00711 37.3281 3.83836C37.3563 3.83461 37.3825 3.83086 37.4088 3.82711L39.6719 6.09022L38.8975 6.86459C38.7138 7.04834 38.7138 7.34458 38.8975 7.52646C39.0813 7.71021 39.3775 7.71021 39.5613 7.52646L40.3356 6.75209L40.6525 7.06896C40.8362 7.25271 41.1325 7.25271 41.3162 7.06896C41.5 6.88521 41.5 6.58896 41.3162 6.40709L40.9994 6.09022L43.2493 3.84023C43.2568 3.83086 43.255 3.81774 43.2625 3.81024L45.4937 6.04147C45.505 6.05272 45.5237 6.04897 45.5368 6.06022C45.5593 6.11834 45.5612 6.18584 45.6081 6.23272C45.7918 6.41647 46.0881 6.41647 46.2718 6.23272L47.6181 4.88835L49.2362 6.50647C49.4199 6.69021 49.7162 6.69021 49.898 6.50647C50.0818 6.32272 50.0818 6.02647 49.898 5.84272L48.2799 4.22461L49.1087 3.39586C49.1687 3.33586 49.1781 3.25524 49.1987 3.17837L50.4924 3.11274L51.4899 4.11023L50.7924 4.80773C50.6087 4.99148 50.6087 5.28772 50.7924 5.4696C50.9762 5.65335 51.2724 5.65335 51.4562 5.4696L52.1649 4.76085C52.3862 4.94648 52.6318 4.90523 52.7893 4.74585C52.9618 4.57336 52.958 4.30523 52.8043 4.12148L53.993 2.93274L54.4805 2.90837L55.3018 3.72961L54.9849 4.04648C54.8011 4.23023 54.8011 4.52648 54.9849 4.70835C55.1686 4.8921 55.4649 4.8921 55.6486 4.70835L55.9655 4.39148L56.1211 4.54711C56.3049 4.73085 56.6011 4.73085 56.7849 4.54711C56.9686 4.36336 56.9686 4.06711 56.7849 3.88336L56.6255 3.72774L57.4261 2.92712C57.4749 2.87837 57.4749 2.81274 57.4992 2.75274L73.2716 1.94463C83.2859 1.43275 88.1328 3.58712 88.7515 15.0995L33.5219 15.3808C33.8707 15.1989 33.8407 14.8595 33.6475 14.6664L32.6576 13.6764L34.51 11.8239L34.9769 12.2908C35.1607 12.4745 35.4569 12.4745 35.6407 12.2908C35.8244 12.107 35.8244 11.8108 35.6407 11.627L35.1738 11.1602L36.865 9.46894C37.3 9.03395 36.6419 8.36645 36.2013 8.8052L34.51 10.4964L31.5007 7.49083C31.9563 6.24022 32.5451 5.59897 33.3775 5.05148ZM30.9326 11.9533C30.9251 10.7683 30.9813 9.59457 31.2063 8.52395L33.8425 11.1602L31.9901 13.0127L30.9326 11.9533ZM31.3282 13.6745L30.9626 14.0402C30.9588 13.7758 30.9569 13.5264 30.9532 13.2977L31.3282 13.6745ZM30.9719 15.3564L31.9919 14.3383L32.9819 15.3283C33.0176 15.3639 33.0682 15.3601 33.1113 15.3826L30.9719 15.3939C30.9719 15.3789 30.9719 15.3676 30.9719 15.3564ZM49.0468 83.7784L49.9562 82.869L50.8749 83.7877L49.0468 83.7784ZM58.3599 80.889L60.908 83.4371L60.5048 83.8402L57.083 83.8215C57.1842 83.6434 57.188 83.4221 57.0361 83.2702L56.5055 82.7396L58.3599 80.889ZM66.711 78.9615L69.3679 81.6184L67.461 83.5252L64.8042 80.8684L66.711 78.9615ZM70.0298 82.2803L71.5223 83.7727C71.6085 83.859 71.721 83.8965 71.8335 83.9021L68.4267 83.8834L70.0298 82.2803ZM66.4823 83.8721L62.033 83.8477C62.1117 83.754 62.1511 83.6415 62.1455 83.5252L64.1404 81.5303L66.4823 83.8721ZM56.258 83.8177L55.4349 83.814L55.8436 83.4052L56.258 83.8177ZM73.941 83.9134L71.8729 83.9021C71.9854 83.8965 72.0979 83.859 72.1841 83.7727C72.3679 83.589 72.3679 83.2927 72.1841 83.109L70.6916 81.6165L73.026 79.2822L77.1922 83.4484C77.376 83.6321 77.6722 83.6321 77.856 83.4484C78.0397 83.2646 78.0397 82.9684 77.856 82.7846L73.6897 78.6184L76.3991 75.9091L78.4128 77.9228L76.1741 80.1615C75.9903 80.3453 75.9903 80.6415 76.1741 80.8253C76.3578 81.009 76.6541 81.009 76.8378 80.8253L79.0766 78.5865L80.2878 79.7978L77.9966 82.089C77.8128 82.2728 77.8128 82.569 77.9966 82.7527C78.1803 82.9365 78.4766 82.9365 78.6603 82.7527L80.9516 80.4615L82.3034 81.8115C82.3953 81.9034 82.5153 81.9484 82.6353 81.9484C82.7384 81.9484 82.8359 81.8978 82.9222 81.8303C80.7716 83.7746 77.3891 83.9302 73.941 83.9134ZM79.7384 77.9247L81.1091 76.554L82.5603 78.0053C82.3841 77.9153 82.1741 77.9115 82.0259 78.0578L80.9478 79.134L79.7384 77.9247ZM83.0291 81.7421C83.0122 81.759 82.9897 81.7703 82.9728 81.7871C83.1359 81.6034 83.1378 81.3259 82.9615 81.1496L81.6097 79.7978L82.6878 78.7215C82.8359 78.5734 82.8322 78.3634 82.7403 78.1872L83.2934 78.7403C83.4772 78.924 83.7734 78.924 83.9572 78.7403C84.1409 78.5565 84.1409 78.2603 83.9572 78.0765L81.7728 75.8922L83.9478 73.7191L84.4203 74.1916C84.604 74.3753 84.9003 74.3753 85.084 74.1916C85.2678 74.0078 85.2678 73.7116 85.084 73.5278L84.5553 72.9991C84.6115 72.836 84.6078 72.656 84.4765 72.5266C84.3453 72.3953 84.1672 72.3916 84.004 72.4478L82.0859 70.5278C81.9022 70.3441 81.6059 70.3441 81.4222 70.5278C81.2384 70.7116 81.2384 71.0078 81.4222 71.1916L83.2859 73.0553L81.1128 75.2284L79.9447 74.0603C79.7609 73.8766 79.4647 73.8766 79.281 74.0603C79.0972 74.2441 79.0972 74.5403 79.281 74.7241L80.4491 75.8922L79.0785 77.2628L77.0647 75.2491L78.3435 73.9703C78.5272 73.7866 78.5272 73.4903 78.3435 73.3066C78.1597 73.1228 77.8635 73.1228 77.6797 73.3066L73.0297 77.9565L71.4885 76.4153C71.3048 76.2315 71.0085 76.2315 70.8248 76.4153C70.641 76.599 70.641 76.8953 70.8248 77.079L72.3679 78.6203L70.0335 80.9546L67.3767 78.2978L68.9423 76.7322C69.126 76.5484 69.126 76.2522 68.9423 76.0684C68.7585 75.8847 68.4623 75.8847 68.2785 76.0684L64.1442 80.2028L62.9236 78.9822C62.7398 78.7984 62.4436 78.7984 62.2598 78.9822C62.0761 79.1659 62.0761 79.4622 62.2598 79.6459L63.4804 80.8665L61.5736 82.7734L59.0255 80.2253L61.5473 77.7034C61.7311 77.5197 61.7311 77.2234 61.5473 77.0397C61.3636 76.8559 61.0673 76.8559 60.8836 77.0397L58.1592 79.764C58.0974 79.7865 58.028 79.7884 57.9774 79.839C57.9267 79.8896 57.9249 79.9571 57.9024 80.0209L55.8455 82.0778L54.0361 80.2684C53.8524 80.0846 53.5561 80.0846 53.3724 80.2684C53.1886 80.4521 53.1886 80.7484 53.3724 80.9321L55.1818 82.7415L54.1224 83.8009C54.1205 83.8027 54.1224 83.8046 54.1205 83.8046L52.1462 83.7934C52.1255 83.7577 52.1312 83.7146 52.1012 83.6846L50.6199 82.2034L53.333 79.4884C53.5168 79.3046 53.5168 79.0084 53.333 78.8247C53.1493 78.6409 52.853 78.6409 52.6712 78.8247L49.9562 81.5396L49.538 81.1215C49.3543 80.9378 49.0581 80.9378 48.8743 81.1215C48.6906 81.3053 48.6906 81.6015 48.8743 81.7853L49.2924 82.2034L48.1243 83.3715C48.0137 83.4821 47.9931 83.6284 48.0156 83.7709L41.4475 83.7352C33.9494 83.6959 30.9551 82.1471 30.8276 72.206C30.7638 67.1754 30.7863 58.6967 30.8294 49.798C31.2794 49.3986 31.2438 48.7761 30.8369 48.4086C30.8969 36.6806 30.9888 24.437 30.9776 17.2633L88.8171 16.9689C88.8228 17.2483 88.834 17.5258 88.8359 17.807C88.8903 24.4932 88.7871 31.2038 88.5396 37.9162C88.3784 38.2012 88.3521 38.4768 88.5134 38.7918C88.3878 42.0412 88.2153 45.2905 88.0203 48.538C87.7503 48.868 87.7278 49.2261 87.9546 49.5899C87.7896 52.2242 87.6021 54.8567 87.3921 57.4855C87.3303 57.5079 87.2609 57.5098 87.2103 57.5604L85.8172 58.9536L85.0765 58.2129C84.8928 58.0292 84.5965 58.0292 84.4128 58.2129C84.229 58.3967 84.229 58.6929 84.4128 58.8767L85.1572 59.6211C84.9865 59.8048 84.9846 60.0898 85.1628 60.2698C85.3334 60.4404 85.609 60.4648 85.8115 60.2754L86.4378 60.9017L84.484 62.8554C84.3153 62.786 84.124 62.786 83.9872 62.9248C83.8503 63.0616 83.8503 63.2529 83.9178 63.4217L83.6647 63.6748C83.4809 63.8585 83.4809 64.1548 83.6647 64.3385C83.8484 64.5223 84.1447 64.5223 84.3284 64.3385L84.5328 64.1341L85.4422 65.0435C85.6259 65.2273 85.9221 65.2273 86.1059 65.0435C86.2896 64.8598 86.2896 64.5635 86.1059 64.3798L85.1965 63.4704L87.0434 61.6235C86.9271 62.921 86.8053 64.2166 86.6796 65.5123C86.4959 65.381 86.2484 65.3754 86.0834 65.5404L84.319 67.3047L83.794 66.7797C83.6103 66.596 83.314 66.596 83.1303 66.7797C82.9465 66.9635 82.9465 67.2597 83.1303 67.4416L83.6553 67.9666L81.9528 69.6691C81.7691 69.8528 81.7691 70.1491 81.9528 70.331C82.1366 70.5147 82.4328 70.5147 82.6165 70.331L84.319 68.6285L85.2828 69.5922C85.4665 69.776 85.7628 69.776 85.9465 69.5922C86.1303 69.4085 86.1303 69.1122 85.9465 68.9285L84.9828 67.9647L86.6028 66.3447C86.3459 68.9079 86.0721 71.4653 85.7721 74.0153C85.4159 77.0509 84.9378 79.9215 83.0291 81.7421ZM87.169 60.3054L86.4828 59.6192L87.2909 58.8111C87.2478 59.3098 87.2121 59.8086 87.169 60.3054ZM95.4715 18.0508C95.6608 10.0127 103.56 4.56585 110.798 7.16646C116.516 9.21019 120.278 16.3689 116.771 22.7457C115.834 20.9645 114.671 19.4551 112.883 18.5495C113.76 15.7126 112.464 12.6658 109.573 11.3102C107.079 10.1402 104.299 10.6539 102.482 12.6189C100.532 14.7377 100.232 18.3601 102.321 20.762C100.643 22.2976 99.5608 23.8482 98.3646 25.9426C96.4877 23.8651 95.3965 20.9439 95.4715 18.0508ZM110.43 15.8795L110.991 15.3189C111.159 15.7389 111.257 16.2039 111.266 16.7139L110.43 15.8795ZM109.766 15.2176L109.313 14.7639C109.129 14.5802 108.833 14.5802 108.649 14.7639C108.465 14.9476 108.465 15.2439 108.649 15.4276L109.103 15.8814L108.947 16.037C108.763 16.2208 108.763 16.517 108.947 16.7008C109.131 16.8845 109.427 16.8845 109.611 16.7008L109.766 16.5451L110.348 17.1264C110.282 17.1489 110.209 17.1526 110.156 17.2051L109.256 18.1051L108.549 17.3945C108.366 17.2108 108.069 17.2108 107.886 17.3945C107.702 17.5783 107.702 17.8745 107.886 18.0583L108.594 18.767L108.013 19.3482C107.944 19.4176 107.927 19.5095 107.91 19.5995L106.768 18.4576C106.699 18.3882 106.607 18.3695 106.517 18.3526L107.432 17.4376C107.616 17.2539 107.616 16.9576 107.432 16.7739C107.248 16.5901 106.952 16.5901 106.768 16.7739L104.717 18.8251L104.475 18.5832C104.291 18.3995 103.995 18.3995 103.811 18.5832C103.628 18.767 103.628 19.0632 103.811 19.247L104.053 19.4889L103.875 19.667C102.265 17.9833 102.503 15.3639 103.86 13.8883C105.191 12.4445 107.147 12.2439 108.774 13.0052C109.397 13.2977 110.04 13.7945 110.522 14.462L109.766 15.2176ZM104.719 20.1489L105.178 20.6082C104.978 20.5126 104.792 20.3889 104.605 20.2651L104.719 20.1489ZM105.78 20.837C105.851 20.8145 105.926 20.8089 105.984 20.7526C106.168 20.5689 106.168 20.2726 105.984 20.0889L105.381 19.4851L106.001 18.8645C106.018 18.9545 106.035 19.0464 106.106 19.1157L107.927 20.9364C107.235 21.092 106.678 21.1164 105.78 20.837ZM108.894 20.582L108.426 20.1132C108.516 20.0964 108.608 20.0776 108.677 20.0082L109.258 19.427C109.446 19.6126 109.609 19.802 109.819 19.9276C109.536 20.1864 109.228 20.4095 108.894 20.582ZM110.406 19.2882C110.265 19.0932 110.106 18.9489 109.922 18.767C110.128 18.5607 110.835 17.9139 110.908 17.657C110.979 17.7133 111.062 17.747 111.146 17.7564C110.97 18.4708 110.771 18.7951 110.406 19.2882ZM99.8045 27.1951C100.843 25.3107 102.128 23.3926 103.74 21.9676C106.562 23.7151 110.186 22.9501 112.061 20.2257C113.741 21.0864 114.759 22.8057 115.554 24.5195C112.791 27.9244 104.743 30.8963 99.8045 27.1951Z" fill="#6440FB"/>
<path d="M52.2898 23.6395C52.2879 23.6395 52.2879 23.6395 52.2898 23.6395L50.4242 23.6358C48.8117 23.6358 47.1955 23.6358 45.4273 23.5476C41.5105 23.3526 39.5099 24.532 39.4499 30.0182L39.3955 34.9344C39.3524 38.765 40.723 39.755 43.7024 39.6819L49.9761 39.5244C53.6379 39.4306 54.8266 38.0544 55.166 34.3513L55.7529 27.9482C56.0435 24.7195 54.8191 23.662 52.2898 23.6395ZM53.2967 34.1788C53.0229 37.1638 52.3892 37.5857 49.9273 37.6475L43.6536 37.805C41.7505 37.8519 41.2386 37.6775 41.2686 34.9532L41.323 30.037C41.3755 25.3814 42.7199 25.2895 45.5023 25.4282C47.1355 25.507 48.7817 25.5089 50.4242 25.5089C54.8285 25.522 54.1798 24.517 53.2967 34.1788Z" fill="#6440FB"/>
<path d="M75.0404 23.5214L68.7686 23.6789C65.0861 23.7727 63.9161 25.1752 63.5786 28.8539L62.9918 35.257C62.5624 39.9763 65.4574 39.5582 68.3505 39.5676C69.9517 39.5676 71.5548 39.5676 73.3079 39.6538C77.1854 39.8413 79.231 38.7051 79.291 33.1832L79.3454 28.2689C79.3904 24.4889 78.0704 23.4502 75.0404 23.5214ZM77.4179 33.1626C77.3654 37.8182 76.021 37.9138 73.2386 37.7713C71.6167 37.6926 69.9836 37.6926 68.3523 37.6907C65.0936 37.6813 64.623 38.0076 64.8592 35.4257L65.4461 29.0227C65.7199 26.0433 66.3499 25.6139 68.8155 25.5521L75.0873 25.3946C77.1723 25.3364 77.5004 25.7114 77.4704 28.2464L77.4179 33.1626Z" fill="#6440FB"/>
<path d="M52.2898 46.0423C52.2879 46.0423 52.2879 46.0423 52.2898 46.0423C49.0386 46.033 47.4523 46.048 45.4273 45.9505C41.503 45.7517 39.5099 46.948 39.4499 52.421L39.3955 57.3373C39.3524 61.1697 40.7268 62.1578 43.7024 62.0847L49.9761 61.9272C53.6379 61.8335 54.8266 60.4572 55.166 56.7541L55.7529 50.3511C56.0435 47.1223 54.8191 46.063 52.2898 46.0423ZM53.8817 50.1767L53.2948 56.5798C53.021 59.5647 52.3873 59.9866 49.9254 60.0485L43.6536 60.206C41.7599 60.2491 41.2386 60.0954 41.2686 57.3541L41.323 52.4379C41.3755 47.6923 42.8436 47.6961 45.5023 47.8292C47.413 47.9211 49.1829 47.9061 52.2729 47.9155C53.6229 47.9286 54.0804 48.0167 53.8817 50.1767Z" fill="#6440FB"/>
<path d="M75.0404 45.9213L68.7686 46.0788C65.0861 46.1726 63.9161 47.5751 63.5786 51.2538L62.9918 57.6569C62.5643 62.3575 65.4311 61.9581 68.3505 61.9675C69.9517 61.9675 71.5548 61.9675 73.3079 62.0537C77.1854 62.2412 79.231 61.1031 79.291 55.5831L79.3454 50.6688C79.3904 46.8888 78.0704 45.8501 75.0404 45.9213ZM77.4179 55.5625C77.3654 60.2181 76.021 60.3137 73.2386 60.1712C71.6167 60.0925 69.9836 60.0925 68.3523 60.0906C65.2211 60.0812 64.6192 60.4506 64.8592 57.8256L65.4461 51.4226C65.7199 48.4432 66.3499 48.0157 68.8155 47.952L75.0873 47.7945C77.0091 47.7438 77.5023 47.9407 77.4704 50.6463L77.4179 55.5625Z" fill="#6440FB"/>
<path d="M72.1094 27.5133L69.4582 30.1645L68.7832 29.4895C68.5994 29.3058 68.3032 29.3058 68.1194 29.4895C67.9357 29.6733 67.9357 29.9695 68.1194 30.1533L68.7944 30.8283L67.257 32.3658C67.0732 32.5495 67.0732 32.8458 67.257 33.0295C67.4407 33.2133 67.7369 33.2133 67.9188 33.0295L69.4563 31.492L70.5176 32.5533L68.2151 34.8557C68.0313 35.0395 68.0313 35.3357 68.2151 35.5195C68.3988 35.7032 68.6951 35.7032 68.8788 35.5195L71.1813 33.217L71.3894 33.4251C71.5732 33.6089 71.8694 33.6089 72.0532 33.4251C72.2369 33.2414 72.2369 32.9451 72.0532 32.7614L71.845 32.5533L72.6175 31.7808C72.8013 31.597 72.8013 31.3008 72.6175 31.117C72.4338 30.9333 72.1375 30.9333 71.9538 31.117L71.1813 31.8895L70.1201 30.8283L72.7713 28.177C72.955 27.9933 72.955 27.697 72.7713 27.5133C72.5894 27.3296 72.2913 27.3296 72.1094 27.5133Z" fill="#6440FB"/>
<path d="M48.5508 27.7902L47.4727 28.8683L47.0377 28.4333C46.854 28.2496 46.5577 28.2496 46.374 28.4333C46.1902 28.6171 46.1902 28.9133 46.374 29.0971L46.809 29.5321L46.1302 30.2108L45.5996 29.6802C45.4158 29.4964 45.1196 29.4964 44.9359 29.6802C44.7521 29.8639 44.7521 30.1602 44.9359 30.3439L45.4665 30.8746L44.0734 32.2677C43.8896 32.4514 43.8896 32.7477 44.0734 32.9314C44.2571 33.1152 44.5534 33.1152 44.7371 32.9314L46.1302 31.5383L46.3271 31.7352C46.5108 31.9189 46.8071 31.9189 46.989 31.7352C47.1727 31.5514 47.1727 31.2552 46.989 31.0714L46.7921 30.8746L47.4708 30.1958L48.0277 30.7527C48.2115 30.9364 48.5077 30.9364 48.6896 30.7527C48.8733 30.5689 48.8733 30.2727 48.6896 30.0889L48.1327 29.5321L49.2108 28.454C49.3946 28.2702 49.3946 27.974 49.2108 27.7902C49.0308 27.6083 48.7327 27.6083 48.5508 27.7902Z" fill="#6440FB"/>
<path d="M74.3617 52.0917C74.2154 52.2361 74.0467 52.4367 73.861 52.6542C73.4542 53.1342 72.841 53.8598 72.4454 53.9142C72.1248 53.9648 71.7573 53.6554 71.4161 53.2973L73.2404 51.4729C73.4242 51.2892 73.4242 50.9929 73.2404 50.8092C73.0567 50.6254 72.7604 50.6254 72.5767 50.8092L70.7861 52.5998C70.6923 52.4929 70.5948 52.3786 70.5086 52.2942C70.3248 52.1104 70.0286 52.1104 69.8448 52.2942C69.6611 52.4779 69.6611 52.7742 69.8448 52.9579C69.9311 53.0423 70.0267 53.1567 70.1204 53.2636L67.7355 55.6485C67.5517 55.8323 67.5517 56.1285 67.7355 56.3123C67.9192 56.496 68.2155 56.496 68.3992 56.3123L70.7523 53.9592C71.2154 54.4373 71.7479 54.8573 72.3761 54.8573C72.4398 54.8573 72.5073 54.8535 72.5729 54.8442C73.321 54.7392 73.9867 53.9554 74.5735 53.2617C74.7385 53.0667 74.8904 52.8867 75.0198 52.7554C75.2035 52.5717 75.2035 52.2754 75.0198 52.0917C74.8417 51.9079 74.5454 51.9079 74.3617 52.0917Z" fill="#6440FB"/>
<path d="M47.6068 54.3027L48.0418 53.8677C48.2255 53.684 48.2255 53.3877 48.0418 53.204C47.858 53.0202 47.5618 53.0202 47.378 53.204L46.943 53.639L46.2643 52.9602L48.3155 50.909C48.4993 50.7252 48.4993 50.429 48.3155 50.2452C48.1318 50.0615 47.8355 50.0615 47.6536 50.2452L45.6024 52.2965L44.7362 51.4302C44.5524 51.2465 44.2562 51.2465 44.0724 51.4302C43.8887 51.614 43.8887 51.9102 44.0724 52.094L44.9387 52.9602L43.0187 54.8802C42.8349 55.0639 42.8349 55.3602 43.0187 55.5439C43.2024 55.7277 43.4987 55.7277 43.6824 55.5439L45.6024 53.624L46.2811 54.3027L43.8812 56.7008C43.6974 56.8846 43.6974 57.1808 43.8812 57.3646C44.0649 57.5483 44.3612 57.5483 44.5449 57.3646L46.9449 54.9665L47.8224 55.8439C48.0061 56.0277 48.3024 56.0277 48.4861 55.8439C48.6699 55.6602 48.6699 55.3639 48.4861 55.1802L47.6068 54.3027Z" fill="#6440FB"/>
</svg>
