<svg width="100" height="88" viewBox="0 0 100 88" fill="none" xmlns="http://www.w3.org/2000/svg">
<path d="M91.8477 67.8252L92.9588 68.9519L94.0543 67.8565L92.3328 66.1351C92.192 65.9786 92.192 65.7282 92.3328 65.5717C92.4893 65.4309 92.7397 65.4309 92.8962 65.5717L94.6176 67.2931L94.915 66.9958C95.0715 66.8393 95.3218 66.8393 95.4783 66.9958C95.6192 67.1523 95.6192 67.387 95.4783 67.5435L95.1654 67.8565L96.6677 69.3432C96.7303 69.4214 96.7772 69.5153 96.7772 69.6092V69.6248C96.7772 69.7344 96.7303 69.8283 96.6677 69.9065C96.5112 70.0474 96.2608 70.0474 96.1043 69.9065L94.6176 68.4199L93.5222 69.4997L94.8993 70.8924C95.0558 71.0489 95.0558 71.2837 94.8993 71.4402C94.7428 71.5967 94.4924 71.5967 94.3516 71.4402L92.9588 70.063L92.8962 70.1256C92.7397 70.2821 92.4893 70.2821 92.3328 70.1256C92.1763 69.9848 92.1763 69.7344 92.3328 69.5779L92.4111 69.4997L91.2843 68.3886C91.1435 68.2321 91.1435 67.9817 91.2843 67.8252C91.4408 67.6843 91.6912 67.6843 91.8477 67.8252V67.8252Z" fill="#6440FB"/>
<path d="M59.7514 49.6253C59.3915 49.3749 59.3132 48.8897 59.548 48.5298C59.7983 48.1855 60.2835 48.0916 60.6434 48.342L71.8169 56.0884C72.2551 56.4014 72.2551 57.043 71.8326 57.3716C67.8107 60.345 64.2114 63.4905 60.127 66.5264C59.767 66.7925 59.2819 66.7142 59.0159 66.3699C58.7655 66.01 58.8437 65.5249 59.188 65.2745C62.9282 62.5046 66.2928 59.5938 70.0329 56.7613L59.7514 49.6253Z" fill="#6440FB"/>
<path d="M84.6173 12.5992L85.2589 11.9419C84.8364 11.9106 84.4138 11.895 83.9913 11.895L83.96 11.9263L84.6173 12.5992ZM85.9944 12.3175L85.1806 13.1469L85.5719 13.5381L86.4013 12.7244L85.9944 12.3175ZM81.4092 13.366L82.8489 11.9263L82.8333 11.9106L81.0492 11.9419C81.0805 12.0828 81.0805 12.2236 80.971 12.3332L80.6737 12.6305L81.4092 13.366ZM80.1259 12.0671L80.2355 11.9732H80.032L80.1259 12.0671ZM76.3858 12.3958L76.7301 12.0515L76.0571 12.0671L76.3858 12.3958ZM72.5674 12.4583L72.896 12.1297L72.2544 12.1454L72.5674 12.4583ZM68.9368 12.8809L69.6097 12.208L68.2795 12.2236L68.9368 12.8809ZM65.8695 12.1767C65.6661 12.161 65.4157 12.1454 65.1809 12.1454L64.9149 12.3958L65.5722 13.0374L66.4172 12.208C66.2294 12.1923 66.0573 12.1767 65.8695 12.1767V12.1767ZM60.7835 12.1454L62.3641 13.7259C62.411 13.7885 62.4267 13.8511 62.4423 13.9294C62.4423 13.8355 62.4893 13.7416 62.5519 13.6633L63.8195 12.3958L63.4908 12.0828C62.5519 12.0671 61.8633 12.0515 60.7835 12.1454ZM58.6865 13.0687L59.4064 12.3332C58.9995 12.4114 58.6083 12.5209 58.2796 12.6618L58.6865 13.0687ZM58.7961 14.2893L57.5598 13.053C57.1529 13.3504 56.8869 13.7259 56.8399 14.2267C56.8243 14.4458 56.8556 14.6805 56.9025 14.8996L57.5598 15.5412L58.7961 14.2893ZM59.3594 14.8527L58.1075 16.1046L58.4674 16.4645C58.5613 16.5741 58.577 16.7149 58.53 16.8401C59.4533 17.3566 60.5175 17.5913 61.566 17.7321C64.9149 18.2016 85.1024 18.7806 87.3402 17.9356C90.1258 16.8714 90.3918 13.9607 87.6532 12.5522L87.4967 12.7087L88.4513 13.6633C88.5922 13.8042 88.5922 14.0546 88.4513 14.2111C88.2948 14.3676 88.0444 14.3676 87.888 14.2111L86.949 13.2721L86.1196 14.0859L86.1352 14.1015C86.5108 14.4771 85.9475 15.0248 85.5875 14.6649L84.6173 13.6946L84.0226 14.305C83.8661 14.4458 83.6157 14.4458 83.4592 14.305C83.3184 14.1485 83.3184 13.8981 83.4592 13.7416L84.0695 13.1469L83.3966 12.474L81.6752 14.2111C81.5187 14.3676 81.2683 14.3676 81.1118 14.2111C81.0962 14.1798 81.0962 14.1485 81.0805 14.1328L80.1259 13.1782L79.0461 14.258C78.9053 14.4145 78.6549 14.3989 78.4984 14.258C78.3419 14.1015 78.3419 13.8511 78.4984 13.6946L79.5782 12.6148L78.9523 11.9889L77.8568 12.0202L76.9335 12.9435L77.2465 13.2565C77.403 13.4129 77.403 13.6633 77.2465 13.8042C77.1056 13.9607 76.8553 13.9607 76.6988 13.8042L76.3858 13.4912L75.9789 13.8981C75.8224 14.0389 75.572 14.0389 75.4312 13.8981C75.2747 13.7416 75.2747 13.4912 75.4312 13.3347L75.8224 12.9435L74.9617 12.0828L74.0227 12.0984L73.1151 13.0061L73.522 13.413C73.6785 13.5694 73.6785 13.8198 73.522 13.9607C73.3655 14.1172 73.1307 14.1172 72.9743 13.9607L72.5674 13.5538L72.1448 13.9763C71.9884 14.1328 71.738 14.1328 71.5815 13.9763C71.4406 13.8355 71.4406 13.5851 71.5815 13.4286L72.004 13.0061L71.1746 12.161L70.7521 12.1767L69.4845 13.4286L69.8757 13.8355C70.0322 13.9763 70.0322 14.2267 69.8757 14.3832C69.7192 14.5397 69.4845 14.5397 69.328 14.3832L68.9368 13.992C68.7177 14.1954 68.4829 14.1798 68.3421 14.0233C68.1856 13.8824 68.1856 13.632 68.3421 13.4755L68.3734 13.4286L67.3249 12.3801L66.1199 13.6007L66.1355 13.6164C66.292 13.7729 66.292 14.0233 66.1355 14.1641C65.9791 14.3206 65.7443 14.3206 65.5878 14.1641L65.4939 14.0859C65.4783 14.0859 65.4626 14.1015 65.447 14.1015C65.3531 14.1015 65.2435 14.0546 65.1809 13.992C65.087 13.8981 65.0714 13.7729 65.0714 13.6633L64.3672 12.9591L63.1152 14.2111C63.037 14.2893 62.9275 14.3206 62.8336 14.3206C62.724 14.3206 62.6301 14.2893 62.5519 14.2111C62.5049 14.1641 62.4893 14.0859 62.4736 14.0076C62.4736 14.1172 62.4423 14.2111 62.3641 14.2737C62.2076 14.4302 61.9572 14.4302 61.8007 14.2737L60.1888 12.6618L59.2342 13.6164L59.3594 13.7416C59.5159 13.5851 59.7663 13.5851 59.9228 13.7416C60.0637 13.8981 60.0637 14.1328 59.9228 14.2893L59.9072 14.305L60.0167 14.4145C60.1732 14.5553 60.1732 14.8057 60.0167 14.9622C59.8602 15.1187 59.6098 15.1187 59.469 14.9622L59.3594 14.8527ZM61.3469 19.2814C56.5895 18.6085 55.1185 16.1672 55.2906 14.1015C55.6193 10.0484 62.0824 10.4083 65.9478 10.6117C67.8413 10.7056 65.7756 10.7213 82.8176 10.3457C84.4451 10.3144 86.2917 10.2675 87.9662 10.9717C92.1758 12.7087 92.2541 17.7321 87.9036 19.391C85.1337 20.4551 64.555 19.7352 61.3469 19.2814V19.2814Z" fill="#6440FB"/>
<path d="M47.3263 12.1765L47.8115 11.7071L47.655 11.5506C47.6237 11.5193 47.6237 11.4723 47.608 11.4254C47.4359 11.3941 47.295 11.3315 47.1229 11.3158C46.9195 11.2845 46.7317 11.2689 46.5439 11.2689C46.4969 11.2689 46.4656 11.2845 46.4343 11.2845L47.3263 12.1765ZM44.306 12.6304L45.4954 11.441L45.4641 11.4254C44.8851 11.5662 44.353 11.8323 43.8835 12.2078L44.306 12.6304ZM43.6644 13.8197C43.5079 13.6632 43.4923 13.4441 43.7583 13.1781L43.3201 12.7399C43.0228 13.1155 42.8194 13.6945 42.7411 14.3674L44.4782 16.1045L45.4015 15.1812C45.4641 15.1186 45.5423 15.0873 45.6362 15.0716L44.306 13.7415C44.04 13.9918 43.8366 13.9918 43.6644 13.8197V13.8197ZM44.4782 17.1999L43.5705 18.1076C43.727 18.2954 43.8835 18.4519 44.0713 18.5458C44.4782 18.7492 45.0416 18.7179 45.5736 18.6553C50.5814 18.1858 51.3325 15.5724 50.2528 13.4598C50.1745 13.2876 50.0493 13.1468 49.9398 12.9903C49.9241 13.0685 49.9085 13.1311 49.8459 13.1937C49.7676 13.272 49.6737 13.3033 49.5798 13.3033C49.4703 13.3033 49.3764 13.272 49.2981 13.1937L48.3592 12.2548L47.8897 12.7243L48.2497 13.0998C48.4061 13.2563 48.4061 13.5067 48.2497 13.6632C48.0932 13.8041 47.8584 13.8041 47.7019 13.6632L47.3263 13.2876L47.2638 13.3502C47.1073 13.5067 46.8569 13.5067 46.716 13.3502C46.5595 13.1937 46.5595 12.9434 46.716 12.8025L46.7786 12.7243L46.0431 12.0044L44.8538 13.1781L46.1996 14.5083C46.3404 14.6648 46.3404 14.9152 46.1996 15.0716C46.1214 15.1342 46.0275 15.1655 45.9492 15.1812C46.1057 15.3377 46.1057 15.5724 45.9492 15.7289L45.0259 16.6522L45.3076 16.9339C45.4641 17.0904 45.4641 17.3408 45.3076 17.4816C45.1511 17.6381 44.9164 17.6381 44.7599 17.4816L44.4782 17.1999ZM42.7098 15.4316C42.7255 15.7133 42.7411 15.9949 42.7881 16.2923C42.8663 16.7148 43.0072 17.0904 43.148 17.4347L43.9305 16.6522L42.7098 15.4316ZM51.6455 12.7556C54.6815 18.6866 46.1527 21.3626 43.3514 19.9386C42.3186 19.4065 41.5518 18.1858 41.2545 16.574C40.3155 11.5506 44.087 9.31273 47.3263 9.76656C49.2199 10.0013 50.8005 11.0967 51.6455 12.7556Z" fill="#6440FB"/>
<path d="M53.1172 47.1526C53.3363 46.777 53.8215 46.6518 54.197 46.8709C54.5726 47.1056 54.6822 47.5751 54.4631 47.9507L41.4273 69.9378C41.2864 70.1726 41.0204 70.3134 40.7544 70.3134C40.6135 70.3134 40.4883 70.2821 40.3631 70.2039C39.9875 69.9848 39.8623 69.4996 40.0814 69.1241L53.1172 47.1526Z" fill="#6440FB"/>
<path d="M28.9548 17.7007L29.4712 18.2015C29.5964 18.3423 29.5964 18.5458 29.4869 18.6866C30.2694 18.7492 32.1786 18.5145 33.321 18.0137C35.4023 17.1061 35.9813 15.2438 35.0737 13.4598C34.3382 12.0357 32.7732 11.0968 30.8484 11.3158L31.6152 12.0983C31.9595 11.754 32.2725 11.3158 32.6011 11.6601C32.7576 11.8166 32.7576 12.0514 32.6011 12.2079L32.1786 12.646L32.9454 13.4128C33.0862 13.5693 33.0862 13.8197 32.9454 13.9762C32.7889 14.1171 32.5385 14.1171 32.382 13.9762L31.6152 13.1938C31.4431 13.3659 31.2083 13.3502 31.0518 13.2094C30.911 13.0529 30.911 12.8025 31.0518 12.6617L31.0675 12.646L30.5041 12.0983L29.8155 12.7869L31.5682 14.5396C31.7247 14.6961 31.7247 14.9465 31.5682 15.103C31.49 15.1656 31.3961 15.2125 31.3022 15.2125C31.3022 15.3064 31.2709 15.4003 31.1927 15.4629L30.2068 16.4488C30.2068 16.5583 30.1755 16.6679 30.0972 16.7461C30.019 16.8244 29.9251 16.8557 29.8155 16.8557C29.8155 16.8557 29.8155 16.8557 29.7999 16.8557L28.9548 17.7007ZM30.7701 14.8526L29.2522 13.3346L28.3132 14.2892C28.2819 14.3205 28.2506 14.3049 28.235 14.3205L29.7373 15.8228L30.6449 14.9152C30.6762 14.8839 30.7232 14.8839 30.7701 14.8526V14.8526ZM29.2522 12.2392L29.9564 11.5349H29.9407C29.6121 11.6445 29.2991 11.7853 29.0018 11.9731L29.2522 12.2392ZM27.0143 11.6132C29.659 8.67113 34.6511 9.20321 36.4665 12.7556C37.7653 15.2908 36.889 18.1546 33.9469 19.4534C32.5698 20.0481 29.5651 20.6428 28.1724 19.9386C27.1395 19.4065 26.3727 18.1859 26.0597 16.574C25.7624 14.9621 25.9502 12.8025 27.0143 11.6132V11.6132ZM28.188 12.6617C27.9533 12.9277 27.7968 13.3346 27.6716 13.8041C27.6872 13.8197 27.7029 13.8197 27.7185 13.8354C27.7342 13.8041 27.7342 13.7728 27.7498 13.7415L28.7044 12.7869L28.3915 12.4739C28.3289 12.5365 28.2506 12.5991 28.188 12.6617V12.6617ZM27.6246 16.3705L28.4071 17.153L29.1739 16.3862L27.5307 14.743C27.4994 15.2438 27.5151 15.7602 27.609 16.2923C27.609 16.308 27.6246 16.3392 27.6246 16.3705Z" fill="#6440FB"/>
<path d="M27.0605 57.622C30.1904 59.1556 33.0229 61.2995 35.3546 63.8817C35.6363 64.2103 35.6206 64.6954 35.292 64.9927C34.979 65.2744 34.4783 65.2588 34.1966 64.9301C31.724 62.1915 28.6411 59.9693 25.2609 58.4983C25.0105 58.3888 24.8227 58.154 24.7914 57.888C24.7601 57.6063 24.8696 57.3403 25.0887 57.1681L35.918 48.7801C36.2623 48.5141 36.7474 48.5767 37.0134 48.921C37.2795 49.2653 37.2169 49.7504 36.8726 50.0164L27.0605 57.622Z" fill="#6440FB"/>
<path d="M15.95 11.2846L16.9985 12.3331L17.6401 11.6915C16.9515 11.3785 16.4977 11.3002 15.95 11.2846ZM13.6183 12.6461L14.9015 11.3628C14.2599 11.5037 13.6652 11.7854 13.1644 12.1922L13.6183 12.6461ZM13.1018 16.9809L12.0064 15.8855C12.022 16.0263 12.022 16.1515 12.0533 16.2923C12.1472 16.7775 12.3037 17.2156 12.4915 17.5912L13.1018 16.9809ZM16.4508 12.8965L15.4649 11.9106L14.1816 13.2094L15.9187 14.9465C16.0752 15.103 16.0752 15.3534 15.9187 15.4942C15.7622 15.6507 15.5118 15.6507 15.3553 15.4942L13.6183 13.7572L13.274 14.1014C13.1175 14.2579 12.8671 14.2579 12.7262 14.1014C12.5698 13.9449 12.5698 13.7102 12.7262 13.5537L13.0705 13.2094L12.5854 12.7243C12.2411 13.1625 12.022 13.9137 11.9751 14.7431L13.6496 16.4175L14.1816 15.8855C14.3381 15.729 14.5885 15.729 14.745 15.8855C14.9015 16.0419 14.9015 16.2923 14.745 16.4332L14.1973 16.9809L14.8076 17.5756C15.1832 17.9511 14.6198 18.4989 14.2599 18.1389L13.6496 17.5286L12.9297 18.2485C13.0549 18.3737 13.1801 18.4676 13.3209 18.5458C14.8858 19.3439 21.7402 17.8103 19.518 13.4598C19.2363 12.9121 18.8294 12.4583 18.3443 12.0983L17.5462 12.8808L18 13.3346C18.1565 13.4911 18.1565 13.7415 18 13.898C17.8435 14.0388 17.5932 14.0388 17.4523 13.898L16.9985 13.4442L16.7324 13.7102C16.576 13.8667 16.3412 13.8667 16.1847 13.7102C16.0282 13.5537 16.0282 13.3033 16.1847 13.1468L16.4508 12.8965ZM12.6167 19.9386C11.5839 19.4065 10.817 18.1859 10.5041 16.574C10.2067 14.9621 10.3945 12.8026 11.4587 11.6132C14.1034 8.67116 19.0955 9.18759 20.9108 12.7556C23.9937 18.7806 15.2145 21.2688 12.6167 19.9386Z" fill="#6440FB"/>
<path d="M48.4371 85.102L47.5451 85.9784L49.2822 85.9471L48.4371 85.102ZM44.2431 84.9299L43.1477 86.0253L45.3229 85.994L44.2431 84.9299ZM40.7064 84.7891L39.4388 86.0723L41.9583 86.041L40.7064 84.7891ZM96.6211 48.2481L97.3566 48.9993L97.4035 47.4656L96.6211 48.2481ZM97.247 53.0055L97.2627 52.5047L96.9966 52.7707L97.247 53.0055ZM97.6226 39.3907L97.2627 39.7662C97.2314 39.7819 97.1844 39.7819 97.1531 39.7975L97.607 40.2514L97.6226 39.3907ZM97.5444 42.5361L96.5272 43.5377L97.4818 44.4923L97.5444 42.5361ZM96.5272 63.3496L96.934 63.7565L96.9653 62.9114L96.5272 63.3496ZM95.4787 77.2148L92.8183 79.8908L94.6493 81.7062C95.4317 80.6107 95.9168 79.3431 96.1985 77.9347L95.4787 77.2148ZM90.064 82.6295L91.3629 83.9127C91.4568 84.0066 91.4725 84.1318 91.4568 84.257C92.474 83.7875 93.3973 83.1928 94.1641 82.3478L92.2549 80.4386L90.064 82.6295ZM92.3332 74.351L89.8136 76.8705L92.2706 79.3275L94.9309 76.6671L94.1798 75.9159L93.0687 77.0114C92.9122 77.1679 92.6618 77.1679 92.521 77.0114C92.3645 76.8549 92.3645 76.6045 92.521 76.4637L93.6164 75.3526L92.4114 74.1476C92.3958 74.2102 92.3801 74.2884 92.3332 74.351V74.351ZM87.0594 79.6092L89.5163 82.0661L91.7072 79.8752L89.2503 77.4183L87.0594 79.6092ZM85.1032 77.653L86.5117 79.0614L88.7026 76.8705L87.2941 75.4778L85.1032 77.653ZM82.302 80.4386L83.7105 81.847L85.9483 79.6092L84.5399 78.2007L82.302 80.4386ZM76.5588 81.0489L78.5775 83.0676L81.2066 80.4386L79.1878 78.4198L76.5588 81.0489ZM77.1221 85.6341L82.881 85.5715C85.6823 85.5402 88.5148 85.3837 90.8778 84.4917C90.8621 84.4917 90.8309 84.4917 90.8152 84.4761L86.5117 80.1725L84.2738 82.4104L86.3239 84.4604C86.4804 84.6169 86.4804 84.8516 86.3239 85.0081C86.1674 85.1646 85.917 85.1646 85.7762 85.0081L83.7261 82.9737L82.5211 84.1631C82.3646 84.3196 82.1142 84.3196 81.9577 84.1631C81.8012 84.0222 81.8012 83.7719 81.9577 83.6154L83.1627 82.4104L81.7543 81.0019L79.1252 83.631L80.2207 84.7265C80.3772 84.8829 80.3772 85.1333 80.2207 85.2742C80.0642 85.4307 79.8138 85.4307 79.673 85.2742L78.5775 84.1944L77.1221 85.6341ZM98.4207 11.1282C98.6085 4.35205 97.0123 2.302 89.6728 2.16115C64.947 1.69168 39.8457 1.50389 15.1199 1.58213C5.63649 1.61343 4.21241 4.50854 4.02462 11.3003C3.94638 14.3206 3.69599 19.8917 3.383 26.6522L97.9982 26.261L98.4207 11.1282ZM72.8186 84.8047L71.9109 85.6967L75.9954 85.6498L78.0141 83.631L75.9954 81.6123L73.3663 84.2413L73.914 84.7891C74.0705 84.9455 74.0705 85.1959 73.914 85.3524C73.7732 85.4933 73.5228 85.4933 73.3663 85.3524L72.8186 84.8047ZM67.9517 83.8814L69.4384 85.3681C69.5323 85.4776 69.5479 85.6028 69.5323 85.728L71.0502 85.6967C71.0346 85.5715 71.0502 85.4463 71.1441 85.3524L72.2552 84.2413L69.9391 81.9096L67.9517 83.8814ZM67.404 84.4448L66.0894 85.7593L68.6872 85.728L67.404 84.4448ZM63.4291 83.8814L64.8062 85.2742C64.947 85.415 64.947 85.6185 64.8218 85.775H65.3226C65.2757 85.6341 65.2757 85.4776 65.3852 85.3524L66.8562 83.8814L65.3852 82.426C65.26 82.3008 65.26 82.113 65.3383 81.9722L63.4291 83.8814ZM62.8657 84.4448L61.5042 85.8062L64.2115 85.775L62.8657 84.4448ZM58.6091 85.8532L57.2476 84.4917L55.8548 85.8845L58.6091 85.8532ZM53.4292 85.9001L52.2242 84.7108L50.9879 85.9314L53.4292 85.9001ZM82.9123 87.1364L20.3468 87.8563C12.8195 87.9345 4.33761 87.3399 1.00432 80.2977C-1.62475 74.7423 1.64594 41.8006 2.4597 11.269C2.67879 3.55394 4.85403 0.0485092 15.1043 0.0172107C39.8457 -0.0610354 64.9314 0.126755 89.7041 0.596232C97.9669 0.752724 100.205 3.55394 99.9856 11.1595L98.2486 72.7078C97.9669 83.1146 95.0092 86.9956 82.9123 87.1364ZM54.7281 85.8845L56.6843 83.9283L55.6983 82.9424C55.5419 82.7859 55.5419 82.5512 55.6983 82.3947C55.8548 82.2382 56.1052 82.2382 56.2617 82.3947L57.2476 83.3806L60.4557 80.1725C60.5966 80.016 60.8469 80.016 61.0034 80.1725C61.1599 80.329 61.1599 80.5794 61.0034 80.7202L57.7953 83.9283L59.3133 85.4463C59.4072 85.5559 59.4229 85.6967 59.3759 85.8375L60.6905 85.8219C60.6435 85.6967 60.6591 85.5559 60.753 85.4463L62.318 83.8814L61.1912 82.7703C61.0347 82.6138 61.0347 82.3634 61.1912 82.2226C61.3477 82.0661 61.5981 82.0661 61.7546 82.2226L62.8657 83.3337L66.778 79.4214C66.9345 79.2649 67.1849 79.2649 67.3414 79.4214C67.4822 79.5779 67.4822 79.8282 67.3414 79.9691L65.4948 81.8313C65.6356 81.7531 65.8077 81.7375 65.9329 81.8626L67.404 83.3337L73.5072 77.2305C73.648 77.0896 73.8984 77.0896 74.0549 77.2305C74.2114 77.387 74.2114 77.6374 74.0549 77.7938L70.4869 81.3619L72.8186 83.678L75.4477 81.0489L74.54 80.1569C74.3835 80.0004 74.3835 79.75 74.54 79.5935C74.6965 79.4527 74.9469 79.4527 75.1034 79.5935L75.9954 80.5012L80.7997 75.7125C80.9405 75.556 81.1909 75.556 81.3474 75.7125C81.5039 75.8533 81.5039 76.1037 81.3474 76.2602L79.7356 77.8721L81.7543 79.8908L83.9921 77.653L82.7402 76.4011C82.5837 76.2446 82.5837 75.9942 82.7402 75.8533C82.8967 75.6969 83.1471 75.6969 83.3036 75.8533L84.5555 77.0896L86.7308 74.9144L86.4021 74.5701C86.2456 74.4293 86.2456 74.1789 86.4021 74.0224C86.5586 73.8659 86.809 73.8659 86.9498 74.0224L87.2941 74.351L89.3755 72.2697C89.532 72.1132 89.7824 72.1132 89.9388 72.2697C90.0797 72.4105 90.0797 72.6609 89.9388 72.8174L87.8418 74.9144L89.2503 76.3228L91.7855 73.7876C91.8324 73.7407 91.9106 73.725 91.9732 73.7094L90.0797 71.8158C89.9232 71.6594 89.9232 71.409 90.0797 71.2681C90.2362 71.1116 90.4866 71.1116 90.6431 71.2681L94.1798 74.8048L95.8229 73.146C95.9794 73.0052 96.2142 73.0052 96.3707 73.146C96.5272 73.3025 96.5272 73.5529 96.3707 73.7094L94.7275 75.3526L96.3707 76.9957C96.5741 75.6186 96.6524 74.1632 96.6837 72.6765L96.7776 69.625V69.6093L96.9027 64.7893C96.8871 64.7737 96.8401 64.7737 96.8245 64.758L95.9794 63.913L94.0233 65.8535C93.8824 66.01 93.6321 66.01 93.4756 65.8535C93.3191 65.697 93.3191 65.4466 93.4756 65.3058L95.4161 63.3496L93.2565 61.19C93.1156 61.0492 93.1156 60.7988 93.2565 60.6423C93.413 60.4858 93.6634 60.4858 93.8199 60.6423L95.9794 62.8019L96.9966 61.7847L97.0905 58.5766L96.6211 58.1071L94.6336 60.0946C94.4771 60.2511 94.2424 60.2511 94.0859 60.0946C93.9294 59.9381 93.9294 59.6877 94.0859 59.5469L96.0733 57.5594L94.6023 56.0884C94.4458 55.9319 94.4458 55.6815 94.6023 55.5407C94.7588 55.3842 95.0092 55.3842 95.15 55.5407L96.6211 56.996L97.0749 56.5579C97.0905 56.5422 97.1218 56.5422 97.1375 56.5266L97.2157 53.7723C97.1844 53.7879 97.1531 53.8192 97.1062 53.8192C96.9966 53.8192 96.9027 53.7879 96.8245 53.7097L96.4333 53.3185L94.9935 54.7738C94.8371 54.9147 94.5867 54.9303 94.4302 54.7738C94.2737 54.6173 94.2737 54.367 94.4302 54.2105L95.8855 52.7707L94.9309 51.8161C94.7901 51.6596 94.7901 51.4249 94.9309 51.2684C95.0874 51.1119 95.3378 51.1119 95.4943 51.2684L96.4333 52.2074L97.1531 51.5032C97.1844 51.4719 97.2314 51.4719 97.294 51.4562L97.3253 50.0478C97.3096 50.0478 97.3096 50.0478 97.294 50.0478L96.0577 48.8115L95.0718 49.7974C94.9153 49.9539 94.6806 49.9539 94.5241 49.7974C94.3676 49.6409 94.3676 49.4062 94.5241 49.2497L95.51 48.2638L95.4004 48.1386C95.2439 47.9821 95.2439 47.7473 95.4004 47.5908C95.5413 47.4344 95.7917 47.4344 95.9481 47.5908L96.0577 47.7004L97.4348 46.3389L97.4505 45.5721L95.9481 44.0698C95.7917 44.1793 95.6352 44.195 95.4787 44.0385C95.3222 43.882 95.3222 43.6472 95.4787 43.4908L97.0123 41.9571C97.1531 41.8006 97.4035 41.8163 97.56 41.9571L97.5757 41.3312L96.355 40.1105C96.1985 39.954 96.1985 39.7193 96.355 39.5628C96.4176 39.4845 96.5115 39.4689 96.6054 39.4532C96.6054 39.3594 96.6367 39.2811 96.6993 39.2029L97.6539 38.2483L97.9512 27.8259L3.32041 28.2171C1.01997 77.3087 1.09822 76.8236 2.4284 79.6248C5.46435 86.0723 13.5706 86.3696 20.3155 86.2757L29.2199 86.1818L29.2512 86.1505L28.9069 85.8219C28.766 85.6654 28.766 85.415 28.9069 85.2742C29.0634 85.1177 29.3138 85.1177 29.4703 85.2742L29.7989 85.6028L32.8818 82.5199C33.0226 82.3791 33.273 82.3791 33.4295 82.5199C33.586 82.6764 33.586 82.9268 33.4295 83.0833L30.3466 86.1505L30.3623 86.1662L33.1948 86.1349L33.2574 86.0723L32.6627 85.4776C32.5062 85.3211 32.5062 85.0707 32.6627 84.9142C32.8192 84.7577 33.0696 84.7577 33.2104 84.9142L33.8207 85.5089L36.5124 82.8016C36.6689 82.6608 36.9193 82.6608 37.0758 82.8016C37.2323 82.9581 37.2323 83.2085 37.0758 83.365L34.3685 86.0723L34.3841 86.0879C34.3841 86.0879 34.3841 86.1192 34.3998 86.1192L37.9052 86.0879L36.5907 84.7734C36.4342 84.6169 36.4342 84.3822 36.5907 84.2257C36.7471 84.0692 36.9819 84.0692 37.1384 84.2257L38.6563 85.728L40.2369 84.1631C40.2213 84.0535 40.2682 83.944 40.3465 83.8657C40.4247 83.7875 40.5186 83.7562 40.6281 83.7562L41.4889 82.8955C41.6453 82.739 41.8957 82.739 42.0522 82.8955C42.2087 83.052 42.2087 83.2867 42.0522 83.4432L41.2541 84.2413L42.5374 85.5089L46.0115 82.0348C46.168 81.8939 46.4184 81.8939 46.5592 82.0348C46.7157 82.1913 46.7157 82.4417 46.5592 82.5982L44.7908 84.3665L46.2619 85.8375C46.3088 85.8845 46.3088 85.9314 46.3245 85.994L46.4966 85.9784C46.5123 85.9471 46.5123 85.9158 46.5436 85.8845L47.8737 84.5387L47.8424 84.5074C47.6859 84.3665 47.6859 84.1161 47.8424 83.9596C47.9989 83.8032 48.2493 83.8032 48.4058 83.9596L48.4215 83.9909L49.7516 82.6608C49.9081 82.5043 50.1585 82.5043 50.315 82.6608C50.4715 82.8172 50.4715 83.0676 50.315 83.2085L48.9848 84.5387L50.1272 85.6967L51.6765 84.1474L51.254 83.7249C51.0975 83.5684 51.0975 83.3337 51.254 83.1772C51.4105 83.0207 51.6452 83.0207 51.8017 83.1772L52.2242 83.5997L54.1491 81.6749C54.3056 81.5184 54.556 81.5184 54.6968 81.6749C54.8533 81.8313 54.8533 82.0817 54.6968 82.2226L52.7719 84.1474L54.3838 85.7437C54.4151 85.7906 54.4151 85.8375 54.4308 85.9001L54.7281 85.8845Z" fill="#6440FB"/>
</svg>
